{"glyphs":{"0":{"ha":885,"x_min":57,"x_max":828,"o":"m 723 119 q 670 49 723 119 q 443 -21 618 -21 q 163 118 268 -21 q 57 489 57 257 q 162 855 57 717 q 443 993 267 993 q 722 856 617 993 q 828 489 828 718 q 723 119 828 260 m 443 133 q 601 230 542 133 q 660 489 660 326 q 601 745 660 650 q 443 840 542 840 q 284 745 343 840 q 225 489 225 650 q 284 230 225 326 q 443 133 343 133 z "},"1":{"ha":531,"x_min":32,"x_max":429,"o":"m 429 0 l 263 0 l 263 724 q 43 626 193 626 l 32 626 l 32 786 l 43 786 q 264 958 264 786 l 264 972 l 429 972 l 429 0 z "},"2":{"ha":796,"x_min":56,"x_max":742,"o":"m 742 697 q 697 540 742 608 q 585 430 651 472 q 452 349 519 388 q 331 261 385 311 q 267 150 278 211 l 724 150 l 724 0 l 78 0 l 78 92 q 105 228 78 167 q 176 331 132 290 q 272 406 219 372 q 378 470 325 440 q 474 530 431 500 q 545 601 518 560 q 572 692 572 642 q 529 801 572 760 q 414 843 486 843 q 283 792 335 843 q 231 650 232 742 l 56 650 q 167 902 67 811 q 417 993 267 993 q 652 911 563 993 q 742 697 742 829 z "},"3":{"ha":843,"x_min":42,"x_max":796,"o":"m 439 -22 q 158 67 267 -22 q 42 310 50 157 l 213 310 q 281 177 219 225 q 439 129 342 129 q 581 170 528 129 q 633 281 633 211 q 581 388 633 349 q 438 426 529 426 l 286 426 l 286 564 l 438 564 q 553 603 510 564 q 596 703 596 643 q 551 803 596 764 q 433 843 506 843 q 308 800 360 843 q 247 685 257 757 l 75 685 q 189 908 89 824 q 439 993 289 993 q 672 920 581 993 q 763 733 763 847 q 709 585 763 647 q 567 504 656 524 q 735 419 674 485 q 796 257 796 354 q 698 55 796 132 q 439 -22 600 -22 z "},"4":{"ha":878,"x_min":44,"x_max":851,"o":"m 683 0 l 517 0 l 517 217 l 44 217 l 44 364 l 515 972 l 683 972 l 683 367 l 851 367 l 851 217 l 683 217 l 683 0 m 517 744 l 225 367 l 517 367 l 517 744 z "},"5":{"ha":847,"x_min":58,"x_max":794,"o":"m 436 -22 q 180 64 283 -22 q 58 297 76 150 l 235 297 q 302 176 246 222 q 438 131 358 131 q 575 184 524 131 q 626 319 626 238 q 576 453 626 399 q 440 507 525 507 q 272 429 346 507 l 86 429 l 172 972 l 750 972 l 750 821 l 310 821 l 267 544 q 492 643 356 643 q 710 553 625 643 q 794 321 794 463 q 695 73 794 168 q 436 -22 596 -22 z "},"6":{"ha":886,"x_min":57,"x_max":838,"o":"m 478 -21 q 170 120 283 -21 q 57 489 57 261 q 172 857 57 721 q 481 993 286 993 q 727 908 629 993 q 838 683 825 822 l 667 683 q 607 799 660 754 q 478 843 554 843 q 289 753 358 843 q 213 513 219 663 l 213 465 q 324 601 244 549 q 510 654 404 654 q 741 562 651 654 q 831 324 831 469 q 732 75 831 171 q 478 -21 633 -21 m 469 129 q 604 180 547 129 q 661 324 661 231 q 605 466 661 415 q 471 517 549 517 q 333 465 392 517 q 274 322 274 413 q 332 181 274 232 q 469 129 390 129 z "},"7":{"ha":749,"x_min":31,"x_max":721,"o":"m 286 0 l 94 0 l 538 822 l 31 822 l 31 972 l 721 972 l 721 822 l 286 0 z "},"8":{"ha":872,"x_min":49,"x_max":824,"o":"m 438 -21 q 154 62 260 -21 q 49 267 49 144 q 103 413 49 350 q 253 507 157 475 q 135 599 176 540 q 93 731 93 658 q 187 917 93 842 q 438 993 281 993 q 687 917 594 993 q 779 731 779 842 q 738 600 779 660 q 621 507 696 540 q 770 413 717 476 q 824 267 824 350 q 720 62 824 144 q 438 -21 617 -21 m 309 601 q 334 581 309 601 q 438 561 358 561 q 566 601 517 561 q 615 707 615 642 q 566 809 615 769 q 438 849 517 849 q 309 809 358 849 q 260 707 260 769 q 309 601 260 642 m 281 175 q 311 153 281 175 q 438 131 340 131 q 593 175 535 131 q 651 286 651 219 q 593 397 651 351 q 438 442 535 442 q 281 397 340 442 q 222 286 222 351 q 281 175 222 219 z "},"9":{"ha":857,"x_min":51,"x_max":801,"o":"m 419 -21 q 167 62 267 -21 q 51 282 67 144 l 221 282 q 285 169 232 210 q 421 129 339 129 q 583 213 525 129 q 647 450 642 296 q 647 500 650 475 q 562 374 629 422 q 394 326 494 326 q 147 419 243 326 q 51 658 51 513 q 151 899 51 806 q 404 993 250 993 q 697 854 592 993 q 801 481 801 715 q 700 114 801 249 q 419 -21 599 -21 m 411 467 q 547 517 492 467 q 603 656 603 568 q 548 795 603 744 q 413 846 493 846 q 274 794 331 846 q 217 657 218 743 q 273 518 217 569 q 411 467 329 467 z "},"\r":{"ha":833,"x_min":0,"x_max":0,"o":""}," ":{"ha":303,"x_min":0,"x_max":0,"o":""},"!":{"ha":367,"x_min":76,"x_max":290,"o":"m 267 278 l 101 278 l 101 1042 l 267 1042 l 267 278 m 260 13 q 244 -3 260 13 q 183 -18 229 -18 q 107 13 138 -18 q 76 89 76 43 q 107 164 76 133 q 183 194 138 194 q 260 164 229 194 q 290 89 290 133 q 260 13 290 43 z "},"\"":{"ha":569,"x_min":88,"x_max":482,"o":"m 235 583 l 88 583 l 88 1042 l 235 1042 l 235 583 m 482 583 l 335 583 l 335 1042 l 482 1042 l 482 583 z "},"#":{"ha":1149,"x_min":44,"x_max":1104,"o":"m 411 233 l 347 -32 l 208 0 l 264 233 l 44 233 l 44 360 l 294 360 l 354 603 l 133 603 l 133 729 l 385 729 l 453 1013 l 592 981 l 532 729 l 738 729 l 806 1013 l 946 981 l 885 729 l 1104 729 l 1104 603 l 854 603 l 796 360 l 1015 360 l 1015 233 l 764 233 l 700 -32 l 561 0 l 618 233 l 411 233 m 500 603 l 442 360 l 649 360 l 707 603 l 500 603 z "},"$":{"ha":908,"x_min":60,"x_max":861,"o":"m 861 267 q 769 62 861 139 q 519 -21 676 -15 l 519 -187 l 407 -187 l 407 -15 q 160 90 253 6 q 60 300 68 174 l 231 300 q 407 136 250 171 l 407 433 l 379 442 q 326 458 342 453 q 273 478 311 463 q 215 505 235 493 q 167 539 196 517 q 124 585 139 561 q 99 643 110 608 q 88 717 88 678 q 174 910 88 833 q 407 993 260 986 l 407 1149 l 519 1149 l 519 988 q 742 881 660 967 q 832 661 824 796 l 663 661 q 519 833 654 796 l 519 561 l 579 543 q 663 515 632 526 q 736 481 693 504 q 803 431 779 457 q 844 362 826 404 q 861 267 861 319 m 253 725 q 290 647 253 672 q 407 597 328 622 l 407 844 q 294 808 335 839 q 253 725 253 776 m 519 400 l 519 128 q 647 166 603 132 q 692 258 692 200 q 654 340 692 311 q 538 394 617 369 l 519 400 z "},"%":{"ha":1263,"x_min":42,"x_max":1221,"o":"m 1049 974 l 347 -40 l 226 18 l 926 1031 l 1049 974 m 442 550 q 409 513 442 550 q 274 476 376 476 q 106 547 171 476 q 42 731 42 618 q 106 920 42 847 q 274 993 171 993 q 442 922 376 993 q 507 739 507 851 q 442 550 507 624 m 194 630 q 210 609 194 630 q 274 589 225 589 q 353 630 322 589 q 385 736 385 671 q 354 842 385 801 q 275 882 324 882 q 195 841 226 882 q 164 735 164 800 q 194 630 164 671 m 1156 53 q 1124 16 1156 53 q 989 -21 1092 -21 q 821 51 886 -21 q 756 235 756 122 q 821 424 756 351 q 989 496 886 497 q 1156 424 1092 494 q 1221 242 1221 353 q 1156 53 1221 126 m 909 133 q 925 112 909 133 q 989 92 940 92 q 1069 133 1038 92 q 1100 239 1100 174 q 1069 344 1100 303 q 990 385 1039 385 q 909 344 940 385 q 878 238 878 303 q 909 133 878 174 z "},"&":{"ha":990,"x_min":57,"x_max":967,"o":"m 428 -21 q 160 58 263 -21 q 57 265 57 138 q 119 437 57 368 q 285 560 181 506 q 188 769 188 671 q 259 930 188 867 q 440 993 331 993 q 624 929 551 993 q 699 768 697 865 q 649 633 699 688 q 513 533 600 579 l 718 324 q 756 544 753 417 l 907 544 q 832 210 907 349 l 967 72 l 853 -29 l 738 92 q 428 -21 614 -21 m 419 625 q 510 685 479 654 q 540 761 540 717 q 513 830 540 803 q 443 857 486 857 q 372 830 400 857 q 344 761 344 803 q 419 625 344 704 m 436 124 q 635 197 558 124 l 376 464 q 265 383 304 425 q 225 281 225 340 q 282 167 225 210 q 436 124 339 124 z "},"'":{"ha":315,"x_min":88,"x_max":228,"o":"m 228 581 l 88 581 l 88 1042 l 228 1042 l 228 581 z "},"(":{"ha":453,"x_min":89,"x_max":439,"o":"m 439 -149 l 310 -193 q 147 87 206 -78 q 89 425 89 251 q 147 769 89 599 q 310 1064 206 940 l 436 1015 q 289 746 342 903 q 238 425 236 589 q 291 112 238 265 q 439 -149 344 -42 z "},")":{"ha":453,"x_min":14,"x_max":364,"o":"m 143 -193 l 14 -149 q 162 112 108 -42 q 215 425 215 265 q 164 746 217 589 q 17 1015 111 903 l 143 1064 q 306 769 247 940 q 364 425 364 599 q 306 87 364 251 q 143 -193 247 -78 z "},"*":{"ha":692,"x_min":43,"x_max":649,"o":"m 404 414 l 288 414 l 288 618 l 99 508 l 43 610 l 232 721 l 43 829 l 99 931 l 288 821 l 288 1025 l 404 1025 l 404 821 l 594 931 l 649 829 l 461 721 l 649 611 l 593 510 l 404 619 l 404 414 z "},"+":{"ha":793,"x_min":51,"x_max":742,"o":"m 472 97 l 322 97 l 322 358 l 51 358 l 51 493 l 322 493 l 322 757 l 472 757 l 472 493 l 742 493 l 742 358 l 472 358 l 472 97 z "},",":{"ha":343,"x_min":7,"x_max":292,"o":"m 292 206 l 133 -276 l 7 -237 l 160 246 l 292 206 z "},"-":{"ha":724,"x_min":51,"x_max":672,"o":"m 672 358 l 51 358 l 51 493 l 672 493 l 672 358 z "},".":{"ha":318,"x_min":53,"x_max":265,"o":"m 158 -18 q 83 13 114 -18 q 53 89 53 43 q 83 164 53 133 q 158 194 114 194 q 235 164 204 194 q 265 89 265 133 q 235 13 265 43 q 158 -18 204 -18 z "},"/":{"ha":518,"x_min":6,"x_max":521,"o":"m 521 1061 l 153 -164 l 6 -119 l 371 1103 l 521 1061 z "},":":{"ha":318,"x_min":53,"x_max":265,"o":"m 158 546 q 83 576 114 546 q 53 653 53 607 q 83 728 53 697 q 158 758 114 758 q 235 728 204 758 q 265 653 265 697 q 235 576 265 607 q 158 546 204 546 m 158 -18 q 83 13 114 -18 q 53 89 53 43 q 83 164 53 133 q 158 194 114 194 q 235 164 204 194 q 265 89 265 133 q 235 13 265 43 q 158 -18 204 -18 z "},";":{"ha":356,"x_min":8,"x_max":296,"o":"m 189 546 q 114 576 144 546 q 83 653 83 607 q 114 728 83 697 q 189 758 144 758 q 265 728 235 758 q 296 653 296 697 q 265 576 296 607 q 189 546 235 546 m 293 206 l 133 -276 l 8 -237 l 161 246 l 293 206 z "},"<":{"ha":794,"x_min":51,"x_max":750,"o":"m 750 104 l 671 -18 l 51 306 l 51 474 l 671 796 l 750 676 l 200 389 l 750 104 z "},"=":{"ha":807,"x_min":60,"x_max":749,"o":"m 749 490 l 60 490 l 60 628 l 749 628 l 749 490 m 749 188 l 60 188 l 60 324 l 749 324 l 749 188 z "},">":{"ha":794,"x_min":44,"x_max":743,"o":"m 743 306 l 124 -18 l 44 104 l 594 389 l 44 676 l 124 796 l 743 474 l 743 306 z "},"?":{"ha":792,"x_min":47,"x_max":733,"o":"m 468 263 l 306 263 l 306 318 q 333 429 306 381 q 398 509 360 478 q 474 569 436 540 q 540 633 513 597 q 567 711 567 668 q 524 806 567 768 q 408 843 481 843 q 276 792 328 843 q 222 650 224 742 l 47 650 q 158 902 58 811 q 410 993 257 993 q 644 914 556 993 q 733 717 733 835 q 706 603 733 653 q 640 522 679 554 q 561 462 600 490 q 495 397 522 433 q 468 318 468 361 l 468 263 m 464 13 q 449 -3 464 13 q 388 -18 433 -18 q 311 13 342 -18 q 281 89 281 43 q 311 164 281 133 q 388 194 342 194 q 464 164 433 194 q 494 89 494 133 q 464 13 494 43 z "},"@":{"ha":1236,"x_min":64,"x_max":1179,"o":"m 658 -157 q 226 -13 388 -157 q 64 376 64 131 q 229 792 64 629 q 654 956 394 956 q 1033 816 886 956 q 1179 457 1179 676 q 1109 210 1179 306 q 929 115 1039 115 q 824 147 865 115 q 781 229 783 179 q 574 115 710 115 q 402 187 468 115 q 336 372 336 258 q 417 605 336 511 q 618 699 499 699 q 808 594 749 699 l 832 679 l 908 679 l 869 292 q 883 238 867 258 q 931 218 900 218 q 1028 283 990 218 q 1065 450 1065 349 q 950 733 1065 625 q 650 840 835 840 q 317 710 447 840 q 188 378 188 579 q 317 69 188 182 q 664 -44 446 -44 q 954 19 822 -44 l 954 -103 q 658 -157 824 -157 m 599 214 q 714 267 667 214 q 769 404 761 321 q 740 545 779 490 q 632 600 701 600 q 508 538 558 600 q 457 382 457 475 q 496 261 457 308 q 599 214 535 214 z "},"A":{"ha":1013,"x_min":25,"x_max":988,"o":"m 197 0 l 25 0 l 422 972 l 589 972 l 988 0 l 815 0 l 717 240 l 296 240 l 197 0 m 507 757 l 356 388 l 657 388 l 507 757 z "},"B":{"ha":939,"x_min":101,"x_max":883,"o":"m 571 0 l 101 0 l 101 972 l 563 972 q 778 904 694 972 q 863 726 863 836 q 808 583 863 644 q 663 500 753 522 q 824 421 764 485 q 883 264 883 357 q 797 74 883 147 q 571 0 710 0 m 267 824 l 267 567 l 557 567 q 658 604 619 567 q 697 700 697 642 q 661 789 697 754 q 569 824 625 824 l 267 824 m 267 422 l 267 150 l 579 150 q 677 189 640 150 q 714 288 714 228 q 672 385 714 347 q 564 422 631 422 l 267 422 z "},"C":{"ha":1071,"x_min":57,"x_max":1014,"o":"m 546 -21 q 190 119 324 -21 q 57 489 57 260 q 190 853 57 713 q 546 993 322 993 q 858 888 735 993 q 1014 597 982 783 l 843 597 q 740 778 819 713 q 546 843 661 843 q 313 747 399 843 q 228 489 228 651 q 313 226 228 322 q 546 131 399 131 q 742 195 664 131 q 843 375 819 260 l 1014 375 q 858 83 981 186 q 546 -21 736 -21 z "},"D":{"ha":999,"x_min":101,"x_max":942,"o":"m 451 0 l 101 0 l 101 972 l 451 972 q 805 838 668 972 q 942 492 942 704 q 805 137 942 274 q 451 0 668 0 m 268 822 l 268 150 l 463 150 q 684 245 599 150 q 769 492 769 340 q 683 728 769 635 q 463 822 597 822 l 268 822 z "},"E":{"ha":849,"x_min":101,"x_max":794,"o":"m 794 0 l 101 0 l 101 972 l 782 972 l 782 822 l 267 822 l 267 572 l 733 572 l 733 426 l 267 426 l 267 150 l 794 150 l 794 0 z "},"F":{"ha":838,"x_min":101,"x_max":790,"o":"m 268 0 l 101 0 l 101 972 l 790 972 l 790 822 l 268 822 l 268 554 l 753 554 l 753 404 l 268 404 l 268 0 z "},"G":{"ha":1094,"x_min":57,"x_max":1019,"o":"m 521 -21 q 186 119 315 -21 q 57 489 57 258 q 189 853 57 713 q 544 993 321 993 q 857 888 733 993 q 1013 597 981 782 l 842 597 q 739 778 818 713 q 544 843 660 843 q 313 748 399 843 q 228 489 228 653 q 313 227 228 324 q 538 131 397 131 q 719 197 650 131 q 788 368 788 263 l 494 368 l 494 508 l 826 508 q 970 463 921 508 q 1019 328 1019 417 l 1019 0 l 872 0 l 872 297 l 869 297 q 763 65 854 150 q 521 -21 671 -21 z "},"H":{"ha":1068,"x_min":101,"x_max":968,"o":"m 268 0 l 101 0 l 101 972 l 268 972 l 268 572 l 801 572 l 801 972 l 968 972 l 968 0 l 801 0 l 801 422 l 268 422 l 268 0 z "},"I":{"ha":368,"x_min":101,"x_max":268,"o":"m 268 0 l 101 0 l 101 972 l 268 972 l 268 0 z "},"J":{"ha":818,"x_min":50,"x_max":725,"o":"m 392 -21 q 145 59 240 -21 q 50 265 50 139 l 50 403 l 215 403 l 215 267 q 264 168 215 206 q 389 131 313 131 q 511 172 464 131 q 558 279 558 214 l 558 972 l 725 972 l 725 276 q 632 62 725 144 q 392 -21 539 -21 z "},"K":{"ha":967,"x_min":101,"x_max":949,"o":"m 268 0 l 101 0 l 101 972 l 268 972 l 268 496 l 710 972 l 921 972 l 540 574 l 949 0 l 744 0 l 425 453 l 268 289 l 268 0 z "},"L":{"ha":810,"x_min":101,"x_max":764,"o":"m 764 0 l 101 0 l 101 972 l 268 972 l 268 150 l 764 150 l 764 0 z "},"M":{"ha":1221,"x_min":101,"x_max":1119,"o":"m 268 0 l 101 0 l 101 972 l 307 972 l 611 200 l 914 972 l 1119 972 l 1119 0 l 953 0 l 953 685 l 683 0 l 538 0 l 268 683 l 268 0 z "},"N":{"ha":1032,"x_min":101,"x_max":931,"o":"m 268 0 l 101 0 l 101 972 l 282 972 l 764 240 l 764 972 l 931 972 l 931 0 l 750 0 l 268 732 l 268 0 z "},"O":{"ha":1085,"x_min":57,"x_max":1029,"o":"m 542 -21 q 191 119 325 -21 q 57 489 57 258 q 189 853 57 713 q 542 993 321 993 q 894 855 760 993 q 1029 489 1029 717 q 897 121 1029 263 q 542 -21 764 -21 m 542 131 q 774 228 688 131 q 860 489 860 325 q 774 747 860 651 q 542 843 688 843 q 312 747 397 843 q 226 489 226 651 q 312 228 226 325 q 542 131 397 131 z "},"P":{"ha":963,"x_min":101,"x_max":914,"o":"m 268 0 l 101 0 l 101 972 l 594 972 q 827 886 740 972 q 914 667 914 800 q 824 437 914 522 q 594 351 735 351 l 268 351 l 268 0 m 268 822 l 268 501 l 586 501 q 703 549 661 501 q 744 667 744 597 q 701 779 744 736 q 586 822 657 822 l 268 822 z "},"Q":{"ha":1085,"x_min":57,"x_max":1029,"o":"m 939 -129 l 817 -192 l 701 3 q 542 -21 626 -21 q 191 119 325 -21 q 57 489 57 258 q 189 853 57 713 q 542 993 321 993 q 894 855 760 993 q 1029 489 1029 717 q 976 239 1029 350 q 826 63 924 128 l 939 -129 m 542 131 q 619 139 583 131 l 488 363 l 611 424 l 743 200 q 860 489 860 294 q 774 747 860 651 q 542 843 688 843 q 312 747 397 843 q 226 489 226 651 q 312 228 226 325 q 542 131 397 131 z "},"R":{"ha":965,"x_min":101,"x_max":933,"o":"m 268 0 l 101 0 l 101 972 l 576 972 q 802 896 715 972 q 889 697 889 819 q 831 540 889 608 q 675 446 772 471 q 808 335 772 426 l 933 0 l 756 0 l 643 307 q 553 367 622 367 l 268 367 l 268 0 m 268 822 l 268 514 l 568 514 q 683 560 642 514 q 724 672 724 606 q 681 781 724 739 q 568 822 639 822 l 268 822 z "},"S":{"ha":908,"x_min":60,"x_max":861,"o":"m 499 -21 q 189 67 308 -21 q 60 300 69 154 l 231 300 q 313 174 242 219 q 499 128 383 128 q 642 162 593 128 q 692 258 692 196 q 654 340 692 311 q 538 394 617 369 l 379 442 q 326 458 342 453 q 273 478 311 463 q 215 505 235 493 q 167 539 196 517 q 124 585 139 561 q 99 643 110 608 q 88 717 88 678 q 182 916 88 839 q 435 993 276 993 q 717 904 611 993 q 832 661 822 815 l 663 661 q 597 795 657 746 q 429 844 536 844 q 301 813 349 844 q 253 725 253 781 q 276 662 253 688 q 331 624 300 636 q 413 594 363 611 q 432 589 425 590 l 579 543 q 663 515 632 526 q 736 481 693 504 q 803 431 779 457 q 844 362 826 404 q 861 267 861 319 q 763 57 861 135 q 499 -21 665 -21 z "},"T":{"ha":896,"x_min":40,"x_max":856,"o":"m 532 0 l 365 0 l 365 822 l 40 822 l 40 972 l 856 972 l 856 822 l 532 822 l 532 0 z "},"U":{"ha":996,"x_min":93,"x_max":903,"o":"m 793 76 q 738 28 793 76 q 499 -21 683 -21 q 203 76 314 -21 q 93 324 93 174 l 93 972 l 260 972 l 260 328 q 326 184 260 236 q 497 132 392 132 q 669 184 603 132 q 736 328 736 236 l 736 972 l 903 972 l 903 324 q 793 76 903 174 z "},"V":{"ha":956,"x_min":18,"x_max":938,"o":"m 571 0 l 396 0 l 18 972 l 197 972 l 483 228 l 760 972 l 938 972 l 571 0 z "},"W":{"ha":1343,"x_min":18,"x_max":1325,"o":"m 475 0 l 293 0 l 18 972 l 192 972 l 394 243 l 593 972 l 749 972 l 949 242 l 1151 972 l 1325 972 l 1050 0 l 868 0 l 671 726 l 475 0 z "},"X":{"ha":993,"x_min":32,"x_max":963,"o":"m 233 0 l 32 0 l 397 488 l 42 972 l 243 972 l 499 621 l 753 972 l 953 972 l 599 489 l 963 0 l 761 0 l 499 357 l 233 0 z "},"Y":{"ha":933,"x_min":14,"x_max":919,"o":"m 549 0 l 382 0 l 382 415 l 14 972 l 207 972 l 467 574 l 726 972 l 919 972 l 549 415 l 549 0 z "},"Z":{"ha":844,"x_min":56,"x_max":789,"o":"m 789 0 l 56 0 l 56 154 l 579 822 l 81 822 l 81 972 l 775 972 l 775 818 l 251 150 l 789 150 l 789 0 z "},"[":{"ha":482,"x_min":119,"x_max":458,"o":"m 458 -178 l 119 -178 l 119 1061 l 458 1061 l 458 935 l 263 935 l 263 -51 l 458 -51 l 458 -178 z "},"\\":{"ha":518,"x_min":-3,"x_max":514,"o":"m 514 -119 l 367 -164 l -3 1061 l 149 1103 l 514 -119 z "},"]":{"ha":482,"x_min":24,"x_max":363,"o":"m 363 1061 l 363 -178 l 24 -178 l 24 -51 l 219 -51 l 219 935 l 24 935 l 24 1061 l 363 1061 z "},"^":{"ha":672,"x_min":46,"x_max":626,"o":"m 219 600 l 46 600 l 263 972 l 408 972 l 626 600 l 453 600 l 336 807 l 219 600 z "},"_":{"ha":751,"x_min":51,"x_max":700,"o":"m 700 -156 l 51 -156 l 51 -21 l 700 -21 l 700 -156 z "},"`":{"ha":503,"x_min":11,"x_max":492,"o":"m 492 901 l 401 801 l 11 1121 l 100 1219 l 492 901 z "},"a":{"ha":818,"x_min":47,"x_max":793,"o":"m 326 -15 q 122 43 199 -15 q 47 204 46 101 q 67 292 47 254 q 117 353 88 331 q 191 392 146 376 q 274 416 236 408 q 363 429 313 424 q 388 432 371 431 q 457 441 435 438 q 507 452 479 444 q 546 472 535 460 q 557 504 557 485 q 515 591 556 558 q 406 624 475 624 q 285 588 333 624 q 229 494 236 553 l 64 494 q 171 685 75 611 q 408 758 267 758 q 635 686 554 758 q 717 493 717 614 l 717 160 q 753 128 717 128 l 793 128 l 793 0 l 715 0 q 582 86 601 0 q 575 111 578 99 q 326 -15 507 -15 m 360 114 q 501 158 446 114 q 557 276 557 203 l 557 379 q 514 346 544 358 q 457 328 483 333 q 381 317 431 322 q 315 306 339 311 q 263 291 290 301 q 224 262 236 281 q 213 215 213 243 q 251 140 213 167 q 360 114 289 114 z "},"b":{"ha":871,"x_min":86,"x_max":826,"o":"m 493 -21 q 337 19 406 -21 q 233 131 268 60 l 218 0 l 86 0 l 86 1042 l 250 1042 l 250 640 q 494 758 336 758 q 733 651 640 758 q 826 372 826 543 q 733 89 826 199 q 493 -21 640 -21 m 457 118 q 602 189 546 118 q 658 372 658 260 q 602 551 658 482 q 457 619 546 619 q 308 551 367 619 q 250 376 250 483 q 308 190 250 263 q 457 118 367 118 z "},"c":{"ha":817,"x_min":44,"x_max":772,"o":"m 425 -21 q 147 90 249 -21 q 44 374 44 201 q 151 655 44 551 q 421 758 257 758 q 666 674 571 758 q 772 451 761 590 l 611 451 q 549 573 600 528 q 419 618 497 618 q 268 552 325 618 q 211 374 211 486 q 271 188 211 256 q 425 119 331 119 q 549 165 500 119 q 611 289 599 210 l 772 289 q 664 63 757 146 q 425 -21 571 -21 z "},"d":{"ha":872,"x_min":44,"x_max":786,"o":"m 386 -21 q 140 89 236 -21 q 44 372 44 199 q 139 651 44 543 q 381 758 233 758 q 622 646 539 758 l 622 1042 l 786 1042 l 786 0 l 654 0 l 639 131 q 541 19 607 60 q 386 -21 475 -21 m 269 189 q 298 153 269 189 q 417 118 326 118 q 565 190 507 118 q 622 374 622 261 q 566 552 622 483 q 419 621 510 621 q 270 551 328 621 q 213 371 213 482 q 269 189 213 260 z "},"e":{"ha":806,"x_min":44,"x_max":761,"o":"m 424 -21 q 150 88 256 -21 q 44 365 44 196 q 148 651 44 544 q 410 758 251 758 q 663 655 567 758 q 761 374 758 551 l 761 335 l 208 335 q 274 177 217 236 q 425 118 332 118 q 535 148 489 118 q 599 233 581 178 l 758 233 q 642 47 731 114 q 424 -21 553 -21 m 215 450 l 592 450 q 528 575 576 531 q 410 619 481 619 q 286 574 338 619 q 215 450 235 529 z "},"f":{"ha":567,"x_min":36,"x_max":560,"o":"m 329 0 l 165 0 l 165 597 l 36 597 l 36 736 l 165 736 l 165 828 q 226 987 165 932 q 400 1042 286 1042 l 560 1042 l 560 903 l 411 903 q 329 817 329 903 l 329 736 l 543 736 l 543 597 l 329 597 l 329 0 z "},"g":{"ha":863,"x_min":44,"x_max":781,"o":"m 419 -300 q 168 -230 264 -300 q 72 -42 72 -160 l 236 -42 q 288 -131 236 -94 q 419 -167 339 -167 q 567 -115 515 -167 q 618 22 618 -64 l 618 126 q 383 11 542 11 q 140 115 235 11 q 44 383 44 219 q 140 653 44 549 q 382 758 235 758 q 534 722 467 758 q 636 622 601 685 l 650 736 l 781 736 l 781 22 q 683 -212 781 -125 q 419 -300 586 -300 m 270 214 q 298 181 270 214 q 415 149 326 149 q 561 215 504 149 q 618 385 618 281 q 562 554 618 489 q 415 619 506 619 q 269 554 325 619 q 214 383 214 489 q 270 214 214 279 z "},"h":{"ha":814,"x_min":86,"x_max":740,"o":"m 250 0 l 86 0 l 86 1042 l 250 1042 l 250 657 q 481 758 333 758 q 669 685 599 758 q 740 488 740 611 l 740 0 l 576 0 l 576 479 q 538 578 576 542 q 435 615 500 615 q 302 567 353 615 q 250 446 251 519 l 250 0 z "},"i":{"ha":331,"x_min":60,"x_max":271,"o":"m 165 835 q 90 866 121 835 q 60 942 60 897 q 90 1017 60 986 q 165 1047 121 1047 q 241 1017 211 1047 q 271 942 271 986 q 241 865 271 896 q 165 835 211 835 m 247 0 l 83 0 l 83 736 l 247 736 l 247 0 z "},"j":{"ha":331,"x_min":-115,"x_max":271,"o":"m 165 835 q 90 865 121 835 q 60 942 60 896 q 90 1017 60 986 q 165 1047 121 1047 q 241 1017 211 1047 q 271 942 271 986 q 241 865 271 896 q 165 835 211 835 m 1 -278 l -115 -278 l -115 -139 l -10 -139 q 83 -42 83 -139 l 83 736 l 247 736 l 247 -54 q 184 -221 247 -164 q 1 -278 121 -278 z "},"k":{"ha":794,"x_min":86,"x_max":800,"o":"m 250 0 l 86 0 l 86 1042 l 250 1042 l 250 417 l 564 736 l 764 736 l 497 471 l 800 0 l 610 0 l 383 357 l 250 224 l 250 0 z "},"l":{"ha":336,"x_min":86,"x_max":250,"o":"m 250 0 l 86 0 l 86 1042 l 250 1042 l 250 0 z "},"m":{"ha":1278,"x_min":83,"x_max":1204,"o":"m 247 0 l 83 0 l 83 736 l 215 736 l 228 633 q 328 724 264 689 q 474 758 393 758 q 610 722 551 758 q 699 621 669 685 q 799 720 731 682 q 951 758 867 758 q 1135 684 1067 758 q 1204 490 1204 610 l 1204 0 l 1039 0 l 1039 482 q 1004 580 1039 543 q 910 617 969 617 q 776 569 826 617 q 725 446 726 521 l 725 0 l 561 0 l 561 482 q 526 580 561 543 q 432 617 492 617 q 299 569 349 617 q 247 446 249 521 l 247 0 z "},"n":{"ha":811,"x_min":83,"x_max":738,"o":"m 247 0 l 83 0 l 83 736 l 215 736 l 229 628 q 331 722 264 686 q 478 758 397 758 q 667 685 596 758 q 738 488 738 611 l 738 0 l 574 0 l 574 479 q 535 578 574 542 q 428 615 496 615 q 299 567 349 615 q 247 446 249 519 l 247 0 z "},"o":{"ha":843,"x_min":44,"x_max":799,"o":"m 422 -21 q 146 90 247 -21 q 44 375 44 200 q 151 655 44 551 q 422 758 257 758 q 697 650 596 758 q 799 375 799 542 q 694 85 799 192 q 422 -21 590 -21 m 422 119 q 576 191 519 119 q 632 375 632 263 q 575 551 632 485 q 422 618 518 618 q 269 551 326 618 q 211 375 211 485 q 270 188 211 257 q 422 119 329 119 z "},"p":{"ha":871,"x_min":85,"x_max":826,"o":"m 250 -278 l 85 -278 l 85 736 l 217 736 l 233 615 q 340 719 271 681 q 494 758 408 758 q 733 651 640 758 q 826 372 826 543 q 733 89 826 199 q 493 -21 640 -21 q 351 12 415 -21 q 250 103 288 44 l 250 -278 m 457 118 q 602 189 546 118 q 658 372 658 260 q 602 551 658 482 q 456 619 546 619 q 308 551 365 619 q 250 376 250 483 q 308 190 250 263 q 457 118 365 118 z "},"q":{"ha":871,"x_min":44,"x_max":786,"o":"m 786 -278 l 622 -278 l 622 100 q 386 -21 546 -21 q 140 89 236 -21 q 44 372 44 199 q 139 651 44 543 q 381 758 233 758 q 535 721 467 758 q 639 619 604 683 l 654 736 l 786 736 l 786 -278 m 269 189 q 298 153 269 189 q 417 118 326 118 q 565 190 507 118 q 622 374 622 261 q 566 552 622 483 q 419 621 510 621 q 270 551 328 621 q 213 371 213 482 q 269 189 213 260 z "},"r":{"ha":543,"x_min":83,"x_max":518,"o":"m 247 0 l 83 0 l 83 736 l 215 736 l 235 592 q 490 744 307 744 l 518 744 l 518 585 l 490 585 q 311 526 375 585 q 247 364 247 468 l 247 0 z "},"s":{"ha":694,"x_min":46,"x_max":660,"o":"m 376 -21 q 140 47 226 -21 q 46 235 53 114 l 204 235 q 253 145 208 176 q 368 114 299 114 q 496 203 496 114 q 474 255 496 239 q 397 288 451 271 q 385 292 389 290 l 288 324 q 199 356 232 342 q 129 396 165 371 q 76 457 93 421 q 60 542 60 493 q 133 700 60 642 q 336 758 206 758 q 547 692 465 758 q 643 501 629 625 l 488 501 q 335 624 475 624 q 251 602 281 624 q 221 543 221 581 q 223 526 221 533 q 230 511 225 518 q 239 499 235 504 q 252 488 243 493 q 267 479 261 482 q 284 472 272 476 q 301 465 296 467 q 320 458 307 463 q 338 453 333 454 l 426 424 q 605 336 550 382 q 660 199 660 290 q 585 38 660 96 q 376 -21 511 -21 z "},"t":{"ha":556,"x_min":36,"x_max":519,"o":"m 506 0 l 411 0 q 228 58 292 0 q 165 225 165 115 l 165 597 l 36 597 l 36 736 l 165 736 l 165 988 l 329 988 l 329 736 l 519 736 l 519 597 l 329 597 l 329 236 q 422 139 329 139 l 506 139 l 506 0 z "},"u":{"ha":808,"x_min":71,"x_max":725,"o":"m 347 -21 q 144 53 218 -21 q 71 249 71 126 l 71 736 l 235 736 l 235 256 q 274 159 235 194 q 381 124 314 124 q 511 171 463 124 q 561 292 560 218 l 561 736 l 725 736 l 725 0 l 593 0 l 581 107 q 486 13 549 47 q 347 -21 424 -21 z "},"v":{"ha":821,"x_min":18,"x_max":803,"o":"m 496 0 l 325 0 l 18 736 l 196 736 l 411 193 l 625 736 l 803 736 l 496 0 z "},"w":{"ha":1096,"x_min":18,"x_max":1078,"o":"m 408 0 l 236 0 l 18 736 l 186 736 l 335 203 l 481 736 l 617 736 l 764 208 l 910 736 l 1078 736 l 860 0 l 690 0 l 549 503 l 408 0 z "},"x":{"ha":763,"x_min":24,"x_max":739,"o":"m 208 0 l 24 0 l 289 368 l 28 736 l 211 736 l 382 490 l 551 736 l 735 736 l 474 368 l 739 0 l 554 0 l 382 254 l 208 0 z "},"y":{"ha":801,"x_min":18,"x_max":783,"o":"m 203 -278 l 69 -278 l 69 -139 l 203 -139 q 311 -78 289 -139 l 340 0 l 310 0 l 18 736 l 194 736 l 406 178 l 613 736 l 783 736 l 463 -126 q 203 -278 406 -278 z "},"z":{"ha":693,"x_min":56,"x_max":639,"o":"m 639 0 l 56 0 l 56 150 l 450 592 l 68 592 l 68 736 l 633 736 l 633 586 l 238 146 l 639 146 l 639 0 z "},"{":{"ha":499,"x_min":40,"x_max":475,"o":"m 475 -178 l 368 -178 q 214 -125 271 -178 q 157 18 157 -72 l 157 293 q 126 360 157 336 q 40 383 96 383 l 40 499 q 126 522 96 499 q 157 588 157 544 l 157 850 q 214 1007 157 953 q 381 1061 271 1061 l 475 1061 l 475 935 l 386 935 q 300 846 300 935 l 300 575 q 196 439 300 468 q 300 301 300 410 l 300 32 q 385 -51 300 -51 l 475 -51 l 475 -178 z "},"|":{"ha":386,"x_min":110,"x_max":276,"o":"m 276 -160 l 110 -160 l 110 1042 l 276 1042 l 276 -160 z "},"}":{"ha":499,"x_min":24,"x_max":460,"o":"m 132 -178 l 24 -178 l 24 -51 l 114 -51 q 199 32 199 -51 l 199 301 q 303 439 199 410 q 199 575 199 469 l 199 846 q 114 935 199 935 l 24 935 l 24 1061 l 118 1061 q 285 1007 228 1061 q 343 850 343 953 l 343 588 q 374 522 343 544 q 460 499 404 499 l 460 383 q 374 360 404 383 q 343 293 343 336 l 343 18 q 285 -125 343 -72 q 132 -178 228 -178 z "},"~":{"ha":838,"x_min":51,"x_max":788,"o":"m 600 260 q 476 295 540 260 q 359 365 411 331 q 278 400 307 400 q 203 279 203 400 l 51 279 q 102 481 51 413 q 249 550 153 550 q 363 515 303 550 q 477 444 424 479 q 565 408 531 408 q 632 524 632 408 l 788 524 q 600 260 788 260 z "},"¡":{"ha":367,"x_min":76,"x_max":290,"o":"m 260 576 q 244 561 260 576 q 183 546 229 546 q 107 576 138 546 q 76 653 76 607 q 107 728 76 697 q 183 758 138 758 q 260 728 229 758 q 290 653 290 697 q 260 576 290 607 m 267 -301 l 101 -301 l 101 463 l 267 463 l 267 -301 z "},"¢":{"ha":817,"x_min":44,"x_max":772,"o":"m 465 -71 l 353 -71 l 353 103 q 126 231 208 125 q 44 490 44 338 q 130 749 44 649 q 353 869 215 849 l 353 1031 l 465 1031 l 465 872 q 680 778 597 860 q 772 568 763 696 l 611 568 q 563 675 601 632 q 465 729 525 718 l 465 242 q 563 295 524 253 q 611 406 601 338 l 772 406 q 677 191 758 272 q 465 99 596 110 l 465 -71 m 353 250 l 353 724 q 249 642 286 703 q 211 490 211 581 q 249 335 211 397 q 353 250 288 272 z "},"£":{"ha":921,"x_min":61,"x_max":854,"o":"m 582 0 l 61 0 l 61 151 q 261 279 261 151 q 221 404 261 329 l 61 404 l 61 529 l 153 529 q 117 683 117 608 q 213 906 117 819 q 463 993 310 993 q 701 909 606 993 q 817 671 797 825 l 642 671 q 581 797 628 753 q 463 842 533 842 q 342 797 389 842 q 294 679 294 751 q 338 529 294 618 l 606 529 l 606 404 l 403 404 q 433 294 433 340 q 400 205 433 243 q 313 151 367 167 l 582 151 q 692 258 692 151 l 692 390 l 854 390 l 854 258 q 784 66 854 132 q 582 0 714 0 z "},"¤":{"ha":792,"x_min":50,"x_max":743,"o":"m 233 185 l 121 72 l 50 139 l 160 249 q 100 431 100 321 q 154 603 100 532 l 50 708 l 121 775 l 226 669 q 396 714 301 714 q 565 669 496 714 l 672 775 l 743 710 l 638 606 q 694 429 694 531 q 633 247 694 321 l 742 138 l 671 72 l 558 185 q 396 143 486 143 q 233 185 306 143 m 396 281 q 504 322 463 281 q 546 429 546 364 q 504 537 546 496 q 396 578 463 578 q 290 536 331 578 q 249 429 249 494 q 290 322 249 364 q 396 281 331 281 z "},"¥":{"ha":933,"x_min":14,"x_max":919,"o":"m 549 0 l 382 0 l 382 136 l 103 136 l 103 236 l 382 236 l 382 317 l 103 317 l 103 415 l 382 415 l 14 972 l 207 972 l 467 574 l 726 972 l 919 972 l 549 415 l 831 415 l 831 317 l 549 317 l 549 236 l 831 236 l 831 136 l 549 136 l 549 0 z "},"¦":{"ha":386,"x_min":110,"x_max":276,"o":"m 276 514 l 110 514 l 110 1042 l 276 1042 l 276 514 m 276 -160 l 110 -160 l 110 368 l 276 368 l 276 -160 z "},"§":{"ha":825,"x_min":104,"x_max":718,"o":"m 417 -136 q 196 -72 281 -136 q 104 103 111 -7 l 263 103 q 311 27 268 56 q 422 -1 354 -1 q 519 22 485 -1 q 554 88 554 44 q 539 130 554 113 q 510 153 524 147 q 456 172 497 158 q 444 176 449 175 l 335 213 q 165 292 224 249 q 107 417 107 335 q 240 596 107 536 q 111 776 111 656 q 188 934 111 875 q 393 993 264 993 q 601 928 521 993 q 694 746 681 863 l 539 746 q 493 829 533 800 q 389 858 453 858 q 303 837 335 858 q 272 778 272 815 q 274 760 272 768 q 281 746 276 753 q 290 733 286 739 q 303 722 294 728 q 318 714 313 717 q 335 706 324 711 q 353 699 347 701 q 372 693 358 697 q 389 688 385 689 l 478 658 q 656 572 601 617 q 711 443 711 528 q 674 342 711 386 q 574 275 636 297 q 683 201 647 244 q 718 83 718 157 q 638 -78 718 -19 q 417 -136 558 -136 m 385 342 l 488 307 q 560 415 560 343 q 531 483 560 461 q 436 526 501 506 l 335 560 q 258 456 258 522 q 262 425 258 439 q 275 401 265 411 q 290 383 285 390 q 314 369 296 376 q 336 358 332 361 q 362 349 340 356 q 385 342 383 342 z "},"¨":{"ha":569,"x_min":38,"x_max":532,"o":"m 139 822 q 67 851 96 822 q 38 924 38 881 q 67 994 38 965 q 139 1024 96 1024 q 210 994 181 1024 q 239 924 239 965 q 210 851 239 881 q 139 822 181 822 m 503 851 q 488 837 503 851 q 432 822 474 822 q 360 851 390 822 q 331 924 331 881 q 360 994 331 965 q 432 1024 390 1024 q 503 994 474 1024 q 532 924 532 965 q 503 851 532 881 z "},"©":{"ha":1222,"x_min":60,"x_max":1164,"o":"m 611 -71 q 217 85 374 -71 q 60 482 60 240 q 215 878 60 721 q 611 1035 369 1035 q 1007 880 850 1035 q 1164 482 1164 725 q 1009 87 1164 244 q 611 -71 854 -71 m 611 38 q 922 162 799 38 q 1046 482 1046 286 q 924 800 1046 674 q 611 926 803 926 q 300 802 424 926 q 176 482 176 678 q 299 164 176 290 q 611 38 421 38 m 622 215 q 433 290 506 215 q 360 485 360 365 q 432 677 360 603 q 618 751 504 751 q 788 694 721 751 q 864 540 854 638 l 751 540 q 709 621 746 590 q 618 651 672 651 q 515 605 556 651 q 475 485 475 558 q 517 361 475 408 q 624 314 558 314 q 711 344 676 314 q 751 426 746 375 l 864 426 q 786 273 853 331 q 622 215 719 215 z "},"ª":{"ha":638,"x_min":50,"x_max":596,"o":"m 253 424 q 106 468 161 424 q 50 588 50 513 q 69 663 50 632 q 127 711 89 694 q 197 735 165 728 q 276 747 229 742 q 303 750 286 749 q 328 753 319 751 q 351 756 338 754 q 371 759 364 757 q 387 764 378 761 q 401 769 396 767 q 410 777 406 772 q 417 788 415 782 q 419 800 419 793 q 392 859 419 836 q 318 882 364 882 q 226 859 261 882 q 183 794 190 836 l 61 794 q 140 935 69 882 q 322 988 211 988 q 483 935 425 988 q 540 794 540 883 l 540 563 q 567 538 540 538 l 596 538 l 596 433 l 550 433 q 440 500 458 433 q 435 515 436 507 q 253 424 381 424 m 275 522 q 378 556 338 522 q 419 640 419 589 l 419 700 q 388 674 411 683 q 349 662 364 664 q 293 654 335 660 q 203 635 232 649 q 175 588 175 621 q 202 540 175 557 q 275 522 229 522 z "},"«":{"ha":794,"x_min":51,"x_max":757,"o":"m 447 114 l 347 24 l 51 319 l 51 456 l 344 749 l 442 658 l 172 388 l 447 114 m 757 114 l 656 24 l 360 319 l 360 456 l 653 749 l 751 658 l 482 388 l 757 114 z "},"¬":{"ha":803,"x_min":51,"x_max":733,"o":"m 733 24 l 583 24 l 583 333 l 51 333 l 51 469 l 733 469 l 733 24 z "},"®":{"ha":843,"x_min":44,"x_max":799,"o":"m 422 285 q 152 390 260 285 q 44 661 44 496 q 151 931 44 824 q 422 1038 257 1038 q 692 932 585 1038 q 799 661 799 826 q 693 392 799 499 q 422 285 588 285 m 422 376 q 620 456 542 376 q 699 661 699 536 q 622 864 699 783 q 422 944 544 944 q 224 865 303 944 q 144 661 144 786 q 222 458 144 539 q 422 376 300 376 m 360 490 l 275 490 l 275 833 l 463 833 q 551 804 517 833 q 585 731 585 775 q 565 673 585 697 q 514 638 546 649 q 560 596 550 628 l 594 490 l 507 490 l 482 576 q 449 600 475 600 l 360 600 l 360 490 m 360 758 l 360 669 l 465 669 q 494 683 483 669 q 506 714 506 696 q 494 745 506 732 q 465 758 483 758 l 360 758 z "},"¯":{"ha":581,"x_min":19,"x_max":561,"o":"m 561 861 l 19 861 l 19 990 l 561 990 l 561 861 z "},"°":{"ha":519,"x_min":43,"x_max":476,"o":"m 417 605 q 387 574 417 605 q 260 543 357 543 q 103 605 163 543 q 43 756 43 667 q 103 904 43 843 q 260 965 163 965 q 417 904 357 965 q 476 756 476 843 q 417 605 476 667 m 189 681 q 203 666 189 681 q 260 651 217 651 q 331 681 303 651 q 358 754 358 711 q 331 827 358 797 q 260 857 303 857 q 189 827 217 857 q 161 754 161 797 q 189 681 161 711 z "},"±":{"ha":849,"x_min":60,"x_max":790,"o":"m 500 219 l 350 219 l 350 422 l 60 422 l 60 558 l 350 558 l 350 761 l 500 761 l 500 558 l 790 558 l 790 422 l 500 422 l 500 219 m 790 26 l 60 26 l 60 163 l 790 163 l 790 26 z "},"²":{"ha":519,"x_min":56,"x_max":465,"o":"m 465 572 l 72 572 l 72 622 q 114 740 72 689 q 206 817 156 790 q 297 878 256 843 q 339 951 339 914 q 320 999 339 981 q 269 1017 301 1017 q 206 992 229 1017 q 179 929 182 968 l 56 929 q 125 1072 67 1019 q 276 1124 183 1124 q 410 1078 358 1124 q 461 963 461 1033 q 424 863 461 908 q 341 790 386 817 q 258 733 296 764 q 221 678 221 703 l 465 678 l 465 572 z "},"³":{"ha":529,"x_min":42,"x_max":482,"o":"m 272 558 q 110 609 172 558 q 42 751 47 660 l 164 751 q 198 688 168 711 q 275 664 228 664 q 339 683 315 664 q 363 736 363 703 q 338 784 363 767 q 271 801 314 801 l 183 801 l 183 894 l 269 894 q 324 912 304 894 q 344 957 344 929 q 326 1002 344 983 q 269 1021 307 1021 q 208 999 233 1021 q 178 942 182 976 l 54 942 q 127 1078 67 1032 q 274 1124 188 1124 q 409 1083 357 1124 q 461 976 461 1042 q 361 856 461 886 q 451 806 419 842 q 482 719 482 771 q 424 603 482 647 q 272 558 365 558 z "},"´":{"ha":503,"x_min":11,"x_max":492,"o":"m 492 1121 l 100 801 l 11 901 l 401 1219 l 492 1121 z "},"¶":{"ha":889,"x_min":49,"x_max":779,"o":"m 531 -143 l 381 -143 l 381 351 l 372 351 q 137 442 225 354 q 49 667 49 531 q 135 882 49 793 q 372 972 221 971 l 779 972 l 779 -143 l 629 -143 l 629 839 l 531 839 l 531 -143 z "},"·":{"ha":340,"x_min":64,"x_max":276,"o":"m 169 335 q 94 365 125 335 q 64 440 64 396 q 94 517 64 486 q 169 547 125 547 q 246 517 215 547 q 276 440 276 486 q 246 365 276 396 q 169 335 215 335 z "},"¸":{"ha":271,"x_min":17,"x_max":254,"o":"m 254 0 l 144 -314 l 17 -289 l 125 22 l 254 0 z "},"¹":{"ha":389,"x_min":32,"x_max":288,"o":"m 288 572 l 165 572 l 165 953 q 51 899 139 899 l 32 899 l 32 1024 l 51 1024 q 165 1103 165 1024 l 165 1111 l 288 1111 l 288 572 z "},"º":{"ha":633,"x_min":44,"x_max":589,"o":"m 317 421 q 117 501 190 421 q 44 708 44 582 q 122 912 44 836 q 317 988 199 988 q 515 908 442 988 q 589 708 589 829 q 513 498 589 575 q 317 421 438 421 m 317 528 q 425 578 385 528 q 465 708 465 629 q 425 833 465 786 q 317 881 385 881 q 208 833 249 881 q 168 708 168 786 q 210 576 168 625 q 317 528 251 528 z "},"»":{"ha":794,"x_min":39,"x_max":744,"o":"m 435 319 l 139 24 l 39 114 l 314 388 l 44 658 l 142 749 l 435 456 l 435 319 m 744 319 l 449 24 l 347 114 l 622 388 l 353 658 l 451 749 l 744 456 l 744 319 z "},"¼":{"ha":1099,"x_min":32,"x_max":1072,"o":"m 940 971 l 233 -51 l 114 10 l 821 1031 l 940 971 m 288 433 l 165 433 l 165 815 q 51 761 139 761 l 32 761 l 32 886 l 51 886 q 165 964 165 886 l 165 972 l 288 972 l 288 433 m 986 0 l 865 0 l 865 103 l 610 103 l 610 215 l 867 539 l 986 539 l 986 204 l 1072 204 l 1072 103 l 986 103 l 986 0 m 865 397 l 711 204 l 865 204 l 865 397 z "},"½":{"ha":1168,"x_min":32,"x_max":1113,"o":"m 940 971 l 233 -51 l 114 10 l 821 1031 l 940 971 m 288 433 l 165 433 l 165 815 q 51 761 139 761 l 32 761 l 32 886 l 51 886 q 165 964 165 886 l 165 972 l 288 972 l 288 433 m 1113 0 l 719 0 l 719 50 q 747 148 719 104 q 814 219 775 192 q 892 269 853 246 q 960 321 932 293 q 988 381 988 349 q 969 427 988 408 q 918 446 950 446 q 854 421 878 446 q 826 357 831 396 l 704 357 q 773 500 714 447 q 925 553 832 553 q 1058 508 1007 553 q 1108 392 1108 463 q 1071 291 1108 338 q 988 218 1033 244 q 906 162 943 192 q 868 107 868 132 l 1113 107 l 1113 0 z "},"¾":{"ha":1244,"x_min":35,"x_max":1218,"o":"m 1086 971 l 379 -51 l 260 10 l 967 1031 l 1086 971 m 265 421 q 103 471 165 421 q 35 613 40 521 l 157 613 q 191 549 161 572 q 268 525 221 525 q 332 544 308 525 q 356 597 356 564 q 331 646 356 628 q 264 664 307 664 l 176 664 l 176 756 l 263 756 q 317 774 297 756 q 338 819 338 792 q 319 864 338 846 q 263 882 300 882 q 201 860 226 882 q 171 804 175 839 l 47 804 q 120 940 60 894 q 267 986 181 986 q 402 944 350 986 q 454 838 454 903 q 428 763 454 794 q 354 717 401 732 q 444 669 413 704 q 475 582 475 633 q 417 465 475 510 q 265 421 358 421 m 1132 0 l 1011 0 l 1011 103 l 756 103 l 756 215 l 1013 539 l 1132 539 l 1132 204 l 1218 204 l 1218 103 l 1132 103 l 1132 0 m 1011 397 l 857 204 l 1011 204 l 1011 397 z "},"¿":{"ha":792,"x_min":58,"x_max":744,"o":"m 328 728 q 343 743 328 728 q 404 758 358 758 q 481 728 450 758 q 511 653 511 697 q 481 576 511 607 q 404 546 450 546 q 328 576 358 546 q 297 653 297 607 q 328 728 297 697 m 324 478 l 486 478 l 486 424 q 459 313 486 361 q 394 233 432 264 q 317 173 356 201 q 252 109 279 144 q 225 31 225 74 q 268 -65 225 -28 q 383 -103 311 -103 q 516 -52 464 -103 q 569 90 568 -1 l 744 90 q 634 -162 733 -71 q 382 -253 535 -253 q 147 -174 236 -253 q 58 25 58 -94 q 85 138 58 89 q 152 219 113 188 q 231 278 192 250 q 297 343 269 307 q 324 424 324 379 l 324 478 z "},"À":{"ha":1013,"x_min":25,"x_max":988,"o":"m 619 1118 l 529 1019 l 149 1333 l 238 1432 l 619 1118 m 197 0 l 25 0 l 422 972 l 589 972 l 988 0 l 815 0 l 717 240 l 296 240 l 197 0 m 507 757 l 356 388 l 657 388 l 507 757 z "},"Á":{"ha":1013,"x_min":25,"x_max":988,"o":"m 865 1333 l 483 1019 l 394 1118 l 775 1432 l 865 1333 m 197 0 l 25 0 l 422 972 l 589 972 l 988 0 l 815 0 l 717 240 l 296 240 l 197 0 m 507 757 l 356 388 l 657 388 l 507 757 z "},"Â":{"ha":1013,"x_min":25,"x_max":988,"o":"m 506 1219 l 299 1026 l 201 1118 l 453 1346 l 561 1346 l 810 1121 l 713 1026 l 506 1219 m 197 0 l 25 0 l 422 972 l 589 972 l 988 0 l 815 0 l 717 240 l 296 240 l 197 0 m 507 757 l 356 388 l 657 388 l 507 757 z "},"Ã":{"ha":1013,"x_min":25,"x_max":988,"o":"m 640 1072 q 515 1122 586 1072 q 424 1171 443 1171 q 385 1146 400 1171 q 371 1081 371 1121 l 240 1081 q 281 1236 240 1178 q 388 1294 321 1294 q 469 1269 428 1294 q 545 1219 511 1244 q 600 1194 579 1194 q 644 1283 644 1194 l 772 1283 q 738 1126 772 1181 q 640 1072 704 1072 m 197 0 l 25 0 l 422 972 l 589 972 l 988 0 l 815 0 l 717 240 l 296 240 l 197 0 m 507 757 l 356 388 l 657 388 l 507 757 z "},"Ä":{"ha":1013,"x_min":25,"x_max":988,"o":"m 360 1046 q 288 1076 317 1046 q 258 1147 258 1106 q 288 1218 258 1189 q 360 1247 317 1247 q 431 1218 401 1247 q 460 1147 460 1189 q 431 1076 460 1106 q 360 1046 401 1046 m 724 1076 q 709 1061 724 1076 q 653 1046 694 1046 q 581 1076 611 1046 q 551 1147 551 1106 q 581 1218 551 1189 q 653 1247 611 1247 q 724 1218 694 1247 q 753 1147 753 1189 q 724 1076 753 1106 m 197 0 l 25 0 l 422 972 l 589 972 l 988 0 l 815 0 l 717 240 l 296 240 l 197 0 m 507 757 l 356 388 l 657 388 l 507 757 z "},"Å":{"ha":1013,"x_min":25,"x_max":988,"o":"m 622 1067 q 598 1045 622 1067 q 507 1024 575 1024 q 392 1067 439 1024 q 346 1176 346 1111 q 392 1285 346 1242 q 507 1329 438 1329 q 622 1285 576 1329 q 668 1176 668 1242 q 622 1067 668 1111 m 458 1128 q 467 1118 458 1128 q 507 1108 476 1108 q 556 1128 538 1108 q 575 1176 575 1149 q 557 1225 575 1206 q 507 1244 539 1244 q 457 1225 475 1244 q 439 1176 439 1206 q 458 1128 439 1149 m 197 0 l 25 0 l 422 972 l 589 972 l 988 0 l 815 0 l 717 240 l 296 240 l 197 0 m 507 757 l 356 388 l 657 388 l 507 757 z "},"Æ":{"ha":1353,"x_min":25,"x_max":1299,"o":"m 194 0 l 25 0 l 392 972 l 1286 972 l 1286 822 l 771 822 l 771 572 l 1239 572 l 1239 426 l 771 426 l 771 150 l 1299 150 l 1299 0 l 606 0 l 606 244 l 286 244 l 194 0 m 504 821 l 342 392 l 606 392 l 606 821 l 504 821 z "},"Ç":{"ha":1071,"x_min":57,"x_max":1014,"o":"m 546 131 q 742 195 664 131 q 843 375 819 260 l 1014 375 q 878 100 983 201 q 608 -18 774 -1 l 504 -314 l 376 -289 l 471 -17 q 168 144 279 7 q 57 489 57 281 q 190 853 57 713 q 546 993 322 993 q 858 888 735 993 q 1014 597 982 783 l 843 597 q 740 778 819 713 q 546 843 661 843 q 313 747 399 843 q 228 489 228 651 q 313 226 228 322 q 546 131 399 131 z "},"È":{"ha":849,"x_min":90,"x_max":794,"o":"m 561 1118 l 471 1019 l 90 1333 l 179 1432 l 561 1118 m 794 0 l 101 0 l 101 972 l 782 972 l 782 822 l 267 822 l 267 572 l 733 572 l 733 426 l 267 426 l 267 150 l 794 150 l 794 0 z "},"É":{"ha":849,"x_min":101,"x_max":807,"o":"m 807 1333 l 425 1019 l 336 1118 l 717 1432 l 807 1333 m 794 0 l 101 0 l 101 972 l 782 972 l 782 822 l 267 822 l 267 572 l 733 572 l 733 426 l 267 426 l 267 150 l 794 150 l 794 0 z "},"Ê":{"ha":849,"x_min":101,"x_max":794,"o":"m 447 1219 l 240 1026 l 143 1118 l 394 1346 l 503 1346 l 751 1121 l 654 1026 l 447 1219 m 794 0 l 101 0 l 101 972 l 782 972 l 782 822 l 267 822 l 267 572 l 733 572 l 733 426 l 267 426 l 267 150 l 794 150 l 794 0 z "},"Ë":{"ha":849,"x_min":101,"x_max":794,"o":"m 303 1046 q 231 1076 260 1046 q 201 1147 201 1106 q 231 1218 201 1189 q 303 1247 260 1247 q 374 1218 344 1247 q 403 1147 403 1189 q 374 1076 403 1106 q 303 1046 344 1046 m 667 1076 q 652 1061 667 1076 q 596 1046 638 1046 q 524 1076 554 1046 q 494 1147 494 1106 q 524 1218 494 1189 q 596 1247 554 1247 q 667 1218 638 1247 q 696 1147 696 1189 q 667 1076 696 1106 m 794 0 l 101 0 l 101 972 l 782 972 l 782 822 l 267 822 l 267 572 l 733 572 l 733 426 l 267 426 l 267 150 l 794 150 l 794 0 z "},"Ì":{"ha":368,"x_min":-174,"x_max":297,"o":"m 297 1118 l 207 1019 l -174 1333 l -85 1432 l 297 1118 m 268 0 l 101 0 l 101 972 l 268 972 l 268 0 z "},"Í":{"ha":368,"x_min":72,"x_max":543,"o":"m 543 1333 l 161 1019 l 72 1118 l 453 1432 l 543 1333 m 268 0 l 101 0 l 101 972 l 268 972 l 268 0 z "},"Î":{"ha":368,"x_min":-121,"x_max":488,"o":"m 183 1219 l -24 1026 l -121 1118 l 131 1346 l 239 1346 l 488 1121 l 390 1026 l 183 1219 m 268 0 l 101 0 l 101 972 l 268 972 l 268 0 z "},"Ï":{"ha":368,"x_min":-65,"x_max":431,"o":"m 38 1046 q -35 1076 -6 1046 q -65 1147 -65 1106 q -35 1218 -65 1189 q 38 1247 -6 1247 q 108 1218 79 1247 q 138 1147 138 1189 q 108 1076 138 1106 q 38 1046 79 1046 m 401 1076 q 387 1061 401 1076 q 331 1046 372 1046 q 259 1076 289 1046 q 229 1147 229 1106 q 259 1218 229 1189 q 331 1247 289 1247 q 401 1218 372 1247 q 431 1147 431 1189 q 401 1076 431 1106 m 268 0 l 101 0 l 101 972 l 268 972 l 268 0 z "},"Ð":{"ha":1029,"x_min":-8,"x_max":974,"o":"m 483 0 l 132 0 l 132 436 l -8 436 l -8 556 l 132 556 l 132 972 l 483 972 q 837 838 700 972 q 974 492 974 704 q 837 137 974 274 q 483 0 700 0 m 299 436 l 299 150 l 494 150 q 715 245 629 150 q 800 492 800 340 q 714 728 800 635 q 494 822 628 822 l 299 822 l 299 556 l 600 556 l 600 436 l 299 436 z "},"Ñ":{"ha":1032,"x_min":101,"x_max":931,"o":"m 650 1072 q 524 1122 596 1072 q 433 1171 453 1171 q 395 1146 410 1171 q 381 1081 381 1121 l 250 1081 q 290 1236 250 1178 q 397 1294 331 1294 q 479 1269 438 1294 q 555 1219 521 1244 q 610 1194 589 1194 q 654 1283 654 1194 l 782 1283 q 748 1126 782 1181 q 650 1072 714 1072 m 268 0 l 101 0 l 101 972 l 282 972 l 764 240 l 764 972 l 931 972 l 931 0 l 750 0 l 268 732 l 268 0 z "},"Ò":{"ha":1085,"x_min":57,"x_max":1029,"o":"m 654 1118 l 564 1019 l 183 1333 l 272 1432 l 654 1118 m 542 -21 q 191 119 325 -21 q 57 489 57 258 q 189 853 57 713 q 542 993 321 993 q 894 855 760 993 q 1029 489 1029 717 q 897 121 1029 263 q 542 -21 764 -21 m 542 131 q 774 228 688 131 q 860 489 860 325 q 774 747 860 651 q 542 843 688 843 q 312 747 397 843 q 226 489 226 651 q 312 228 226 325 q 542 131 397 131 z "},"Ó":{"ha":1085,"x_min":57,"x_max":1029,"o":"m 900 1333 l 518 1019 l 429 1118 l 810 1432 l 900 1333 m 542 -21 q 191 119 325 -21 q 57 489 57 258 q 189 853 57 713 q 542 993 321 993 q 894 855 760 993 q 1029 489 1029 717 q 897 121 1029 263 q 542 -21 764 -21 m 542 131 q 774 228 688 131 q 860 489 860 325 q 774 747 860 651 q 542 843 688 843 q 312 747 397 843 q 226 489 226 651 q 312 228 226 325 q 542 131 397 131 z "},"Ô":{"ha":1085,"x_min":57,"x_max":1029,"o":"m 540 1219 l 333 1026 l 236 1118 l 488 1346 l 596 1346 l 844 1121 l 747 1026 l 540 1219 m 542 -21 q 191 119 325 -21 q 57 489 57 258 q 189 853 57 713 q 542 993 321 993 q 894 855 760 993 q 1029 489 1029 717 q 897 121 1029 263 q 542 -21 764 -21 m 542 131 q 774 228 688 131 q 860 489 860 325 q 774 747 860 651 q 542 843 688 843 q 312 747 397 843 q 226 489 226 651 q 312 228 226 325 q 542 131 397 131 z "},"Õ":{"ha":1085,"x_min":57,"x_max":1029,"o":"m 675 1072 q 549 1122 621 1072 q 458 1171 478 1171 q 420 1146 435 1171 q 406 1081 406 1121 l 275 1081 q 315 1236 275 1178 q 422 1294 356 1294 q 504 1269 463 1294 q 580 1219 546 1244 q 635 1194 614 1194 q 679 1283 679 1194 l 807 1283 q 773 1126 807 1181 q 675 1072 739 1072 m 542 -21 q 191 119 325 -21 q 57 489 57 258 q 189 853 57 713 q 542 993 321 993 q 894 855 760 993 q 1029 489 1029 717 q 897 121 1029 263 q 542 -21 764 -21 m 542 131 q 774 228 688 131 q 860 489 860 325 q 774 747 860 651 q 542 843 688 843 q 312 747 397 843 q 226 489 226 651 q 312 228 226 325 q 542 131 397 131 z "},"Ö":{"ha":1085,"x_min":57,"x_max":1029,"o":"m 396 1046 q 324 1076 353 1046 q 294 1147 294 1106 q 324 1218 294 1189 q 396 1247 353 1247 q 467 1218 438 1247 q 496 1147 496 1189 q 467 1076 496 1106 q 396 1046 438 1046 m 760 1076 q 745 1061 760 1076 q 689 1046 731 1046 q 617 1076 647 1046 q 588 1147 588 1106 q 617 1218 588 1189 q 689 1247 647 1247 q 760 1218 731 1247 q 789 1147 789 1189 q 760 1076 789 1106 m 542 -21 q 191 119 325 -21 q 57 489 57 258 q 189 853 57 713 q 542 993 321 993 q 894 855 760 993 q 1029 489 1029 717 q 897 121 1029 263 q 542 -21 764 -21 m 542 131 q 774 228 688 131 q 860 489 860 325 q 774 747 860 651 q 542 843 688 843 q 312 747 397 843 q 226 489 226 651 q 312 228 226 325 q 542 131 397 131 z "},"×":{"ha":718,"x_min":44,"x_max":675,"o":"m 360 314 l 143 97 l 44 194 l 263 413 l 44 629 l 143 726 l 360 510 l 576 726 l 675 629 l 458 413 l 675 194 l 576 97 l 360 314 z "},"Ø":{"ha":1085,"x_min":57,"x_max":1029,"o":"m 1014 1010 l 893 857 q 1029 489 1029 717 q 897 121 1029 263 q 542 -21 764 -21 q 264 57 383 -21 l 147 -90 l 72 -33 l 192 118 q 57 489 57 257 q 189 853 57 713 q 542 993 321 993 q 819 915 700 993 l 939 1067 l 1014 1010 m 226 489 q 294 249 226 342 l 722 792 q 542 843 647 843 q 312 747 397 843 q 226 489 226 651 m 542 131 q 774 228 688 131 q 860 489 860 325 q 790 726 860 633 l 363 182 q 542 131 438 131 z "},"Ù":{"ha":996,"x_min":93,"x_max":903,"o":"m 611 1118 l 521 1019 l 140 1333 l 229 1432 l 611 1118 m 793 76 q 738 28 793 76 q 499 -21 683 -21 q 203 76 314 -21 q 93 324 93 174 l 93 972 l 260 972 l 260 328 q 326 184 260 236 q 497 132 392 132 q 669 184 603 132 q 736 328 736 236 l 736 972 l 903 972 l 903 324 q 793 76 903 174 z "},"Ú":{"ha":996,"x_min":93,"x_max":903,"o":"m 857 1333 l 475 1019 l 386 1118 l 767 1432 l 857 1333 m 793 76 q 738 28 793 76 q 499 -21 683 -21 q 203 76 314 -21 q 93 324 93 174 l 93 972 l 260 972 l 260 328 q 326 184 260 236 q 497 132 392 132 q 669 184 603 132 q 736 328 736 236 l 736 972 l 903 972 l 903 324 q 793 76 903 174 z "},"Û":{"ha":996,"x_min":93,"x_max":903,"o":"m 497 1219 l 290 1026 l 193 1118 l 444 1346 l 553 1346 l 801 1121 l 704 1026 l 497 1219 m 793 76 q 738 28 793 76 q 499 -21 683 -21 q 203 76 314 -21 q 93 324 93 174 l 93 972 l 260 972 l 260 328 q 326 184 260 236 q 497 132 392 132 q 669 184 603 132 q 736 328 736 236 l 736 972 l 903 972 l 903 324 q 793 76 903 174 z "},"Ü":{"ha":996,"x_min":93,"x_max":903,"o":"m 351 1046 q 279 1076 308 1046 q 250 1147 250 1106 q 279 1218 250 1189 q 351 1247 308 1247 q 422 1218 393 1247 q 451 1147 451 1189 q 422 1076 451 1106 q 351 1046 393 1046 m 715 1076 q 701 1061 715 1076 q 644 1046 686 1046 q 573 1076 603 1046 q 543 1147 543 1106 q 573 1218 543 1189 q 644 1247 603 1247 q 715 1218 686 1247 q 744 1147 744 1189 q 715 1076 744 1106 m 793 76 q 738 28 793 76 q 499 -21 683 -21 q 203 76 314 -21 q 93 324 93 174 l 93 972 l 260 972 l 260 328 q 326 184 260 236 q 497 132 392 132 q 669 184 603 132 q 736 328 736 236 l 736 972 l 903 972 l 903 324 q 793 76 903 174 z "},"Ý":{"ha":933,"x_min":14,"x_max":919,"o":"m 825 1333 l 443 1019 l 354 1118 l 735 1432 l 825 1333 m 549 0 l 382 0 l 382 415 l 14 972 l 207 972 l 467 574 l 726 972 l 919 972 l 549 415 l 549 0 z "},"Þ":{"ha":963,"x_min":101,"x_max":914,"o":"m 268 0 l 101 0 l 101 972 l 268 972 l 268 803 l 594 803 q 827 716 740 803 q 914 496 914 629 q 824 267 914 353 q 594 181 733 181 l 268 181 l 268 0 m 268 653 l 268 331 l 586 331 q 703 378 661 331 q 744 496 744 426 q 701 609 744 565 q 586 653 657 653 l 268 653 z "},"ß":{"ha":832,"x_min":86,"x_max":782,"o":"m 474 -21 q 322 3 399 -21 l 322 146 q 451 119 388 119 q 572 159 526 119 q 617 265 617 199 q 567 378 617 336 q 438 421 518 421 l 365 421 l 365 564 l 438 564 q 544 603 503 564 q 585 706 585 643 q 540 812 585 771 q 426 853 496 853 q 297 801 343 853 q 250 660 250 750 l 250 0 l 86 0 l 86 663 q 178 903 86 814 q 431 993 269 993 q 657 920 569 993 q 744 733 744 847 q 687 583 744 644 q 531 506 629 521 q 714 415 646 486 q 782 240 782 343 q 697 52 782 125 q 474 -21 613 -21 z "},"à":{"ha":818,"x_min":28,"x_max":793,"o":"m 508 901 l 418 801 l 28 1121 l 117 1219 l 508 901 m 326 -15 q 122 43 199 -15 q 47 204 46 101 q 67 292 47 254 q 117 353 88 331 q 191 392 146 376 q 274 416 236 408 q 363 429 313 424 q 388 432 371 431 q 457 441 435 438 q 507 452 479 444 q 546 472 535 460 q 557 504 557 485 q 515 591 556 558 q 406 624 475 624 q 285 588 333 624 q 229 494 236 553 l 64 494 q 171 685 75 611 q 408 758 267 758 q 635 686 554 758 q 717 493 717 614 l 717 160 q 753 128 717 128 l 793 128 l 793 0 l 715 0 q 582 86 601 0 q 575 111 578 99 q 326 -15 507 -15 m 360 114 q 501 158 446 114 q 557 276 557 203 l 557 379 q 514 346 544 358 q 457 328 483 333 q 381 317 431 322 q 315 306 339 311 q 263 291 290 301 q 224 262 236 281 q 213 215 213 243 q 251 140 213 167 q 360 114 289 114 z "},"á":{"ha":818,"x_min":47,"x_max":793,"o":"m 764 1121 l 372 801 l 283 901 l 674 1219 l 764 1121 m 326 -15 q 122 43 199 -15 q 47 204 46 101 q 67 292 47 254 q 117 353 88 331 q 191 392 146 376 q 274 416 236 408 q 363 429 313 424 q 388 432 371 431 q 457 441 435 438 q 507 452 479 444 q 546 472 535 460 q 557 504 557 485 q 515 591 556 558 q 406 624 475 624 q 285 588 333 624 q 229 494 236 553 l 64 494 q 171 685 75 611 q 408 758 267 758 q 635 686 554 758 q 717 493 717 614 l 717 160 q 753 128 717 128 l 793 128 l 793 0 l 715 0 q 582 86 601 0 q 575 111 578 99 q 326 -15 507 -15 m 360 114 q 501 158 446 114 q 557 276 557 203 l 557 379 q 514 346 544 358 q 457 328 483 333 q 381 317 431 322 q 315 306 339 311 q 263 291 290 301 q 224 262 236 281 q 213 215 213 243 q 251 140 213 167 q 360 114 289 114 z "},"â":{"ha":818,"x_min":47,"x_max":793,"o":"m 394 1003 l 178 801 l 81 893 l 342 1129 l 450 1129 l 708 896 l 610 801 l 394 1003 m 326 -15 q 122 43 199 -15 q 47 204 46 101 q 67 292 47 254 q 117 353 88 331 q 191 392 146 376 q 274 416 236 408 q 363 429 313 424 q 388 432 371 431 q 457 441 435 438 q 507 452 479 444 q 546 472 535 460 q 557 504 557 485 q 515 591 556 558 q 406 624 475 624 q 285 588 333 624 q 229 494 236 553 l 64 494 q 171 685 75 611 q 408 758 267 758 q 635 686 554 758 q 717 493 717 614 l 717 160 q 753 128 717 128 l 793 128 l 793 0 l 715 0 q 582 86 601 0 q 575 111 578 99 q 326 -15 507 -15 m 360 114 q 501 158 446 114 q 557 276 557 203 l 557 379 q 514 346 544 358 q 457 328 483 333 q 381 317 431 322 q 315 306 339 311 q 263 291 290 301 q 224 262 236 281 q 213 215 213 243 q 251 140 213 167 q 360 114 289 114 z "},"ã":{"ha":818,"x_min":47,"x_max":793,"o":"m 529 865 q 403 915 475 865 q 311 964 331 964 q 274 938 289 964 q 260 872 260 913 l 129 872 q 169 1028 129 969 q 276 1086 210 1086 q 399 1037 329 1086 q 489 988 468 988 q 533 1075 533 988 l 661 1075 q 627 919 661 974 q 529 865 593 865 m 326 -15 q 122 43 199 -15 q 47 204 46 101 q 67 292 47 254 q 117 353 88 331 q 191 392 146 376 q 274 416 236 408 q 363 429 313 424 q 388 432 371 431 q 457 441 435 438 q 507 452 479 444 q 546 472 535 460 q 557 504 557 485 q 515 591 556 558 q 406 624 475 624 q 285 588 333 624 q 229 494 236 553 l 64 494 q 171 685 75 611 q 408 758 267 758 q 635 686 554 758 q 717 493 717 614 l 717 160 q 753 128 717 128 l 793 128 l 793 0 l 715 0 q 582 86 601 0 q 575 111 578 99 q 326 -15 507 -15 m 360 114 q 501 158 446 114 q 557 276 557 203 l 557 379 q 514 346 544 358 q 457 328 483 333 q 381 317 431 322 q 315 306 339 311 q 263 291 290 301 q 224 262 236 281 q 213 215 213 243 q 251 140 213 167 q 360 114 289 114 z "},"ä":{"ha":818,"x_min":47,"x_max":793,"o":"m 249 822 q 176 851 206 822 q 147 924 147 881 q 176 994 147 965 q 249 1024 206 1024 q 319 994 290 1024 q 349 924 349 965 q 319 851 349 881 q 249 822 290 822 m 613 851 q 598 837 613 851 q 542 822 583 822 q 470 851 500 822 q 440 924 440 881 q 470 994 440 965 q 542 1024 500 1024 q 613 994 583 1024 q 642 924 642 965 q 613 851 642 881 m 326 -15 q 122 43 199 -15 q 47 204 46 101 q 67 292 47 254 q 117 353 88 331 q 191 392 146 376 q 274 416 236 408 q 363 429 313 424 q 388 432 371 431 q 457 441 435 438 q 507 452 479 444 q 546 472 535 460 q 557 504 557 485 q 515 591 556 558 q 406 624 475 624 q 285 588 333 624 q 229 494 236 553 l 64 494 q 171 685 75 611 q 408 758 267 758 q 635 686 554 758 q 717 493 717 614 l 717 160 q 753 128 717 128 l 793 128 l 793 0 l 715 0 q 582 86 601 0 q 575 111 578 99 q 326 -15 507 -15 m 360 114 q 501 158 446 114 q 557 276 557 203 l 557 379 q 514 346 544 358 q 457 328 483 333 q 381 317 431 322 q 315 306 339 311 q 263 291 290 301 q 224 262 236 281 q 213 215 213 243 q 251 140 213 167 q 360 114 289 114 z "},"å":{"ha":818,"x_min":47,"x_max":793,"o":"m 509 842 q 486 820 509 842 q 394 799 463 799 q 280 842 326 799 q 233 951 233 886 q 279 1060 233 1017 q 394 1104 325 1104 q 510 1060 464 1104 q 556 951 556 1017 q 509 842 556 886 m 394 888 q 442 906 424 888 q 460 951 460 925 q 442 997 460 978 q 394 1017 424 1017 q 347 998 364 1017 q 329 951 329 979 q 347 906 329 924 q 394 888 364 888 m 326 -15 q 122 43 199 -15 q 47 204 46 101 q 67 292 47 254 q 117 353 88 331 q 191 392 146 376 q 274 416 236 408 q 363 429 313 424 q 388 432 371 431 q 457 441 435 438 q 507 452 479 444 q 546 472 535 460 q 557 504 557 485 q 515 591 556 558 q 406 624 475 624 q 285 588 333 624 q 229 494 236 553 l 64 494 q 171 685 75 611 q 408 758 267 758 q 635 686 554 758 q 717 493 717 614 l 717 160 q 753 128 717 128 l 793 128 l 793 0 l 715 0 q 582 86 601 0 q 575 111 578 99 q 326 -15 507 -15 m 360 114 q 501 158 446 114 q 557 276 557 203 l 557 379 q 514 346 544 358 q 457 328 483 333 q 381 317 431 322 q 315 306 339 311 q 263 291 290 301 q 224 262 236 281 q 213 215 213 243 q 251 140 213 167 q 360 114 289 114 z "},"æ":{"ha":1333,"x_min":47,"x_max":1289,"o":"m 951 -21 q 747 33 835 -21 q 614 181 660 86 q 516 36 589 88 q 326 -15 443 -15 q 122 43 199 -15 q 47 204 46 101 q 67 292 47 254 q 117 353 88 331 q 191 392 146 376 q 274 416 236 408 q 363 429 313 424 q 388 432 371 431 q 457 441 435 438 q 507 452 479 444 q 546 472 535 460 q 557 504 557 485 q 515 591 556 558 q 406 624 475 624 q 285 588 333 624 q 229 494 236 553 l 64 494 q 171 685 75 611 q 408 758 267 758 q 672 644 592 758 q 938 758 774 758 q 1190 655 1094 758 q 1289 374 1286 551 l 1289 335 l 736 335 q 802 177 744 236 q 953 118 860 118 q 1063 148 1017 118 q 1126 233 1108 178 l 1286 233 q 1169 47 1258 114 q 951 -21 1081 -21 m 743 450 l 1119 450 q 1056 575 1104 531 q 938 619 1008 619 q 814 574 865 619 q 743 450 763 529 m 360 114 q 502 161 447 114 q 557 290 557 208 l 557 379 q 514 346 544 358 q 457 328 483 333 q 381 317 431 322 q 315 306 339 311 q 263 291 290 301 q 224 262 236 281 q 213 215 213 243 q 251 140 213 167 q 360 114 289 114 z "},"ç":{"ha":817,"x_min":44,"x_max":772,"o":"m 425 119 q 549 165 500 119 q 611 289 599 210 l 772 289 q 683 81 760 163 q 486 -17 607 0 l 382 -314 l 254 -289 l 350 -15 q 126 116 207 10 q 44 374 44 222 q 151 655 44 551 q 421 758 257 758 q 666 674 571 758 q 772 451 761 590 l 611 451 q 549 573 600 528 q 419 618 497 618 q 268 552 325 618 q 211 374 211 486 q 271 188 211 256 q 425 119 331 119 z "},"è":{"ha":806,"x_min":39,"x_max":761,"o":"m 519 901 l 429 801 l 39 1121 l 128 1219 l 519 901 m 424 -21 q 150 88 256 -21 q 44 365 44 196 q 148 651 44 544 q 410 758 251 758 q 663 655 567 758 q 761 374 758 551 l 761 335 l 208 335 q 274 177 217 236 q 425 118 332 118 q 535 148 489 118 q 599 233 581 178 l 758 233 q 642 47 731 114 q 424 -21 553 -21 m 215 450 l 592 450 q 528 575 576 531 q 410 619 481 619 q 286 574 338 619 q 215 450 235 529 z "},"é":{"ha":806,"x_min":44,"x_max":775,"o":"m 775 1121 l 383 801 l 294 901 l 685 1219 l 775 1121 m 424 -21 q 150 88 256 -21 q 44 365 44 196 q 148 651 44 544 q 410 758 251 758 q 663 655 567 758 q 761 374 758 551 l 761 335 l 208 335 q 274 177 217 236 q 425 118 332 118 q 535 148 489 118 q 599 233 581 178 l 758 233 q 642 47 731 114 q 424 -21 553 -21 m 215 450 l 592 450 q 528 575 576 531 q 410 619 481 619 q 286 574 338 619 q 215 450 235 529 z "},"ê":{"ha":806,"x_min":44,"x_max":761,"o":"m 406 1003 l 189 801 l 92 893 l 353 1129 l 461 1129 l 719 896 l 621 801 l 406 1003 m 424 -21 q 150 88 256 -21 q 44 365 44 196 q 148 651 44 544 q 410 758 251 758 q 663 655 567 758 q 761 374 758 551 l 761 335 l 208 335 q 274 177 217 236 q 425 118 332 118 q 535 148 489 118 q 599 233 581 178 l 758 233 q 642 47 731 114 q 424 -21 553 -21 m 215 450 l 592 450 q 528 575 576 531 q 410 619 481 619 q 286 574 338 619 q 215 450 235 529 z "},"ë":{"ha":806,"x_min":44,"x_max":761,"o":"m 260 822 q 188 851 217 822 q 158 924 158 881 q 188 994 158 965 q 260 1024 217 1024 q 331 994 301 1024 q 360 924 360 965 q 331 851 360 881 q 260 822 301 822 m 624 851 q 609 837 624 851 q 553 822 594 822 q 481 851 511 822 q 451 924 451 881 q 481 994 451 965 q 553 1024 511 1024 q 624 994 594 1024 q 653 924 653 965 q 624 851 653 881 m 424 -21 q 150 88 256 -21 q 44 365 44 196 q 148 651 44 544 q 410 758 251 758 q 663 655 567 758 q 761 374 758 551 l 761 335 l 208 335 q 274 177 217 236 q 425 118 332 118 q 535 148 489 118 q 599 233 581 178 l 758 233 q 642 47 731 114 q 424 -21 553 -21 m 215 450 l 592 450 q 528 575 576 531 q 410 619 481 619 q 286 574 338 619 q 215 450 235 529 z "},"ì":{"ha":332,"x_min":-201,"x_max":279,"o":"m 279 901 l 189 801 l -201 1121 l -112 1219 l 279 901 m 247 0 l 83 0 l 85 736 l 249 736 l 247 0 z "},"í":{"ha":332,"x_min":56,"x_max":536,"o":"m 536 1121 l 144 801 l 56 901 l 446 1219 l 536 1121 m 247 0 l 83 0 l 85 736 l 249 736 l 247 0 z "},"î":{"ha":332,"x_min":-147,"x_max":481,"o":"m 167 1003 l -50 801 l -147 893 l 114 1129 l 222 1129 l 481 896 l 382 801 l 167 1003 m 247 0 l 83 0 l 85 736 l 249 736 l 247 0 z "},"ï":{"ha":332,"x_min":-82,"x_max":414,"o":"m 21 822 q -52 851 -22 822 q -82 924 -82 881 q -52 994 -82 965 q 21 1024 -22 1024 q 92 994 63 1024 q 121 924 121 965 q 92 851 121 881 q 21 822 63 822 m 385 851 q 370 837 385 851 q 314 822 356 822 q 242 851 272 822 q 213 924 213 881 q 242 994 213 965 q 314 1024 272 1024 q 385 994 356 1024 q 414 924 414 965 q 385 851 414 881 m 247 0 l 83 0 l 85 736 l 249 736 l 247 0 z "},"ð":{"ha":833,"x_min":44,"x_max":771,"o":"m 397 -21 q 144 81 243 -21 q 44 343 44 183 q 135 591 44 496 q 369 686 226 686 q 601 574 524 686 q 449 799 572 708 l 188 697 l 139 807 l 307 871 q 150 917 239 897 l 188 1053 q 489 942 364 1015 l 715 1028 l 763 921 l 599 857 q 771 433 771 697 q 669 103 771 226 q 397 -21 567 -21 m 265 181 q 292 150 265 181 q 404 119 319 119 q 541 180 489 119 q 593 339 593 240 q 540 491 593 432 q 403 550 488 550 q 265 491 318 550 q 211 338 211 432 q 265 181 211 243 z "},"ñ":{"ha":811,"x_min":83,"x_max":738,"o":"m 556 865 q 429 915 501 865 q 338 964 357 964 q 301 938 315 964 q 286 872 286 913 l 156 872 q 196 1028 156 969 q 303 1086 236 1086 q 425 1037 356 1086 q 515 988 494 988 q 560 1075 560 988 l 688 1075 q 653 919 688 974 q 556 865 619 865 m 247 0 l 83 0 l 83 736 l 215 736 l 229 628 q 331 722 264 686 q 478 758 397 758 q 667 685 596 758 q 738 488 738 611 l 738 0 l 574 0 l 574 479 q 535 578 574 542 q 428 615 496 615 q 299 567 349 615 q 247 446 249 519 l 247 0 z "},"ò":{"ha":843,"x_min":44,"x_max":799,"o":"m 535 901 l 444 801 l 54 1121 l 143 1219 l 535 901 m 422 -21 q 146 90 247 -21 q 44 375 44 200 q 151 655 44 551 q 422 758 257 758 q 697 650 596 758 q 799 375 799 542 q 694 85 799 192 q 422 -21 590 -21 m 422 119 q 576 191 519 119 q 632 375 632 263 q 575 551 632 485 q 422 618 518 618 q 269 551 326 618 q 211 375 211 485 q 270 188 211 257 q 422 119 329 119 z "},"ó":{"ha":843,"x_min":44,"x_max":799,"o":"m 790 1121 l 399 801 l 310 901 l 700 1219 l 790 1121 m 422 -21 q 146 90 247 -21 q 44 375 44 200 q 151 655 44 551 q 422 758 257 758 q 697 650 596 758 q 799 375 799 542 q 694 85 799 192 q 422 -21 590 -21 m 422 119 q 576 191 519 119 q 632 375 632 263 q 575 551 632 485 q 422 618 518 618 q 269 551 326 618 q 211 375 211 485 q 270 188 211 257 q 422 119 329 119 z "},"ô":{"ha":843,"x_min":44,"x_max":799,"o":"m 422 1003 l 206 801 l 108 893 l 369 1129 l 478 1129 l 736 896 l 638 801 l 422 1003 m 422 -21 q 146 90 247 -21 q 44 375 44 200 q 151 655 44 551 q 422 758 257 758 q 697 650 596 758 q 799 375 799 542 q 694 85 799 192 q 422 -21 590 -21 m 422 119 q 576 191 519 119 q 632 375 632 263 q 575 551 632 485 q 422 618 518 618 q 269 551 326 618 q 211 375 211 485 q 270 188 211 257 q 422 119 329 119 z "},"õ":{"ha":843,"x_min":44,"x_max":799,"o":"m 556 865 q 429 915 501 865 q 338 964 357 964 q 301 938 315 964 q 286 872 286 913 l 156 872 q 196 1028 156 969 q 303 1086 236 1086 q 425 1037 356 1086 q 515 988 494 988 q 560 1075 560 988 l 688 1075 q 653 919 688 974 q 556 865 619 865 m 422 -21 q 146 90 247 -21 q 44 375 44 200 q 151 655 44 551 q 422 758 257 758 q 697 650 596 758 q 799 375 799 542 q 694 85 799 192 q 422 -21 590 -21 m 422 119 q 576 191 519 119 q 632 375 632 263 q 575 551 632 485 q 422 618 518 618 q 269 551 326 618 q 211 375 211 485 q 270 188 211 257 q 422 119 329 119 z "},"ö":{"ha":843,"x_min":44,"x_max":799,"o":"m 276 822 q 204 851 233 822 q 175 924 175 881 q 204 994 175 965 q 276 1024 233 1024 q 347 994 318 1024 q 376 924 376 965 q 347 851 376 881 q 276 822 318 822 m 640 851 q 626 837 640 851 q 569 822 611 822 q 498 851 528 822 q 468 924 468 881 q 498 994 468 965 q 569 1024 528 1024 q 640 994 611 1024 q 669 924 669 965 q 640 851 669 881 m 422 -21 q 146 90 247 -21 q 44 375 44 200 q 151 655 44 551 q 422 758 257 758 q 697 650 596 758 q 799 375 799 542 q 694 85 799 192 q 422 -21 590 -21 m 422 119 q 576 191 519 119 q 632 375 632 263 q 575 551 632 485 q 422 618 518 618 q 269 551 326 618 q 211 375 211 485 q 270 188 211 257 q 422 119 329 119 z "},"÷":{"ha":807,"x_min":51,"x_max":757,"o":"m 404 592 q 327 622 357 592 q 297 699 297 653 q 327 773 297 743 q 404 803 357 803 q 481 773 450 803 q 511 699 511 743 q 481 622 511 653 q 404 592 450 592 m 757 358 l 51 358 l 51 493 l 757 493 l 757 358 m 481 81 q 465 66 481 81 q 404 50 450 50 q 328 81 358 50 q 297 158 297 113 q 328 233 297 203 q 404 263 358 263 q 481 233 450 263 q 511 158 511 203 q 481 81 511 113 z "},"ø":{"ha":843,"x_min":44,"x_max":799,"o":"m 779 749 l 700 647 q 799 375 799 542 q 694 85 799 192 q 422 -21 590 -21 q 217 32 304 -21 l 140 -65 l 68 -17 l 149 86 q 44 375 44 194 q 151 655 44 551 q 422 758 257 758 q 631 704 542 758 l 704 797 l 779 749 m 211 375 q 250 217 211 279 l 538 585 q 422 618 486 618 q 269 551 326 618 q 211 375 211 485 m 422 119 q 576 191 519 119 q 632 375 632 263 q 599 518 632 456 l 311 151 q 422 119 360 119 z "},"ù":{"ha":808,"x_min":31,"x_max":725,"o":"m 511 901 l 421 801 l 31 1121 l 119 1219 l 511 901 m 347 -21 q 144 53 218 -21 q 71 249 71 126 l 71 736 l 235 736 l 235 256 q 274 159 235 194 q 381 124 314 124 q 511 171 463 124 q 561 292 560 218 l 561 736 l 725 736 l 725 0 l 593 0 l 581 107 q 486 13 549 47 q 347 -21 424 -21 z "},"ú":{"ha":808,"x_min":71,"x_max":767,"o":"m 767 1121 l 375 801 l 286 901 l 676 1219 l 767 1121 m 347 -21 q 144 53 218 -21 q 71 249 71 126 l 71 736 l 235 736 l 235 256 q 274 159 235 194 q 381 124 314 124 q 511 171 463 124 q 561 292 560 218 l 561 736 l 725 736 l 725 0 l 593 0 l 581 107 q 486 13 549 47 q 347 -21 424 -21 z "},"û":{"ha":808,"x_min":71,"x_max":725,"o":"m 399 1003 l 182 801 l 85 893 l 346 1129 l 454 1129 l 713 896 l 614 801 l 399 1003 m 347 -21 q 144 53 218 -21 q 71 249 71 126 l 71 736 l 235 736 l 235 256 q 274 159 235 194 q 381 124 314 124 q 511 171 463 124 q 561 292 560 218 l 561 736 l 725 736 l 725 0 l 593 0 l 581 107 q 486 13 549 47 q 347 -21 424 -21 z "},"ü":{"ha":808,"x_min":71,"x_max":725,"o":"m 253 822 q 181 851 210 822 q 151 924 151 881 q 181 994 151 965 q 253 1024 210 1024 q 324 994 294 1024 q 353 924 353 965 q 324 851 353 881 q 253 822 294 822 m 617 851 q 602 837 617 851 q 546 822 588 822 q 474 851 504 822 q 444 924 444 881 q 474 994 444 965 q 546 1024 504 1024 q 617 994 588 1024 q 646 924 646 965 q 617 851 646 881 m 347 -21 q 144 53 218 -21 q 71 249 71 126 l 71 736 l 235 736 l 235 256 q 274 159 235 194 q 381 124 314 124 q 511 171 463 124 q 561 292 560 218 l 561 736 l 725 736 l 725 0 l 593 0 l 581 107 q 486 13 549 47 q 347 -21 424 -21 z "},"ý":{"ha":801,"x_min":18,"x_max":783,"o":"m 772 1121 l 381 801 l 292 901 l 682 1219 l 772 1121 m 203 -278 l 69 -278 l 69 -139 l 203 -139 q 311 -78 289 -139 l 340 0 l 310 0 l 18 736 l 194 736 l 406 178 l 613 736 l 783 736 l 463 -126 q 203 -278 406 -278 z "},"þ":{"ha":871,"x_min":86,"x_max":826,"o":"m 250 -278 l 86 -278 l 86 1042 l 250 1042 l 250 640 q 353 727 289 696 q 494 758 418 758 q 733 651 640 758 q 826 372 826 543 q 733 89 826 199 q 493 -21 640 -21 q 351 12 415 -21 q 250 103 288 44 l 250 -278 m 457 118 q 602 189 546 118 q 658 372 658 260 q 602 551 658 482 q 456 619 546 619 q 308 551 365 619 q 250 376 250 483 q 308 190 250 263 q 457 118 365 118 z "},"ÿ":{"ha":801,"x_min":18,"x_max":783,"o":"m 258 822 q 186 851 215 822 q 157 924 157 881 q 186 994 157 965 q 258 1024 215 1024 q 329 994 300 1024 q 358 924 358 965 q 329 851 358 881 q 258 822 300 822 m 622 851 q 608 837 622 851 q 551 822 593 822 q 480 851 510 822 q 450 924 450 881 q 480 994 450 965 q 551 1024 510 1024 q 622 994 593 1024 q 651 924 651 965 q 622 851 651 881 m 203 -278 l 69 -278 l 69 -139 l 203 -139 q 311 -78 289 -139 l 340 0 l 310 0 l 18 736 l 194 736 l 406 178 l 613 736 l 783 736 l 463 -126 q 203 -278 406 -278 z "},"Ā":{"ha":1013,"x_min":25,"x_max":988,"o":"m 778 1093 l 236 1093 l 236 1222 l 778 1222 l 778 1093 m 197 0 l 25 0 l 422 972 l 589 972 l 988 0 l 815 0 l 717 240 l 296 240 l 197 0 m 507 757 l 356 388 l 657 388 l 507 757 z "},"ā":{"ha":818,"x_min":47,"x_max":793,"o":"m 665 861 l 124 861 l 124 990 l 665 990 l 665 861 m 326 -15 q 122 43 199 -15 q 47 204 46 101 q 67 292 47 254 q 117 353 88 331 q 191 392 146 376 q 274 416 236 408 q 363 429 313 424 q 388 432 371 431 q 457 441 435 438 q 507 452 479 444 q 546 472 535 460 q 557 504 557 485 q 515 591 556 558 q 406 624 475 624 q 285 588 333 624 q 229 494 236 553 l 64 494 q 171 685 75 611 q 408 758 267 758 q 635 686 554 758 q 717 493 717 614 l 717 160 q 753 128 717 128 l 793 128 l 793 0 l 715 0 q 582 86 601 0 q 575 111 578 99 q 326 -15 507 -15 m 360 114 q 501 158 446 114 q 557 276 557 203 l 557 379 q 514 346 544 358 q 457 328 483 333 q 381 317 431 322 q 315 306 339 311 q 263 291 290 301 q 224 262 236 281 q 213 215 213 243 q 251 140 213 167 q 360 114 289 114 z "},"Ă":{"ha":1013,"x_min":25,"x_max":988,"o":"m 506 1063 q 327 1124 396 1063 q 258 1283 258 1186 l 258 1296 l 399 1296 l 399 1283 q 428 1211 399 1239 q 506 1183 458 1183 q 581 1211 551 1183 q 610 1283 610 1239 l 610 1296 l 749 1296 l 749 1283 q 681 1124 749 1186 q 506 1063 613 1063 m 197 0 l 25 0 l 422 972 l 589 972 l 988 0 l 815 0 l 717 240 l 296 240 l 197 0 m 507 757 l 356 388 l 657 388 l 507 757 z "},"ă":{"ha":818,"x_min":47,"x_max":793,"o":"m 394 840 q 216 902 285 840 q 147 1061 147 964 l 147 1074 l 288 1074 l 288 1061 q 317 989 288 1017 q 394 961 347 961 q 469 989 440 961 q 499 1061 499 1017 l 499 1074 l 638 1074 l 638 1061 q 569 902 638 964 q 394 840 501 840 m 326 -15 q 122 43 199 -15 q 47 204 46 101 q 67 292 47 254 q 117 353 88 331 q 191 392 146 376 q 274 416 236 408 q 363 429 313 424 q 388 432 371 431 q 457 441 435 438 q 507 452 479 444 q 546 472 535 460 q 557 504 557 485 q 515 591 556 558 q 406 624 475 624 q 285 588 333 624 q 229 494 236 553 l 64 494 q 171 685 75 611 q 408 758 267 758 q 635 686 554 758 q 717 493 717 614 l 717 160 q 753 128 717 128 l 793 128 l 793 0 l 715 0 q 582 86 601 0 q 575 111 578 99 q 326 -15 507 -15 m 360 114 q 501 158 446 114 q 557 276 557 203 l 557 379 q 514 346 544 358 q 457 328 483 333 q 381 317 431 322 q 315 306 339 311 q 263 291 290 301 q 224 262 236 281 q 213 215 213 243 q 251 140 213 167 q 360 114 289 114 z "},"Ą":{"ha":1013,"x_min":25,"x_max":999,"o":"m 978 -154 l 999 -282 q 893 -300 944 -300 q 772 -265 817 -300 q 728 -174 728 -231 q 838 0 728 -75 l 815 0 l 717 240 l 296 240 l 197 0 l 25 0 l 422 972 l 589 972 l 988 0 l 968 0 q 858 -125 858 -60 q 913 -168 858 -168 q 978 -154 936 -168 m 507 757 l 356 388 l 657 388 l 507 757 z "},"ą":{"ha":818,"x_min":47,"x_max":824,"o":"m 803 -154 l 824 -282 q 718 -300 769 -300 q 597 -265 642 -300 q 553 -174 553 -231 q 584 -78 553 -126 q 669 4 615 -31 q 582 86 597 21 q 575 111 578 99 q 326 -15 507 -15 q 122 43 199 -15 q 47 204 46 101 q 67 292 47 254 q 117 353 88 331 q 191 392 146 376 q 274 416 236 408 q 363 429 313 424 q 388 432 371 431 q 457 441 435 438 q 507 452 479 444 q 546 472 535 460 q 557 504 557 485 q 515 591 556 558 q 406 624 475 624 q 285 588 333 624 q 229 494 236 553 l 64 494 q 171 685 75 611 q 408 758 267 758 q 635 686 554 758 q 717 493 717 614 l 717 160 q 753 128 717 128 l 793 128 l 793 0 q 683 -125 683 -60 q 738 -168 683 -168 q 803 -154 761 -168 m 557 276 l 557 379 q 514 346 544 358 q 457 328 483 333 q 381 317 431 322 q 315 306 339 311 q 263 291 290 301 q 224 262 236 281 q 213 215 213 243 q 251 140 213 167 q 360 114 289 114 q 501 158 446 114 q 557 276 557 203 z "},"Ć":{"ha":1071,"x_min":57,"x_max":1014,"o":"m 904 1333 l 522 1019 l 433 1118 l 814 1432 l 904 1333 m 546 -21 q 190 119 324 -21 q 57 489 57 260 q 190 853 57 713 q 546 993 322 993 q 858 888 735 993 q 1014 597 982 783 l 843 597 q 740 778 819 713 q 546 843 661 843 q 313 747 399 843 q 228 489 228 651 q 313 226 228 322 q 546 131 399 131 q 742 195 664 131 q 843 375 819 260 l 1014 375 q 858 83 981 186 q 546 -21 736 -21 z "},"ć":{"ha":817,"x_min":44,"x_max":789,"o":"m 789 1121 l 397 801 l 308 901 l 699 1219 l 789 1121 m 425 -21 q 147 90 249 -21 q 44 374 44 201 q 151 655 44 551 q 421 758 257 758 q 666 674 571 758 q 772 451 761 590 l 611 451 q 549 573 600 528 q 419 618 497 618 q 268 552 325 618 q 211 374 211 486 q 271 188 211 256 q 425 119 331 119 q 549 165 500 119 q 611 289 599 210 l 772 289 q 664 63 757 146 q 425 -21 571 -21 z "},"Ċ":{"ha":1071,"x_min":57,"x_max":1014,"o":"m 618 1075 q 603 1060 618 1075 q 546 1046 589 1046 q 474 1075 503 1046 q 444 1147 444 1104 q 474 1219 444 1190 q 546 1247 503 1247 q 618 1219 589 1247 q 647 1147 647 1190 q 618 1075 647 1104 m 546 -21 q 190 119 324 -21 q 57 489 57 260 q 190 853 57 713 q 546 993 322 993 q 858 888 735 993 q 1014 597 982 783 l 843 597 q 740 778 819 713 q 546 843 661 843 q 313 747 399 843 q 228 489 228 651 q 313 226 228 322 q 546 131 399 131 q 742 195 664 131 q 843 375 819 260 l 1014 375 q 858 83 981 186 q 546 -21 736 -21 z "},"ċ":{"ha":817,"x_min":44,"x_max":772,"o":"m 493 851 q 478 837 493 851 q 421 822 464 822 q 349 851 378 822 q 319 924 319 881 q 349 994 319 965 q 421 1024 378 1024 q 493 994 464 1024 q 522 924 522 965 q 493 851 522 881 m 425 -21 q 147 90 249 -21 q 44 374 44 201 q 151 655 44 551 q 421 758 257 758 q 666 674 571 758 q 772 451 761 590 l 611 451 q 549 573 600 528 q 419 618 497 618 q 268 552 325 618 q 211 374 211 486 q 271 188 211 256 q 425 119 331 119 q 549 165 500 119 q 611 289 599 210 l 772 289 q 664 63 757 146 q 425 -21 571 -21 z "},"Č":{"ha":1071,"x_min":57,"x_max":1014,"o":"m 600 1051 l 492 1051 l 240 1278 l 338 1369 l 544 1176 l 751 1369 l 849 1276 l 600 1051 m 546 -21 q 190 119 324 -21 q 57 489 57 260 q 190 853 57 713 q 546 993 322 993 q 858 888 735 993 q 1014 597 982 783 l 843 597 q 740 778 819 713 q 546 843 661 843 q 313 747 399 843 q 228 489 228 651 q 313 226 228 322 q 546 131 399 131 q 742 195 664 131 q 843 375 819 260 l 1014 375 q 858 83 981 186 q 546 -21 736 -21 z "},"č":{"ha":817,"x_min":44,"x_max":772,"o":"m 475 831 l 367 831 l 106 1067 l 203 1157 l 419 956 l 635 1157 l 733 1064 l 475 831 m 425 -21 q 147 90 249 -21 q 44 374 44 201 q 151 655 44 551 q 421 758 257 758 q 666 674 571 758 q 772 451 761 590 l 611 451 q 549 573 600 528 q 419 618 497 618 q 268 552 325 618 q 211 374 211 486 q 271 188 211 256 q 425 119 331 119 q 549 165 500 119 q 611 289 599 210 l 772 289 q 664 63 757 146 q 425 -21 571 -21 z "},"Ď":{"ha":999,"x_min":101,"x_max":942,"o":"m 499 1051 l 390 1051 l 139 1278 l 236 1369 l 443 1176 l 650 1369 l 747 1276 l 499 1051 m 451 0 l 101 0 l 101 972 l 451 972 q 805 838 668 972 q 942 492 942 704 q 805 137 942 274 q 451 0 668 0 m 268 822 l 268 150 l 463 150 q 684 245 599 150 q 769 492 769 340 q 683 728 769 635 q 463 822 597 822 l 268 822 z "},"ď":{"ha":1019,"x_min":44,"x_max":1022,"o":"m 386 -21 q 140 89 236 -21 q 44 372 44 199 q 139 651 44 543 q 381 758 233 758 q 622 646 539 758 l 622 1042 l 786 1042 l 786 0 l 654 0 l 639 131 q 541 19 607 60 q 386 -21 475 -21 m 1022 589 l 886 589 l 886 1042 l 1022 1042 l 1022 589 m 269 189 q 298 153 269 189 q 417 118 326 118 q 565 190 507 118 q 622 374 622 261 q 566 552 622 483 q 419 621 510 621 q 270 551 328 621 q 213 371 213 482 q 269 189 213 260 z "},"Đ":{"ha":1029,"x_min":-8,"x_max":974,"o":"m 483 0 l 132 0 l 132 436 l -8 436 l -8 556 l 132 556 l 132 972 l 483 972 q 837 838 700 972 q 974 492 974 704 q 837 137 974 274 q 483 0 700 0 m 299 436 l 299 150 l 494 150 q 715 245 629 150 q 800 492 800 340 q 714 728 800 635 q 494 822 628 822 l 299 822 l 299 556 l 600 556 l 600 436 l 299 436 z "},"đ":{"ha":913,"x_min":44,"x_max":922,"o":"m 386 -21 q 140 89 236 -21 q 44 372 44 199 q 139 651 44 543 q 381 758 233 758 q 622 646 539 758 l 622 844 l 306 844 l 306 964 l 622 964 l 622 1042 l 786 1042 l 786 964 l 922 964 l 922 844 l 786 844 l 786 0 l 654 0 l 639 131 q 541 19 607 60 q 386 -21 475 -21 m 269 189 q 298 153 269 189 q 417 118 326 118 q 565 190 507 118 q 622 374 622 261 q 566 552 622 483 q 419 621 510 621 q 270 551 328 621 q 213 371 213 482 q 269 189 213 260 z "},"Ē":{"ha":849,"x_min":101,"x_max":794,"o":"m 719 1093 l 178 1093 l 178 1222 l 719 1222 l 719 1093 m 794 0 l 101 0 l 101 972 l 782 972 l 782 822 l 267 822 l 267 572 l 733 572 l 733 426 l 267 426 l 267 150 l 794 150 l 794 0 z "},"ē":{"ha":806,"x_min":44,"x_max":761,"o":"m 676 861 l 135 861 l 135 990 l 676 990 l 676 861 m 424 -21 q 150 88 256 -21 q 44 365 44 196 q 148 651 44 544 q 410 758 251 758 q 663 655 567 758 q 761 374 758 551 l 761 335 l 208 335 q 274 177 217 236 q 425 118 332 118 q 535 148 489 118 q 599 233 581 178 l 758 233 q 642 47 731 114 q 424 -21 553 -21 m 215 450 l 592 450 q 528 575 576 531 q 410 619 481 619 q 286 574 338 619 q 215 450 235 529 z "},"Ė":{"ha":849,"x_min":101,"x_max":794,"o":"m 521 1075 q 506 1060 521 1075 q 449 1046 492 1046 q 376 1075 406 1046 q 347 1147 347 1104 q 376 1219 347 1190 q 449 1247 406 1247 q 521 1219 492 1247 q 550 1147 550 1190 q 521 1075 550 1104 m 794 0 l 101 0 l 101 972 l 782 972 l 782 822 l 267 822 l 267 572 l 733 572 l 733 426 l 267 426 l 267 150 l 794 150 l 794 0 z "},"ė":{"ha":806,"x_min":44,"x_max":761,"o":"m 479 851 q 465 837 479 851 q 407 822 450 822 q 335 851 364 822 q 306 924 306 881 q 335 994 306 965 q 407 1024 364 1024 q 479 994 450 1024 q 508 924 508 965 q 479 851 508 881 m 424 -21 q 150 88 256 -21 q 44 365 44 196 q 148 651 44 544 q 410 758 251 758 q 663 655 567 758 q 761 374 758 551 l 761 335 l 208 335 q 274 177 217 236 q 425 118 332 118 q 535 148 489 118 q 599 233 581 178 l 758 233 q 642 47 731 114 q 424 -21 553 -21 m 215 450 l 592 450 q 528 575 576 531 q 410 619 481 619 q 286 574 338 619 q 215 450 235 529 z "},"Ę":{"ha":849,"x_min":101,"x_max":803,"o":"m 782 -154 l 803 -282 q 697 -300 749 -300 q 576 -265 621 -300 q 532 -174 532 -231 q 642 0 532 -75 l 101 0 l 101 972 l 782 972 l 782 822 l 267 822 l 267 572 l 733 572 l 733 426 l 267 426 l 267 150 l 794 150 l 794 0 l 772 0 q 663 -125 663 -60 q 717 -168 663 -168 q 782 -154 740 -168 z "},"ę":{"ha":806,"x_min":44,"x_max":761,"o":"m 761 374 l 761 335 l 208 335 q 274 177 217 236 q 425 118 332 118 q 535 148 489 118 q 599 233 581 178 l 758 233 q 581 10 719 72 q 493 -101 493 -43 q 547 -144 493 -144 q 613 -131 571 -144 l 633 -258 q 528 -276 579 -276 q 407 -242 451 -276 q 363 -150 363 -207 q 419 -21 363 -85 q 149 89 253 -19 q 44 365 44 197 q 148 651 44 544 q 410 758 251 758 q 663 655 567 758 q 761 374 758 551 m 215 450 l 592 450 q 528 575 576 531 q 410 619 481 619 q 286 574 338 619 q 215 450 235 529 z "},"Ě":{"ha":849,"x_min":101,"x_max":794,"o":"m 503 1051 l 394 1051 l 143 1278 l 240 1369 l 447 1176 l 654 1369 l 751 1276 l 503 1051 m 794 0 l 101 0 l 101 972 l 782 972 l 782 822 l 267 822 l 267 572 l 733 572 l 733 426 l 267 426 l 267 150 l 794 150 l 794 0 z "},"ě":{"ha":806,"x_min":44,"x_max":761,"o":"m 461 831 l 353 831 l 92 1067 l 189 1157 l 406 956 l 621 1157 l 719 1064 l 461 831 m 424 -21 q 150 88 256 -21 q 44 365 44 196 q 148 651 44 544 q 410 758 251 758 q 663 655 567 758 q 761 374 758 551 l 761 335 l 208 335 q 274 177 217 236 q 425 118 332 118 q 535 148 489 118 q 599 233 581 178 l 758 233 q 642 47 731 114 q 424 -21 553 -21 m 215 450 l 592 450 q 528 575 576 531 q 410 619 481 619 q 286 574 338 619 q 215 450 235 529 z "},"Ğ":{"ha":1094,"x_min":57,"x_max":1019,"o":"m 544 1063 q 366 1124 435 1063 q 297 1283 297 1186 l 297 1296 l 438 1296 l 438 1283 q 467 1211 438 1239 q 544 1183 497 1183 q 619 1211 590 1183 q 649 1283 649 1239 l 649 1296 l 788 1296 l 788 1283 q 719 1124 788 1186 q 544 1063 651 1063 m 521 -21 q 186 119 315 -21 q 57 489 57 258 q 189 853 57 713 q 544 993 321 993 q 857 888 733 993 q 1013 597 981 782 l 842 597 q 739 778 818 713 q 544 843 660 843 q 313 748 399 843 q 228 489 228 653 q 313 227 228 324 q 538 131 397 131 q 719 197 650 131 q 788 368 788 263 l 494 368 l 494 508 l 826 508 q 970 463 921 508 q 1019 328 1019 417 l 1019 0 l 872 0 l 872 297 l 869 297 q 763 65 854 150 q 521 -21 671 -21 z "},"ğ":{"ha":863,"x_min":44,"x_max":781,"o":"m 417 840 q 238 902 307 840 q 169 1061 169 964 l 169 1074 l 310 1074 l 310 1061 q 340 989 310 1017 q 417 961 369 961 q 492 989 463 961 q 521 1061 521 1017 l 521 1074 l 660 1074 l 660 1061 q 592 902 660 964 q 417 840 524 840 m 419 -300 q 168 -230 264 -300 q 72 -42 72 -160 l 236 -42 q 288 -131 236 -94 q 419 -167 339 -167 q 567 -115 515 -167 q 618 22 618 -64 l 618 126 q 383 11 542 11 q 140 115 235 11 q 44 383 44 219 q 140 653 44 549 q 382 758 235 758 q 534 722 467 758 q 636 622 601 685 l 650 736 l 781 736 l 781 22 q 683 -212 781 -125 q 419 -300 586 -300 m 270 214 q 298 181 270 214 q 415 149 326 149 q 561 215 504 149 q 618 385 618 281 q 562 554 618 489 q 415 619 506 619 q 269 554 325 619 q 214 383 214 489 q 270 214 214 279 z "},"Ġ":{"ha":1094,"x_min":57,"x_max":1019,"o":"m 617 1075 q 602 1060 617 1075 q 544 1046 588 1046 q 472 1075 501 1046 q 443 1147 443 1104 q 472 1219 443 1190 q 544 1247 501 1247 q 617 1219 588 1247 q 646 1147 646 1190 q 617 1075 646 1104 m 521 -21 q 186 119 315 -21 q 57 489 57 258 q 189 853 57 713 q 544 993 321 993 q 857 888 733 993 q 1013 597 981 782 l 842 597 q 739 778 818 713 q 544 843 660 843 q 313 748 399 843 q 228 489 228 653 q 313 227 228 324 q 538 131 397 131 q 719 197 650 131 q 788 368 788 263 l 494 368 l 494 508 l 826 508 q 970 463 921 508 q 1019 328 1019 417 l 1019 0 l 872 0 l 872 297 l 869 297 q 763 65 854 150 q 521 -21 671 -21 z "},"ġ":{"ha":863,"x_min":44,"x_max":781,"o":"m 490 851 q 475 837 490 851 q 417 822 461 822 q 344 851 372 822 q 315 924 315 881 q 344 994 315 965 q 417 1024 374 1024 q 489 994 460 1024 q 518 924 518 965 q 490 851 518 881 m 419 -300 q 168 -230 264 -300 q 72 -42 72 -160 l 236 -42 q 288 -131 236 -94 q 419 -167 339 -167 q 567 -115 515 -167 q 618 22 618 -64 l 618 126 q 383 11 542 11 q 140 115 235 11 q 44 383 44 219 q 140 653 44 549 q 382 758 235 758 q 534 722 467 758 q 636 622 601 685 l 650 736 l 781 736 l 781 22 q 683 -212 781 -125 q 419 -300 586 -300 m 270 214 q 298 181 270 214 q 415 149 326 149 q 561 215 504 149 q 618 385 618 281 q 562 554 618 489 q 415 619 506 619 q 269 554 325 619 q 214 383 214 489 q 270 214 214 279 z "},"Ģ":{"ha":1094,"x_min":57,"x_max":1019,"o":"m 521 -21 q 186 119 315 -21 q 57 489 57 258 q 189 853 57 713 q 544 993 321 993 q 857 888 733 993 q 1013 597 981 782 l 842 597 q 739 778 818 713 q 544 843 660 843 q 313 748 399 843 q 228 489 228 653 q 313 227 228 324 q 538 131 397 131 q 719 197 650 131 q 788 368 788 263 l 494 368 l 494 508 l 826 508 q 970 463 921 508 q 1019 328 1019 417 l 1019 0 l 872 0 l 872 297 l 869 297 q 763 65 854 150 q 521 -21 671 -21 m 615 -82 l 458 -554 l 333 -515 l 483 -42 l 615 -82 z "},"ģ":{"ha":863,"x_min":44,"x_max":781,"o":"m 344 818 l 500 1290 l 626 1251 l 476 778 l 344 818 m 419 -300 q 168 -230 264 -300 q 72 -42 72 -160 l 236 -42 q 288 -131 236 -94 q 419 -167 339 -167 q 567 -115 515 -167 q 618 22 618 -64 l 618 126 q 383 11 542 11 q 140 115 235 11 q 44 383 44 219 q 140 653 44 549 q 382 758 235 758 q 534 722 467 758 q 636 622 601 685 l 650 736 l 781 736 l 781 22 q 683 -212 781 -125 q 419 -300 586 -300 m 270 214 q 298 181 270 214 q 415 149 326 149 q 561 215 504 149 q 618 385 618 281 q 562 554 618 489 q 415 619 506 619 q 269 554 325 619 q 214 383 214 489 q 270 214 214 279 z "},"Ħ":{"ha":1113,"x_min":-32,"x_max":1144,"o":"m 290 0 l 124 0 l 124 728 l -32 728 l -32 847 l 124 847 l 124 972 l 290 972 l 290 847 l 824 847 l 824 972 l 990 972 l 990 847 l 1144 847 l 1144 728 l 990 728 l 990 0 l 824 0 l 824 422 l 290 422 l 290 0 m 290 728 l 290 572 l 824 572 l 824 728 l 290 728 z "},"ħ":{"ha":868,"x_min":-10,"x_max":794,"o":"m 304 0 l 139 0 l 139 844 l -10 844 l -10 964 l 139 964 l 139 1042 l 304 1042 l 304 964 l 601 964 l 601 844 l 304 844 l 304 657 q 533 758 388 758 q 723 685 651 758 q 794 488 794 611 l 794 0 l 629 0 l 629 479 q 591 578 629 540 q 489 615 553 615 q 355 567 406 615 q 304 446 304 519 l 304 0 z "},"Ī":{"ha":368,"x_min":-86,"x_max":456,"o":"m 456 1093 l -86 1093 l -86 1222 l 456 1222 l 456 1093 m 268 0 l 101 0 l 101 972 l 268 972 l 268 0 z "},"ī":{"ha":332,"x_min":-104,"x_max":438,"o":"m 438 861 l -104 861 l -104 990 l 438 990 l 438 861 m 247 0 l 83 0 l 85 736 l 249 736 l 247 0 z "},"Į":{"ha":368,"x_min":11,"x_max":282,"o":"m 261 -154 l 282 -282 q 176 -300 228 -300 q 56 -265 100 -300 q 11 -174 11 -231 q 121 0 11 -75 l 101 0 l 101 972 l 268 972 l 268 0 l 251 0 q 142 -125 142 -60 q 196 -168 142 -168 q 261 -154 219 -168 z "},"į":{"ha":331,"x_min":-8,"x_max":271,"o":"m 165 835 q 90 866 121 835 q 60 942 60 897 q 90 1017 60 986 q 165 1047 121 1047 q 241 1017 211 1047 q 271 942 271 986 q 241 865 271 896 q 165 835 211 835 m 176 -168 q 242 -154 200 -168 l 263 -282 q 157 -300 208 -300 q 36 -265 81 -300 q -8 -174 -8 -231 q 101 0 -8 -75 l 83 0 l 83 736 l 247 736 l 247 0 l 232 0 q 122 -125 122 -60 q 176 -168 122 -168 z "},"İ":{"ha":368,"x_min":83,"x_max":286,"o":"m 257 1075 q 242 1060 257 1075 q 185 1046 228 1046 q 113 1075 142 1046 q 83 1147 83 1104 q 113 1219 83 1190 q 185 1247 142 1247 q 257 1219 228 1247 q 286 1147 286 1190 q 257 1075 286 1104 m 268 0 l 101 0 l 101 972 l 268 972 l 268 0 z "},"ı":{"ha":332,"x_min":83,"x_max":249,"o":"m 247 0 l 83 0 l 85 736 l 249 736 l 247 0 z "},"Ķ":{"ha":967,"x_min":101,"x_max":949,"o":"m 268 0 l 101 0 l 101 972 l 268 972 l 268 496 l 710 972 l 921 972 l 540 574 l 949 0 l 744 0 l 425 453 l 268 289 l 268 0 m 553 -82 l 396 -554 l 271 -515 l 421 -42 l 553 -82 z "},"ķ":{"ha":794,"x_min":86,"x_max":800,"o":"m 250 0 l 86 0 l 86 1042 l 250 1042 l 250 417 l 564 736 l 764 736 l 497 471 l 800 0 l 610 0 l 383 357 l 250 224 l 250 0 m 482 -82 l 325 -554 l 200 -515 l 350 -42 l 482 -82 z "},"Ĺ":{"ha":810,"x_min":72,"x_max":764,"o":"m 543 1333 l 161 1019 l 72 1118 l 453 1432 l 543 1333 m 764 0 l 101 0 l 101 972 l 268 972 l 268 150 l 764 150 l 764 0 z "},"ĺ":{"ha":336,"x_min":57,"x_max":528,"o":"m 528 1403 l 146 1089 l 57 1188 l 438 1501 l 528 1403 m 250 0 l 86 0 l 86 1042 l 250 1042 l 250 0 z "},"Ļ":{"ha":810,"x_min":101,"x_max":764,"o":"m 764 0 l 101 0 l 101 972 l 268 972 l 268 150 l 764 150 l 764 0 m 517 -82 l 360 -554 l 235 -515 l 385 -42 l 517 -82 z "},"ļ":{"ha":336,"x_min":-42,"x_max":250,"o":"m 250 0 l 86 0 l 86 1042 l 250 1042 l 250 0 m 242 -82 l 85 -554 l -42 -515 l 110 -42 l 242 -82 z "},"Ľ":{"ha":810,"x_min":101,"x_max":764,"o":"m 540 589 l 406 589 l 406 1042 l 540 1042 l 540 589 m 764 0 l 101 0 l 101 972 l 268 972 l 268 150 l 764 150 l 764 0 z "},"ľ":{"ha":483,"x_min":86,"x_max":486,"o":"m 250 0 l 86 0 l 86 1042 l 250 1042 l 250 0 m 486 589 l 350 589 l 350 1042 l 486 1042 l 486 589 z "},"Ł":{"ha":889,"x_min":-15,"x_max":843,"o":"m 843 0 l 179 0 l 179 431 l 39 346 l -15 446 l 179 565 l 179 972 l 346 972 l 346 668 l 526 779 l 582 676 l 346 533 l 346 150 l 843 150 l 843 0 z "},"ł":{"ha":565,"x_min":-17,"x_max":582,"o":"m 365 0 l 201 0 l 201 444 l 39 346 l -17 446 l 201 579 l 201 1042 l 365 1042 l 365 679 l 526 778 l 582 676 l 365 544 l 365 0 z "},"Ń":{"ha":1032,"x_min":101,"x_max":931,"o":"m 875 1333 l 493 1019 l 404 1118 l 785 1432 l 875 1333 m 268 0 l 101 0 l 101 972 l 282 972 l 764 240 l 764 972 l 931 972 l 931 0 l 750 0 l 268 732 l 268 0 z "},"ń":{"ha":811,"x_min":83,"x_max":790,"o":"m 790 1121 l 399 801 l 310 901 l 700 1219 l 790 1121 m 247 0 l 83 0 l 83 736 l 215 736 l 229 628 q 331 722 264 686 q 478 758 397 758 q 667 685 596 758 q 738 488 738 611 l 738 0 l 574 0 l 574 479 q 535 578 574 542 q 428 615 496 615 q 299 567 349 615 q 247 446 249 519 l 247 0 z "},"Ņ":{"ha":1032,"x_min":101,"x_max":931,"o":"m 268 0 l 101 0 l 101 972 l 282 972 l 764 240 l 764 972 l 931 972 l 931 0 l 750 0 l 268 732 l 268 0 m 590 -82 l 433 -554 l 308 -515 l 458 -42 l 590 -82 z "},"ņ":{"ha":811,"x_min":83,"x_max":738,"o":"m 247 0 l 83 0 l 83 736 l 215 736 l 229 628 q 331 722 264 686 q 478 758 397 758 q 667 685 596 758 q 738 488 738 611 l 738 0 l 574 0 l 574 479 q 535 578 574 542 q 428 615 496 615 q 299 567 349 615 q 247 446 249 519 l 247 0 m 483 -82 l 326 -554 l 201 -515 l 351 -42 l 483 -82 z "},"Ň":{"ha":1032,"x_min":101,"x_max":931,"o":"m 571 1051 l 463 1051 l 211 1278 l 308 1369 l 515 1176 l 722 1369 l 819 1276 l 571 1051 m 268 0 l 101 0 l 101 972 l 282 972 l 764 240 l 764 972 l 931 972 l 931 0 l 750 0 l 268 732 l 268 0 z "},"ň":{"ha":811,"x_min":83,"x_max":738,"o":"m 478 831 l 369 831 l 108 1067 l 206 1157 l 422 956 l 638 1157 l 736 1064 l 478 831 m 247 0 l 83 0 l 83 736 l 215 736 l 229 628 q 331 722 264 686 q 478 758 397 758 q 667 685 596 758 q 738 488 738 611 l 738 0 l 574 0 l 574 479 q 535 578 574 542 q 428 615 496 615 q 299 567 349 615 q 247 446 249 519 l 247 0 z "},"Ŋ":{"ha":1032,"x_min":101,"x_max":931,"o":"m 685 -278 l 569 -278 l 569 -142 l 674 -142 q 767 -44 767 -142 l 767 0 l 750 0 l 268 732 l 268 0 l 101 0 l 101 972 l 282 972 l 764 240 l 764 972 l 931 972 l 931 -54 q 867 -221 931 -164 q 685 -278 804 -278 z "},"ŋ":{"ha":811,"x_min":83,"x_max":738,"o":"m 492 -278 l 376 -278 l 376 -142 l 481 -142 q 574 -44 574 -142 l 574 479 q 535 578 574 542 q 428 615 496 615 q 299 567 349 615 q 247 446 249 519 l 247 0 l 83 0 l 83 736 l 215 736 l 229 628 q 331 722 264 686 q 478 758 397 758 q 667 685 596 758 q 738 488 738 611 l 738 -54 q 674 -221 738 -164 q 492 -278 611 -278 z "},"Ō":{"ha":1085,"x_min":57,"x_max":1029,"o":"m 813 1093 l 271 1093 l 271 1222 l 813 1222 l 813 1093 m 542 -21 q 191 119 325 -21 q 57 489 57 258 q 189 853 57 713 q 542 993 321 993 q 894 855 760 993 q 1029 489 1029 717 q 897 121 1029 263 q 542 -21 764 -21 m 542 131 q 774 228 688 131 q 860 489 860 325 q 774 747 860 651 q 542 843 688 843 q 312 747 397 843 q 226 489 226 651 q 312 228 226 325 q 542 131 397 131 z "},"ō":{"ha":843,"x_min":44,"x_max":799,"o":"m 693 861 l 151 861 l 151 990 l 693 990 l 693 861 m 422 -21 q 146 90 247 -21 q 44 375 44 200 q 151 655 44 551 q 422 758 257 758 q 697 650 596 758 q 799 375 799 542 q 694 85 799 192 q 422 -21 590 -21 m 422 119 q 576 191 519 119 q 632 375 632 263 q 575 551 632 485 q 422 618 518 618 q 269 551 326 618 q 211 375 211 485 q 270 188 211 257 q 422 119 329 119 z "},"Ő":{"ha":1085,"x_min":57,"x_max":1029,"o":"m 781 1429 l 475 1043 l 356 1110 l 665 1494 l 781 1429 m 989 1394 l 685 1006 l 565 1072 l 874 1458 l 989 1394 m 542 -21 q 191 119 325 -21 q 57 489 57 258 q 189 853 57 713 q 542 993 321 993 q 894 855 760 993 q 1029 489 1029 717 q 897 121 1029 263 q 542 -21 764 -21 m 542 131 q 774 228 688 131 q 860 489 860 325 q 774 747 860 651 q 542 843 688 843 q 312 747 397 843 q 226 489 226 651 q 312 228 226 325 q 542 131 397 131 z "},"ő":{"ha":843,"x_min":44,"x_max":869,"o":"m 661 1210 l 356 824 l 236 890 l 546 1275 l 661 1210 m 869 1175 l 565 786 l 446 853 l 754 1239 l 869 1175 m 422 -21 q 146 90 247 -21 q 44 375 44 200 q 151 655 44 551 q 422 758 257 758 q 697 650 596 758 q 799 375 799 542 q 694 85 799 192 q 422 -21 590 -21 m 422 119 q 576 191 519 119 q 632 375 632 263 q 575 551 632 485 q 422 618 518 618 q 269 551 326 618 q 211 375 211 485 q 270 188 211 257 q 422 119 329 119 z "},"Œ":{"ha":1613,"x_min":57,"x_max":1558,"o":"m 542 -21 q 191 119 325 -21 q 57 489 57 258 q 189 853 57 713 q 542 993 321 993 q 865 850 742 993 l 865 972 l 1546 972 l 1546 822 l 1031 822 l 1031 572 l 1497 572 l 1497 426 l 1031 426 l 1031 150 l 1558 150 l 1558 0 l 865 0 l 865 126 q 542 -21 744 -21 m 542 131 q 774 228 688 131 q 860 489 860 325 q 774 747 860 651 q 542 843 688 843 q 312 747 397 843 q 226 489 226 651 q 312 228 226 325 q 542 131 397 131 z "},"œ":{"ha":1450,"x_min":44,"x_max":1406,"o":"m 422 -21 q 146 90 247 -21 q 44 375 44 200 q 151 655 44 551 q 422 758 257 758 q 615 713 532 758 q 744 586 697 667 q 873 713 792 668 q 1053 758 954 758 q 1306 655 1210 758 q 1406 374 1403 551 l 1406 335 l 851 335 q 918 177 860 236 q 1068 118 976 118 q 1243 233 1201 118 l 1403 233 q 1286 47 1375 114 q 1067 -21 1197 -21 q 876 25 960 -21 q 744 153 793 71 q 613 24 697 69 q 422 -21 529 -21 m 860 450 l 1236 450 q 1173 575 1221 531 q 1053 619 1125 619 q 929 574 981 619 q 860 450 878 529 m 422 119 q 576 191 519 119 q 632 375 632 263 q 575 551 632 485 q 422 618 518 618 q 269 551 326 618 q 211 375 211 485 q 270 188 211 257 q 422 119 329 119 z "},"Ŕ":{"ha":965,"x_min":101,"x_max":933,"o":"m 804 1333 l 422 1019 l 333 1118 l 714 1432 l 804 1333 m 268 0 l 101 0 l 101 972 l 576 972 q 802 896 715 972 q 889 697 889 819 q 831 540 889 608 q 675 446 772 471 q 808 335 772 426 l 933 0 l 756 0 l 643 307 q 553 367 622 367 l 268 367 l 268 0 m 268 822 l 268 514 l 568 514 q 683 560 642 514 q 724 672 724 606 q 681 781 724 739 q 568 822 639 822 l 268 822 z "},"ŕ":{"ha":543,"x_min":83,"x_max":683,"o":"m 683 1121 l 292 801 l 203 901 l 593 1219 l 683 1121 m 247 0 l 83 0 l 83 736 l 215 736 l 235 592 q 490 744 307 744 l 518 744 l 518 585 l 490 585 q 311 526 375 585 q 247 364 247 468 l 247 0 z "},"Ŗ":{"ha":965,"x_min":101,"x_max":933,"o":"m 268 0 l 101 0 l 101 972 l 576 972 q 802 896 715 972 q 889 697 889 819 q 831 540 889 608 q 675 446 772 471 q 808 335 772 426 l 933 0 l 756 0 l 643 307 q 553 367 622 367 l 268 367 l 268 0 m 268 822 l 268 514 l 568 514 q 683 560 642 514 q 724 672 724 606 q 681 781 724 739 q 568 822 639 822 l 268 822 m 551 -82 l 394 -554 l 269 -515 l 419 -42 l 551 -82 z "},"ŗ":{"ha":543,"x_min":-46,"x_max":518,"o":"m 247 0 l 83 0 l 83 736 l 215 736 l 235 592 q 490 744 307 744 l 518 744 l 518 585 l 490 585 q 311 526 375 585 q 247 364 247 468 l 247 0 m 238 -82 l 81 -554 l -46 -515 l 106 -42 l 238 -82 z "},"Ř":{"ha":965,"x_min":101,"x_max":933,"o":"m 500 1051 l 392 1051 l 140 1278 l 238 1369 l 444 1176 l 651 1369 l 749 1276 l 500 1051 m 268 0 l 101 0 l 101 972 l 576 972 q 802 896 715 972 q 889 697 889 819 q 831 540 889 608 q 675 446 772 471 q 808 335 772 426 l 933 0 l 756 0 l 643 307 q 553 367 622 367 l 268 367 l 268 0 m 268 822 l 268 514 l 568 514 q 683 560 642 514 q 724 672 724 606 q 681 781 724 739 q 568 822 639 822 l 268 822 z "},"ř":{"ha":543,"x_min":0,"x_max":628,"o":"m 369 831 l 261 831 l 0 1067 l 97 1157 l 314 956 l 529 1157 l 628 1064 l 369 831 m 247 0 l 83 0 l 83 736 l 215 736 l 235 592 q 490 744 307 744 l 518 744 l 518 585 l 490 585 q 311 526 375 585 q 247 364 247 468 l 247 0 z "},"Ś":{"ha":908,"x_min":60,"x_max":861,"o":"m 810 1333 l 428 1019 l 339 1118 l 719 1432 l 810 1333 m 499 -21 q 189 67 308 -21 q 60 300 69 154 l 231 300 q 313 174 242 219 q 499 128 383 128 q 642 162 593 128 q 692 258 692 196 q 654 340 692 311 q 538 394 617 369 l 379 442 q 326 458 342 453 q 273 478 311 463 q 215 505 235 493 q 167 539 196 517 q 124 585 139 561 q 99 643 110 608 q 88 717 88 678 q 182 916 88 839 q 435 993 276 993 q 717 904 611 993 q 832 661 822 815 l 663 661 q 597 795 657 746 q 429 844 536 844 q 301 813 349 844 q 253 725 253 781 q 276 662 253 688 q 331 624 300 636 q 413 594 363 611 q 432 589 425 590 l 579 543 q 663 515 632 526 q 736 481 693 504 q 803 431 779 457 q 844 362 826 404 q 861 267 861 319 q 763 57 861 135 q 499 -21 665 -21 z "},"ś":{"ha":694,"x_min":46,"x_max":717,"o":"m 717 1121 l 325 801 l 236 901 l 626 1219 l 717 1121 m 376 -21 q 140 47 226 -21 q 46 235 53 114 l 204 235 q 253 145 208 176 q 368 114 299 114 q 496 203 496 114 q 474 255 496 239 q 397 288 451 271 q 385 292 389 290 l 288 324 q 199 356 232 342 q 129 396 165 371 q 76 457 93 421 q 60 542 60 493 q 133 700 60 642 q 336 758 206 758 q 547 692 465 758 q 643 501 629 625 l 488 501 q 335 624 475 624 q 251 602 281 624 q 221 543 221 581 q 223 526 221 533 q 230 511 225 518 q 239 499 235 504 q 252 488 243 493 q 267 479 261 482 q 284 472 272 476 q 301 465 296 467 q 320 458 307 463 q 338 453 333 454 l 426 424 q 605 336 550 382 q 660 199 660 290 q 585 38 660 96 q 376 -21 511 -21 z "},"Ş":{"ha":908,"x_min":60,"x_max":861,"o":"m 861 267 q 774 67 861 143 q 538 -19 688 -10 l 435 -314 l 307 -289 l 403 -14 q 160 90 251 7 q 60 300 68 174 l 231 300 q 313 174 242 219 q 499 128 383 128 q 642 162 593 128 q 692 258 692 196 q 654 340 692 311 q 538 394 617 369 l 379 442 q 326 458 342 453 q 273 478 311 463 q 215 505 235 493 q 167 539 196 517 q 124 585 139 561 q 99 643 110 608 q 88 717 88 678 q 182 916 88 839 q 435 993 276 993 q 717 904 611 993 q 832 661 822 815 l 663 661 q 597 795 657 746 q 429 844 536 844 q 301 813 349 844 q 253 725 253 781 q 276 662 253 688 q 331 624 300 636 q 413 594 363 611 q 432 589 425 590 l 579 543 q 663 515 632 526 q 736 481 693 504 q 803 431 779 457 q 844 362 826 404 q 861 267 861 319 z "},"ş":{"ha":694,"x_min":46,"x_max":660,"o":"m 660 199 q 603 53 660 108 q 442 -17 547 -3 l 338 -314 l 210 -289 l 304 -17 q 119 64 186 -1 q 46 235 51 129 l 204 235 q 253 145 208 176 q 368 114 299 114 q 496 203 496 114 q 474 255 496 239 q 397 288 451 271 q 385 292 389 290 l 288 324 q 199 356 232 342 q 129 396 165 371 q 76 457 93 421 q 60 542 60 493 q 133 700 60 642 q 336 758 206 758 q 547 692 465 758 q 643 501 629 625 l 488 501 q 335 624 475 624 q 251 602 281 624 q 221 543 221 581 q 223 526 221 533 q 230 511 225 518 q 239 499 235 504 q 252 488 243 493 q 267 479 261 482 q 284 472 272 476 q 301 465 296 467 q 320 458 307 463 q 338 453 333 454 l 426 424 q 605 336 550 382 q 660 199 660 290 z "},"Š":{"ha":908,"x_min":60,"x_max":861,"o":"m 506 1051 l 397 1051 l 146 1278 l 243 1369 l 450 1176 l 657 1369 l 754 1276 l 506 1051 m 499 -21 q 189 67 308 -21 q 60 300 69 154 l 231 300 q 313 174 242 219 q 499 128 383 128 q 642 162 593 128 q 692 258 692 196 q 654 340 692 311 q 538 394 617 369 l 379 442 q 326 458 342 453 q 273 478 311 463 q 215 505 235 493 q 167 539 196 517 q 124 585 139 561 q 99 643 110 608 q 88 717 88 678 q 182 916 88 839 q 435 993 276 993 q 717 904 611 993 q 832 661 822 815 l 663 661 q 597 795 657 746 q 429 844 536 844 q 301 813 349 844 q 253 725 253 781 q 276 662 253 688 q 331 624 300 636 q 413 594 363 611 q 432 589 425 590 l 579 543 q 663 515 632 526 q 736 481 693 504 q 803 431 779 457 q 844 362 826 404 q 861 267 861 319 q 763 57 861 135 q 499 -21 665 -21 z "},"š":{"ha":694,"x_min":35,"x_max":663,"o":"m 404 831 l 296 831 l 35 1067 l 132 1157 l 349 956 l 564 1157 l 663 1064 l 404 831 m 376 -21 q 140 47 226 -21 q 46 235 53 114 l 204 235 q 253 145 208 176 q 368 114 299 114 q 496 203 496 114 q 474 255 496 239 q 397 288 451 271 q 385 292 389 290 l 288 324 q 199 356 232 342 q 129 396 165 371 q 76 457 93 421 q 60 542 60 493 q 133 700 60 642 q 336 758 206 758 q 547 692 465 758 q 643 501 629 625 l 488 501 q 335 624 475 624 q 251 602 281 624 q 221 543 221 581 q 223 526 221 533 q 230 511 225 518 q 239 499 235 504 q 252 488 243 493 q 267 479 261 482 q 284 472 272 476 q 301 465 296 467 q 320 458 307 463 q 338 453 333 454 l 426 424 q 605 336 550 382 q 660 199 660 290 q 585 38 660 96 q 376 -21 511 -21 z "},"Ţ":{"ha":896,"x_min":40,"x_max":856,"o":"m 40 822 l 40 972 l 856 972 l 856 822 l 532 822 l 532 0 l 517 0 l 407 -314 l 279 -289 l 379 0 l 365 0 l 365 822 l 40 822 z "},"ţ":{"ha":556,"x_min":36,"x_max":519,"o":"m 519 736 l 519 597 l 329 597 l 329 236 q 422 139 329 139 l 506 139 l 506 0 l 431 0 l 321 -314 l 193 -289 l 300 17 q 165 225 165 63 l 165 597 l 36 597 l 36 736 l 165 736 l 165 988 l 329 988 l 329 736 l 519 736 z "},"Ť":{"ha":896,"x_min":40,"x_max":856,"o":"m 503 1051 l 394 1051 l 143 1278 l 240 1369 l 447 1176 l 654 1369 l 751 1276 l 503 1051 m 532 0 l 365 0 l 365 822 l 40 822 l 40 972 l 856 972 l 856 822 l 532 822 l 532 0 z "},"ť":{"ha":560,"x_min":36,"x_max":519,"o":"m 506 792 l 376 792 l 376 1132 l 506 1132 l 506 792 m 506 0 l 411 0 q 228 58 292 0 q 165 225 165 115 l 165 597 l 36 597 l 36 736 l 165 736 l 165 988 l 329 988 l 329 736 l 519 736 l 519 597 l 329 597 l 329 236 q 422 139 329 139 l 506 139 l 506 0 z "},"Ŧ":{"ha":896,"x_min":40,"x_max":856,"o":"m 532 0 l 365 0 l 365 460 l 103 460 l 103 578 l 365 578 l 365 822 l 40 822 l 40 972 l 856 972 l 856 822 l 532 822 l 532 578 l 793 578 l 793 460 l 532 460 l 532 0 z "},"ŧ":{"ha":556,"x_min":36,"x_max":519,"o":"m 506 0 l 411 0 q 228 58 292 0 q 165 225 165 115 l 165 342 l 36 342 l 36 460 l 165 460 l 165 597 l 36 597 l 36 736 l 165 736 l 165 988 l 329 988 l 329 736 l 519 736 l 519 597 l 329 597 l 329 460 l 519 460 l 519 342 l 329 342 l 329 236 q 422 139 329 139 l 506 139 l 506 0 z "},"Ū":{"ha":996,"x_min":93,"x_max":903,"o":"m 769 1093 l 228 1093 l 228 1222 l 769 1222 l 769 1093 m 793 76 q 738 28 793 76 q 499 -21 683 -21 q 203 76 314 -21 q 93 324 93 174 l 93 972 l 260 972 l 260 328 q 326 184 260 236 q 497 132 392 132 q 669 184 603 132 q 736 328 736 236 l 736 972 l 903 972 l 903 324 q 793 76 903 174 z "},"ū":{"ha":808,"x_min":71,"x_max":725,"o":"m 669 861 l 128 861 l 128 990 l 669 990 l 669 861 m 347 -21 q 144 53 218 -21 q 71 249 71 126 l 71 736 l 235 736 l 235 256 q 274 159 235 194 q 381 124 314 124 q 511 171 463 124 q 561 292 560 218 l 561 736 l 725 736 l 725 0 l 593 0 l 581 107 q 486 13 549 47 q 347 -21 424 -21 z "},"Ŭ":{"ha":996,"x_min":93,"x_max":903,"o":"m 497 1063 q 319 1124 388 1063 q 250 1283 250 1186 l 250 1296 l 390 1296 l 390 1283 q 420 1211 390 1239 q 497 1183 450 1183 q 572 1211 543 1183 q 601 1283 601 1239 l 601 1296 l 740 1296 l 740 1283 q 672 1124 740 1186 q 497 1063 604 1063 m 793 76 q 738 28 793 76 q 499 -21 683 -21 q 203 76 314 -21 q 93 324 93 174 l 93 972 l 260 972 l 260 328 q 326 184 260 236 q 497 132 392 132 q 669 184 603 132 q 736 328 736 236 l 736 972 l 903 972 l 903 324 q 793 76 903 174 z "},"ŭ":{"ha":808,"x_min":71,"x_max":725,"o":"m 399 840 q 220 902 289 840 q 151 1061 151 964 l 151 1074 l 292 1074 l 292 1061 q 322 989 292 1017 q 399 961 351 961 q 474 989 444 961 q 503 1061 503 1017 l 503 1074 l 642 1074 l 642 1061 q 574 902 642 964 q 399 840 506 840 m 347 -21 q 144 53 218 -21 q 71 249 71 126 l 71 736 l 235 736 l 235 256 q 274 159 235 194 q 381 124 314 124 q 511 171 463 124 q 561 292 560 218 l 561 736 l 725 736 l 725 0 l 593 0 l 581 107 q 486 13 549 47 q 347 -21 424 -21 z "},"Ů":{"ha":996,"x_min":93,"x_max":903,"o":"m 613 1067 q 590 1045 613 1067 q 499 1024 567 1024 q 384 1067 431 1024 q 338 1176 338 1111 q 383 1285 338 1242 q 499 1329 429 1329 q 614 1285 568 1329 q 660 1176 660 1242 q 613 1067 660 1111 m 449 1128 q 459 1118 449 1128 q 499 1108 468 1108 q 548 1128 529 1108 q 567 1176 567 1149 q 549 1225 567 1206 q 499 1244 531 1244 q 449 1225 467 1244 q 431 1176 431 1206 q 449 1128 431 1149 m 793 76 q 738 28 793 76 q 499 -21 683 -21 q 203 76 314 -21 q 93 324 93 174 l 93 972 l 260 972 l 260 328 q 326 184 260 236 q 497 132 392 132 q 669 184 603 132 q 736 328 736 236 l 736 972 l 903 972 l 903 324 q 793 76 903 174 z "},"ů":{"ha":808,"x_min":71,"x_max":725,"o":"m 513 842 q 490 820 513 842 q 399 799 467 799 q 284 842 331 799 q 238 951 238 886 q 283 1060 238 1017 q 399 1104 329 1104 q 514 1060 468 1104 q 560 951 560 1017 q 513 842 560 886 m 399 888 q 446 906 428 888 q 464 951 464 925 q 446 997 464 978 q 399 1017 428 1017 q 351 998 368 1017 q 333 951 333 979 q 351 906 333 924 q 399 888 368 888 m 347 -21 q 144 53 218 -21 q 71 249 71 126 l 71 736 l 235 736 l 235 256 q 274 159 235 194 q 381 124 314 124 q 511 171 463 124 q 561 292 560 218 l 561 736 l 725 736 l 725 0 l 593 0 l 581 107 q 486 13 549 47 q 347 -21 424 -21 z "},"Ű":{"ha":996,"x_min":93,"x_max":944,"o":"m 736 1429 l 431 1043 l 311 1110 l 621 1494 l 736 1429 m 944 1394 l 640 1006 l 521 1072 l 829 1458 l 944 1394 m 793 76 q 738 28 793 76 q 499 -21 683 -21 q 203 76 314 -21 q 93 324 93 174 l 93 972 l 260 972 l 260 328 q 326 184 260 236 q 497 132 392 132 q 669 184 603 132 q 736 328 736 236 l 736 972 l 903 972 l 903 324 q 793 76 903 174 z "},"ű":{"ha":808,"x_min":71,"x_max":846,"o":"m 638 1210 l 332 824 l 213 890 l 522 1275 l 638 1210 m 846 1175 l 542 786 l 422 853 l 731 1239 l 846 1175 m 347 -21 q 144 53 218 -21 q 71 249 71 126 l 71 736 l 235 736 l 235 256 q 274 159 235 194 q 381 124 314 124 q 511 171 463 124 q 561 292 560 218 l 561 736 l 725 736 l 725 0 l 593 0 l 581 107 q 486 13 549 47 q 347 -21 424 -21 z "},"Ų":{"ha":996,"x_min":93,"x_max":903,"o":"m 736 328 l 736 972 l 903 972 l 903 324 q 851 143 903 224 q 704 19 799 63 q 608 -97 608 -36 q 663 -140 608 -140 q 728 -126 686 -140 l 749 -254 q 643 -272 694 -272 q 522 -237 567 -272 q 478 -146 478 -203 q 532 -19 478 -81 q 499 -21 521 -21 q 203 76 314 -21 q 93 324 93 174 l 93 972 l 260 972 l 260 328 q 326 184 260 236 q 497 132 392 132 q 669 184 603 132 q 736 328 736 236 z "},"ų":{"ha":808,"x_min":71,"x_max":753,"o":"m 732 -154 l 753 -282 q 647 -300 699 -300 q 526 -265 571 -300 q 482 -174 482 -231 q 511 -81 482 -128 q 593 1 540 -33 l 581 107 q 486 13 549 47 q 347 -21 424 -21 q 144 53 218 -21 q 71 249 71 126 l 71 736 l 235 736 l 235 256 q 274 159 235 194 q 381 124 314 124 q 511 171 463 124 q 561 292 560 218 l 561 736 l 725 736 l 725 0 l 722 0 q 613 -125 613 -60 q 667 -168 613 -168 q 732 -154 690 -168 z "},"Ŵ":{"ha":1343,"x_min":18,"x_max":1325,"o":"m 671 1219 l 464 1026 l 367 1118 l 618 1346 l 726 1346 l 975 1121 l 878 1026 l 671 1219 m 475 0 l 293 0 l 18 972 l 192 972 l 394 243 l 593 972 l 749 972 l 949 242 l 1151 972 l 1325 972 l 1050 0 l 868 0 l 671 726 l 475 0 z "},"ŵ":{"ha":1096,"x_min":18,"x_max":1078,"o":"m 549 1003 l 332 801 l 235 893 l 496 1129 l 604 1129 l 863 896 l 764 801 l 549 1003 m 408 0 l 236 0 l 18 736 l 186 736 l 335 203 l 481 736 l 617 736 l 764 208 l 910 736 l 1078 736 l 860 0 l 690 0 l 549 503 l 408 0 z "},"Ŷ":{"ha":933,"x_min":14,"x_max":919,"o":"m 467 1239 l 250 1038 l 153 1129 l 414 1365 l 522 1365 l 781 1132 l 682 1038 l 467 1239 m 549 0 l 382 0 l 382 415 l 14 972 l 207 972 l 467 574 l 726 972 l 919 972 l 549 415 l 549 0 z "},"ŷ":{"ha":801,"x_min":18,"x_max":783,"o":"m 404 1003 l 188 801 l 90 893 l 351 1129 l 460 1129 l 718 896 l 619 801 l 404 1003 m 203 -278 l 69 -278 l 69 -139 l 203 -139 q 311 -78 289 -139 l 340 0 l 310 0 l 18 736 l 194 736 l 406 178 l 613 736 l 783 736 l 463 -126 q 203 -278 406 -278 z "},"Ÿ":{"ha":933,"x_min":14,"x_max":919,"o":"m 321 1046 q 249 1076 278 1046 q 219 1147 219 1106 q 249 1218 219 1189 q 321 1247 278 1247 q 392 1218 363 1247 q 421 1147 421 1189 q 392 1076 421 1106 q 321 1046 363 1046 m 685 1076 q 670 1061 685 1076 q 614 1046 656 1046 q 542 1076 572 1046 q 513 1147 513 1106 q 542 1218 513 1189 q 614 1247 572 1247 q 685 1218 656 1247 q 714 1147 714 1189 q 685 1076 714 1106 m 549 0 l 382 0 l 382 415 l 14 972 l 207 972 l 467 574 l 726 972 l 919 972 l 549 415 l 549 0 z "},"Ź":{"ha":844,"x_min":56,"x_max":789,"o":"m 774 1333 l 392 1019 l 303 1118 l 683 1432 l 774 1333 m 789 0 l 56 0 l 56 154 l 579 822 l 81 822 l 81 972 l 775 972 l 775 818 l 251 150 l 789 150 l 789 0 z "},"ź":{"ha":693,"x_min":56,"x_max":713,"o":"m 713 1121 l 321 801 l 232 901 l 622 1219 l 713 1121 m 639 0 l 56 0 l 56 150 l 450 592 l 68 592 l 68 736 l 633 736 l 633 586 l 238 146 l 639 146 l 639 0 z "},"Ż":{"ha":844,"x_min":56,"x_max":789,"o":"m 488 1075 q 473 1060 488 1075 q 415 1046 458 1046 q 343 1075 372 1046 q 314 1147 314 1104 q 343 1219 314 1190 q 415 1247 372 1247 q 488 1219 458 1247 q 517 1147 517 1190 q 488 1075 517 1104 m 789 0 l 56 0 l 56 154 l 579 822 l 81 822 l 81 972 l 775 972 l 775 818 l 251 150 l 789 150 l 789 0 z "},"ż":{"ha":693,"x_min":56,"x_max":639,"o":"m 417 851 q 403 837 417 851 q 344 822 389 822 q 272 851 300 822 q 243 924 243 881 q 272 994 243 965 q 344 1024 301 1024 q 417 994 388 1024 q 446 924 446 965 q 417 851 446 881 m 639 0 l 56 0 l 56 150 l 450 592 l 68 592 l 68 736 l 633 736 l 633 586 l 238 146 l 639 146 l 639 0 z "},"Ž":{"ha":844,"x_min":56,"x_max":789,"o":"m 469 1051 l 361 1051 l 110 1278 l 207 1369 l 414 1176 l 621 1369 l 718 1276 l 469 1051 m 789 0 l 56 0 l 56 154 l 579 822 l 81 822 l 81 972 l 775 972 l 775 818 l 251 150 l 789 150 l 789 0 z "},"ž":{"ha":693,"x_min":29,"x_max":657,"o":"m 399 831 l 290 831 l 29 1067 l 126 1157 l 343 956 l 558 1157 l 657 1064 l 399 831 m 639 0 l 56 0 l 56 150 l 450 592 l 68 592 l 68 736 l 633 736 l 633 586 l 238 146 l 639 146 l 639 0 z "},"Ǎ":{"ha":1013,"x_min":25,"x_max":988,"o":"m 561 1051 l 453 1051 l 201 1278 l 299 1369 l 506 1176 l 713 1369 l 810 1276 l 561 1051 m 197 0 l 25 0 l 422 972 l 589 972 l 988 0 l 815 0 l 717 240 l 296 240 l 197 0 m 507 757 l 356 388 l 657 388 l 507 757 z "},"ǎ":{"ha":818,"x_min":47,"x_max":793,"o":"m 450 831 l 342 831 l 81 1067 l 178 1157 l 394 956 l 610 1157 l 708 1064 l 450 831 m 326 -15 q 122 43 199 -15 q 47 204 46 101 q 67 292 47 254 q 117 353 88 331 q 191 392 146 376 q 274 416 236 408 q 363 429 313 424 q 388 432 371 431 q 457 441 435 438 q 507 452 479 444 q 546 472 535 460 q 557 504 557 485 q 515 591 556 558 q 406 624 475 624 q 285 588 333 624 q 229 494 236 553 l 64 494 q 171 685 75 611 q 408 758 267 758 q 635 686 554 758 q 717 493 717 614 l 717 160 q 753 128 717 128 l 793 128 l 793 0 l 715 0 q 582 86 601 0 q 575 111 578 99 q 326 -15 507 -15 m 360 114 q 501 158 446 114 q 557 276 557 203 l 557 379 q 514 346 544 358 q 457 328 483 333 q 381 317 431 322 q 315 306 339 311 q 263 291 290 301 q 224 262 236 281 q 213 215 213 243 q 251 140 213 167 q 360 114 289 114 z "},"Ǐ":{"ha":368,"x_min":-121,"x_max":488,"o":"m 239 1051 l 131 1051 l -121 1278 l -24 1369 l 183 1176 l 390 1369 l 488 1276 l 239 1051 m 268 0 l 101 0 l 101 972 l 268 972 l 268 0 z "},"ǐ":{"ha":332,"x_min":-147,"x_max":481,"o":"m 222 831 l 114 831 l -147 1067 l -50 1157 l 167 956 l 382 1157 l 481 1064 l 222 831 m 247 0 l 83 0 l 85 736 l 249 736 l 247 0 z "},"Ǒ":{"ha":1085,"x_min":57,"x_max":1029,"o":"m 596 1051 l 488 1051 l 236 1278 l 333 1369 l 540 1176 l 747 1369 l 844 1276 l 596 1051 m 542 -21 q 191 119 325 -21 q 57 489 57 258 q 189 853 57 713 q 542 993 321 993 q 894 855 760 993 q 1029 489 1029 717 q 897 121 1029 263 q 542 -21 764 -21 m 542 131 q 774 228 688 131 q 860 489 860 325 q 774 747 860 651 q 542 843 688 843 q 312 747 397 843 q 226 489 226 651 q 312 228 226 325 q 542 131 397 131 z "},"ǒ":{"ha":843,"x_min":44,"x_max":799,"o":"m 478 831 l 369 831 l 108 1067 l 206 1157 l 422 956 l 638 1157 l 736 1064 l 478 831 m 422 -21 q 146 90 247 -21 q 44 375 44 200 q 151 655 44 551 q 422 758 257 758 q 697 650 596 758 q 799 375 799 542 q 694 85 799 192 q 422 -21 590 -21 m 422 119 q 576 191 519 119 q 632 375 632 263 q 575 551 632 485 q 422 618 518 618 q 269 551 326 618 q 211 375 211 485 q 270 188 211 257 q 422 119 329 119 z "},"Ǔ":{"ha":996,"x_min":93,"x_max":903,"o":"m 553 1051 l 444 1051 l 193 1278 l 290 1369 l 497 1176 l 704 1369 l 801 1276 l 553 1051 m 793 76 q 738 28 793 76 q 499 -21 683 -21 q 203 76 314 -21 q 93 324 93 174 l 93 972 l 260 972 l 260 328 q 326 184 260 236 q 497 132 392 132 q 669 184 603 132 q 736 328 736 236 l 736 972 l 903 972 l 903 324 q 793 76 903 174 z "},"ǔ":{"ha":808,"x_min":71,"x_max":725,"o":"m 454 831 l 346 831 l 85 1067 l 182 1157 l 399 956 l 614 1157 l 713 1064 l 454 831 m 347 -21 q 144 53 218 -21 q 71 249 71 126 l 71 736 l 235 736 l 235 256 q 274 159 235 194 q 381 124 314 124 q 511 171 463 124 q 561 292 560 218 l 561 736 l 725 736 l 725 0 l 593 0 l 581 107 q 486 13 549 47 q 347 -21 424 -21 z "},"Ǖ":{"ha":996,"x_min":93,"x_max":903,"o":"m 769 1356 l 228 1356 l 228 1485 l 769 1485 l 769 1356 m 351 1046 q 279 1076 308 1046 q 250 1147 250 1106 q 279 1218 250 1189 q 351 1247 308 1247 q 422 1218 393 1247 q 451 1147 451 1189 q 422 1076 451 1106 q 351 1046 393 1046 m 715 1076 q 701 1061 715 1076 q 644 1046 686 1046 q 573 1076 603 1046 q 543 1147 543 1106 q 573 1218 543 1189 q 644 1247 603 1247 q 715 1218 686 1247 q 744 1147 744 1189 q 715 1076 744 1106 m 793 76 q 738 28 793 76 q 499 -21 683 -21 q 203 76 314 -21 q 93 324 93 174 l 93 972 l 260 972 l 260 328 q 326 184 260 236 q 497 132 392 132 q 669 184 603 132 q 736 328 736 236 l 736 972 l 903 972 l 903 324 q 793 76 903 174 z "},"ǖ":{"ha":808,"x_min":71,"x_max":725,"o":"m 669 1128 l 128 1128 l 128 1257 l 669 1257 l 669 1128 m 253 822 q 181 851 210 822 q 151 924 151 881 q 181 994 151 965 q 253 1024 210 1024 q 324 994 294 1024 q 353 924 353 965 q 324 851 353 881 q 253 822 294 822 m 617 851 q 602 837 617 851 q 546 822 588 822 q 474 851 504 822 q 444 924 444 881 q 474 994 444 965 q 546 1024 504 1024 q 617 994 588 1024 q 646 924 646 965 q 617 851 646 881 m 347 -21 q 144 53 218 -21 q 71 249 71 126 l 71 736 l 235 736 l 235 256 q 274 159 235 194 q 381 124 314 124 q 511 171 463 124 q 561 292 560 218 l 561 736 l 725 736 l 725 0 l 593 0 l 581 107 q 486 13 549 47 q 347 -21 424 -21 z "},"Ǘ":{"ha":996,"x_min":93,"x_max":903,"o":"m 857 1596 l 475 1282 l 386 1381 l 767 1694 l 857 1596 m 351 1046 q 279 1076 308 1046 q 250 1147 250 1106 q 279 1218 250 1189 q 351 1247 308 1247 q 422 1218 393 1247 q 451 1147 451 1189 q 422 1076 451 1106 q 351 1046 393 1046 m 715 1076 q 701 1061 715 1076 q 644 1046 686 1046 q 573 1076 603 1046 q 543 1147 543 1106 q 573 1218 543 1189 q 644 1247 603 1247 q 715 1218 686 1247 q 744 1147 744 1189 q 715 1076 744 1106 m 793 76 q 738 28 793 76 q 499 -21 683 -21 q 203 76 314 -21 q 93 324 93 174 l 93 972 l 260 972 l 260 328 q 326 184 260 236 q 497 132 392 132 q 669 184 603 132 q 736 328 736 236 l 736 972 l 903 972 l 903 324 q 793 76 903 174 z "},"ǘ":{"ha":808,"x_min":71,"x_max":767,"o":"m 767 1388 l 375 1068 l 286 1168 l 676 1486 l 767 1388 m 253 822 q 181 851 210 822 q 151 924 151 881 q 181 994 151 965 q 253 1024 210 1024 q 324 994 294 1024 q 353 924 353 965 q 324 851 353 881 q 253 822 294 822 m 617 851 q 602 837 617 851 q 546 822 588 822 q 474 851 504 822 q 444 924 444 881 q 474 994 444 965 q 546 1024 504 1024 q 617 994 588 1024 q 646 924 646 965 q 617 851 646 881 m 347 -21 q 144 53 218 -21 q 71 249 71 126 l 71 736 l 235 736 l 235 256 q 274 159 235 194 q 381 124 314 124 q 511 171 463 124 q 561 292 560 218 l 561 736 l 725 736 l 725 0 l 593 0 l 581 107 q 486 13 549 47 q 347 -21 424 -21 z "},"Ǚ":{"ha":996,"x_min":93,"x_max":903,"o":"m 553 1314 l 444 1314 l 193 1540 l 290 1632 l 497 1439 l 704 1632 l 801 1539 l 553 1314 m 351 1046 q 279 1076 308 1046 q 250 1147 250 1106 q 279 1218 250 1189 q 351 1247 308 1247 q 422 1218 393 1247 q 451 1147 451 1189 q 422 1076 451 1106 q 351 1046 393 1046 m 715 1076 q 701 1061 715 1076 q 644 1046 686 1046 q 573 1076 603 1046 q 543 1147 543 1106 q 573 1218 543 1189 q 644 1247 603 1247 q 715 1218 686 1247 q 744 1147 744 1189 q 715 1076 744 1106 m 793 76 q 738 28 793 76 q 499 -21 683 -21 q 203 76 314 -21 q 93 324 93 174 l 93 972 l 260 972 l 260 328 q 326 184 260 236 q 497 132 392 132 q 669 184 603 132 q 736 328 736 236 l 736 972 l 903 972 l 903 324 q 793 76 903 174 z "},"ǚ":{"ha":808,"x_min":71,"x_max":725,"o":"m 454 1097 l 346 1097 l 85 1333 l 182 1424 l 399 1222 l 614 1424 l 713 1331 l 454 1097 m 253 822 q 181 851 210 822 q 151 924 151 881 q 181 994 151 965 q 253 1024 210 1024 q 324 994 294 1024 q 353 924 353 965 q 324 851 353 881 q 253 822 294 822 m 617 851 q 602 837 617 851 q 546 822 588 822 q 474 851 504 822 q 444 924 444 881 q 474 994 444 965 q 546 1024 504 1024 q 617 994 588 1024 q 646 924 646 965 q 617 851 646 881 m 347 -21 q 144 53 218 -21 q 71 249 71 126 l 71 736 l 235 736 l 235 256 q 274 159 235 194 q 381 124 314 124 q 511 171 463 124 q 561 292 560 218 l 561 736 l 725 736 l 725 0 l 593 0 l 581 107 q 486 13 549 47 q 347 -21 424 -21 z "},"Ǜ":{"ha":996,"x_min":93,"x_max":903,"o":"m 611 1381 l 521 1282 l 140 1596 l 229 1694 l 611 1381 m 351 1046 q 279 1076 308 1046 q 250 1147 250 1106 q 279 1218 250 1189 q 351 1247 308 1247 q 422 1218 393 1247 q 451 1147 451 1189 q 422 1076 451 1106 q 351 1046 393 1046 m 715 1076 q 701 1061 715 1076 q 644 1046 686 1046 q 573 1076 603 1046 q 543 1147 543 1106 q 573 1218 543 1189 q 644 1247 603 1247 q 715 1218 686 1247 q 744 1147 744 1189 q 715 1076 744 1106 m 793 76 q 738 28 793 76 q 499 -21 683 -21 q 203 76 314 -21 q 93 324 93 174 l 93 972 l 260 972 l 260 328 q 326 184 260 236 q 497 132 392 132 q 669 184 603 132 q 736 328 736 236 l 736 972 l 903 972 l 903 324 q 793 76 903 174 z "},"ǜ":{"ha":808,"x_min":31,"x_max":725,"o":"m 511 1168 l 421 1068 l 31 1388 l 119 1486 l 511 1168 m 253 822 q 181 851 210 822 q 151 924 151 881 q 181 994 151 965 q 253 1024 210 1024 q 324 994 294 1024 q 353 924 353 965 q 324 851 353 881 q 253 822 294 822 m 617 851 q 602 837 617 851 q 546 822 588 822 q 474 851 504 822 q 444 924 444 881 q 474 994 444 965 q 546 1024 504 1024 q 617 994 588 1024 q 646 924 646 965 q 617 851 646 881 m 347 -21 q 144 53 218 -21 q 71 249 71 126 l 71 736 l 235 736 l 235 256 q 274 159 235 194 q 381 124 314 124 q 511 171 463 124 q 561 292 560 218 l 561 736 l 725 736 l 725 0 l 593 0 l 581 107 q 486 13 549 47 q 347 -21 424 -21 z "},"Ș":{"ha":908,"x_min":60,"x_max":861,"o":"m 499 -21 q 189 67 308 -21 q 60 300 69 154 l 231 300 q 313 174 242 219 q 499 128 383 128 q 642 162 593 128 q 692 258 692 196 q 654 340 692 311 q 538 394 617 369 l 379 442 q 326 458 342 453 q 273 478 311 463 q 215 505 235 493 q 167 539 196 517 q 124 585 139 561 q 99 643 110 608 q 88 717 88 678 q 182 916 88 839 q 435 993 276 993 q 717 904 611 993 q 832 661 822 815 l 663 661 q 597 795 657 746 q 429 844 536 844 q 301 813 349 844 q 253 725 253 781 q 276 662 253 688 q 331 624 300 636 q 413 594 363 611 q 432 589 425 590 l 579 543 q 663 515 632 526 q 736 481 693 504 q 803 431 779 457 q 844 362 826 404 q 861 267 861 319 q 763 57 861 135 q 499 -21 665 -21 m 550 -82 l 393 -554 l 268 -515 l 418 -42 l 550 -82 z "},"ș":{"ha":694,"x_min":46,"x_max":660,"o":"m 376 -21 q 140 47 226 -21 q 46 235 53 114 l 204 235 q 253 145 208 176 q 368 114 299 114 q 496 203 496 114 q 474 255 496 239 q 397 288 451 271 q 385 292 389 290 l 288 324 q 199 356 232 342 q 129 396 165 371 q 76 457 93 421 q 60 542 60 493 q 133 700 60 642 q 336 758 206 758 q 547 692 465 758 q 643 501 629 625 l 488 501 q 335 624 475 624 q 251 602 281 624 q 221 543 221 581 q 223 526 221 533 q 230 511 225 518 q 239 499 235 504 q 252 488 243 493 q 267 479 261 482 q 284 472 272 476 q 301 465 296 467 q 320 458 307 463 q 338 453 333 454 l 426 424 q 605 336 550 382 q 660 199 660 290 q 585 38 660 96 q 376 -21 511 -21 m 453 -82 l 296 -554 l 171 -515 l 321 -42 l 453 -82 z "},"Ț":{"ha":896,"x_min":40,"x_max":856,"o":"m 532 0 l 365 0 l 365 822 l 40 822 l 40 972 l 856 972 l 856 822 l 532 822 l 532 0 m 522 -82 l 365 -554 l 240 -515 l 390 -42 l 522 -82 z "},"ț":{"ha":556,"x_min":36,"x_max":519,"o":"m 506 0 l 411 0 q 228 58 292 0 q 165 225 165 115 l 165 597 l 36 597 l 36 736 l 165 736 l 165 988 l 329 988 l 329 736 l 519 736 l 519 597 l 329 597 l 329 236 q 422 139 329 139 l 506 139 l 506 0 m 436 -82 l 279 -554 l 154 -515 l 304 -42 l 436 -82 z "},"ˆ":{"ha":650,"x_min":11,"x_max":639,"o":"m 325 1003 l 108 801 l 11 893 l 272 1129 l 381 1129 l 639 896 l 540 801 l 325 1003 z "},"ˇ":{"ha":650,"x_min":11,"x_max":639,"o":"m 381 831 l 272 831 l 11 1067 l 108 1157 l 325 956 l 540 1157 l 639 1064 l 381 831 z "},"˘":{"ha":576,"x_min":43,"x_max":533,"o":"m 290 840 q 112 902 181 840 q 43 1061 43 964 l 43 1074 l 183 1074 l 183 1061 q 213 989 183 1017 q 290 961 243 961 q 365 989 336 961 q 394 1061 394 1017 l 394 1074 l 533 1074 l 533 1061 q 465 902 533 964 q 290 840 397 840 z "},"˙":{"ha":274,"x_min":36,"x_max":239,"o":"m 210 851 q 195 837 210 851 q 138 822 181 822 q 65 851 94 822 q 36 924 36 881 q 65 994 36 965 q 138 1024 94 1024 q 210 994 181 1024 q 239 924 239 965 q 210 851 239 881 z "},"˚":{"ha":381,"x_min":29,"x_max":351,"o":"m 305 842 q 282 820 305 842 q 190 799 258 799 q 76 842 122 799 q 29 951 29 886 q 75 1060 29 1017 q 190 1104 121 1104 q 306 1060 260 1104 q 351 951 351 1017 q 305 842 351 886 m 190 888 q 238 906 219 888 q 256 951 256 925 q 238 997 256 978 q 190 1017 219 1017 q 142 998 160 1017 q 125 951 125 979 q 142 906 125 924 q 190 888 160 888 z "},"˜":{"ha":618,"x_min":43,"x_max":575,"o":"m 443 865 q 317 915 389 865 q 225 964 244 964 q 188 938 203 964 q 174 872 174 913 l 43 872 q 83 1028 43 969 q 190 1086 124 1086 q 313 1037 243 1086 q 403 988 382 988 q 447 1075 447 988 l 575 1075 q 541 919 575 974 q 443 865 507 865 z "},"˝":{"ha":667,"x_min":17,"x_max":650,"o":"m 442 1210 l 136 824 l 17 890 l 326 1275 l 442 1210 m 650 1175 l 346 786 l 226 853 l 535 1239 l 650 1175 z "},"̀":{"ha":0,"x_min":-492,"x_max":-11,"o":"m -11 901 l -101 801 l -492 1121 l -403 1219 l -11 901 z "},"́":{"ha":0,"x_min":-492,"x_max":-11,"o":"m -11 1121 l -403 801 l -492 901 l -101 1219 l -11 1121 z "},"̂":{"ha":0,"x_min":-639,"x_max":-11,"o":"m -325 1003 l -542 801 l -639 893 l -378 1129 l -269 1129 l -11 896 l -110 801 l -325 1003 z "},"̃":{"ha":0,"x_min":-575,"x_max":-43,"o":"m -175 865 q -301 915 -229 865 q -393 964 -374 964 q -430 938 -415 964 q -444 872 -444 913 l -575 872 q -535 1028 -575 969 q -428 1086 -494 1086 q -306 1037 -375 1086 q -215 988 -236 988 q -171 1075 -171 988 l -43 1075 q -77 919 -43 974 q -175 865 -111 865 z "},"̄":{"ha":0,"x_min":-561,"x_max":-19,"o":"m -19 861 l -561 861 l -561 990 l -19 990 l -19 861 z "},"̆":{"ha":0,"x_min":-533,"x_max":-43,"o":"m -286 840 q -465 902 -396 840 q -533 1061 -533 964 l -533 1074 l -393 1074 l -393 1061 q -363 989 -393 1017 q -286 961 -333 961 q -211 989 -240 961 q -182 1061 -182 1017 l -182 1074 l -43 1074 l -43 1061 q -111 902 -43 964 q -286 840 -179 840 z "},"̇":{"ha":0,"x_min":-237,"x_max":-35,"o":"m -63 851 q -77 837 -63 851 q -136 822 -92 822 q -209 851 -181 822 q -237 924 -237 881 q -208 994 -237 965 q -136 1024 -179 1024 q -64 994 -93 1024 q -35 924 -35 965 q -63 851 -35 881 z "},"̈":{"ha":0,"x_min":-532,"x_max":-37,"o":"m -431 822 q -503 851 -474 822 q -532 924 -532 881 q -503 994 -532 965 q -431 1024 -474 1024 q -360 994 -389 1024 q -331 924 -331 965 q -360 851 -331 881 q -431 822 -389 822 m -67 851 q -81 837 -67 851 q -137 822 -96 822 q -209 851 -179 822 q -239 924 -239 881 q -209 994 -239 965 q -137 1024 -179 1024 q -67 994 -96 1024 q -37 924 -37 965 q -67 851 -37 881 z "},"̊":{"ha":0,"x_min":-351,"x_max":-29,"o":"m -76 842 q -99 820 -76 842 q -190 799 -122 799 q -305 842 -258 799 q -351 951 -351 886 q -306 1060 -351 1017 q -190 1104 -260 1104 q -75 1060 -121 1104 q -29 951 -29 1017 q -76 842 -29 886 m -190 888 q -143 906 -161 888 q -125 951 -125 925 q -143 997 -125 978 q -190 1017 -161 1017 q -238 998 -221 1017 q -256 951 -256 979 q -238 906 -256 924 q -190 888 -221 888 z "},"̋":{"ha":0,"x_min":-650,"x_max":-17,"o":"m -225 1210 l -531 824 l -650 890 l -340 1275 l -225 1210 m -17 1175 l -321 786 l -440 853 l -132 1239 l -17 1175 z "},"̌":{"ha":0,"x_min":-639,"x_max":-11,"o":"m -269 831 l -378 831 l -639 1067 l -542 1157 l -325 956 l -110 1157 l -11 1064 l -269 831 z "},"̦":{"ha":0,"x_min":-297,"x_max":-15,"o":"m -15 -82 l -172 -554 l -297 -515 l -147 -42 l -15 -82 z "},"̧":{"ha":0,"x_min":-254,"x_max":-17,"o":"m -17 0 l -126 -314 l -254 -289 l -146 22 l -17 0 z "},"̨":{"ha":0,"x_min":-310,"x_max":-39,"o":"m -144 -300 q -265 -265 -221 -300 q -310 -174 -310 -231 q -271 -67 -310 -119 q -165 21 -232 -14 l -160 21 l -160 0 l -69 0 q -179 -125 -179 -60 q -125 -168 -179 -168 q -60 -154 -101 -168 l -39 -282 q -144 -300 -93 -300 z "},"Ẁ":{"ha":1343,"x_min":18,"x_max":1325,"o":"m 785 1118 l 694 1019 l 314 1333 l 403 1432 l 785 1118 m 475 0 l 293 0 l 18 972 l 192 972 l 394 243 l 593 972 l 749 972 l 949 242 l 1151 972 l 1325 972 l 1050 0 l 868 0 l 671 726 l 475 0 z "},"ẁ":{"ha":1096,"x_min":18,"x_max":1078,"o":"m 663 901 l 572 801 l 182 1121 l 271 1219 l 663 901 m 408 0 l 236 0 l 18 736 l 186 736 l 335 203 l 481 736 l 617 736 l 764 208 l 910 736 l 1078 736 l 860 0 l 690 0 l 549 503 l 408 0 z "},"Ẃ":{"ha":1343,"x_min":18,"x_max":1325,"o":"m 1031 1333 l 649 1019 l 560 1118 l 940 1432 l 1031 1333 m 475 0 l 293 0 l 18 972 l 192 972 l 394 243 l 593 972 l 749 972 l 949 242 l 1151 972 l 1325 972 l 1050 0 l 868 0 l 671 726 l 475 0 z "},"ẃ":{"ha":1096,"x_min":18,"x_max":1078,"o":"m 918 1121 l 526 801 l 438 901 l 828 1219 l 918 1121 m 408 0 l 236 0 l 18 736 l 186 736 l 335 203 l 481 736 l 617 736 l 764 208 l 910 736 l 1078 736 l 860 0 l 690 0 l 549 503 l 408 0 z "},"Ẅ":{"ha":1343,"x_min":18,"x_max":1325,"o":"m 525 1046 q 453 1076 482 1046 q 424 1147 424 1106 q 453 1218 424 1189 q 525 1247 482 1247 q 596 1218 567 1247 q 625 1147 625 1189 q 596 1076 625 1106 q 525 1046 567 1046 m 889 1076 q 874 1061 889 1076 q 818 1046 860 1046 q 747 1076 776 1046 q 717 1147 717 1106 q 747 1218 717 1189 q 818 1247 776 1247 q 889 1218 860 1247 q 918 1147 918 1189 q 889 1076 918 1106 m 475 0 l 293 0 l 18 972 l 192 972 l 394 243 l 593 972 l 749 972 l 949 242 l 1151 972 l 1325 972 l 1050 0 l 868 0 l 671 726 l 475 0 z "},"ẅ":{"ha":1096,"x_min":18,"x_max":1078,"o":"m 403 822 q 331 851 360 822 q 301 924 301 881 q 331 994 301 965 q 403 1024 360 1024 q 474 994 444 1024 q 503 924 503 965 q 474 851 503 881 q 403 822 444 822 m 767 851 q 752 837 767 851 q 696 822 738 822 q 624 851 654 822 q 594 924 594 881 q 624 994 594 965 q 696 1024 654 1024 q 767 994 738 1024 q 796 924 796 965 q 767 851 796 881 m 408 0 l 236 0 l 18 736 l 186 736 l 335 203 l 481 736 l 617 736 l 764 208 l 910 736 l 1078 736 l 860 0 l 690 0 l 549 503 l 408 0 z "},"ẞ":{"ha":982,"x_min":101,"x_max":922,"o":"m 588 -21 q 369 18 483 -21 l 369 165 q 572 121 482 121 q 706 164 657 121 q 756 281 756 207 q 677 428 756 372 q 468 486 599 483 l 468 593 l 658 824 l 364 824 q 267 729 267 824 l 267 0 l 101 0 l 101 746 q 165 914 101 856 q 351 972 229 972 l 857 972 l 857 835 l 639 568 q 845 467 768 547 q 922 268 922 388 q 831 59 922 139 q 588 -21 739 -21 z "},"Ỳ":{"ha":933,"x_min":14,"x_max":919,"o":"m 579 1118 l 489 1019 l 108 1333 l 197 1432 l 579 1118 m 549 0 l 382 0 l 382 415 l 14 972 l 207 972 l 467 574 l 726 972 l 919 972 l 549 415 l 549 0 z "},"ỳ":{"ha":801,"x_min":18,"x_max":783,"o":"m 517 901 l 426 801 l 36 1121 l 125 1219 l 517 901 m 203 -278 l 69 -278 l 69 -139 l 203 -139 q 311 -78 289 -139 l 340 0 l 310 0 l 18 736 l 194 736 l 406 178 l 613 736 l 783 736 l 463 -126 q 203 -278 406 -278 z "},"–":{"ha":750,"x_min":51,"x_max":700,"o":"m 700 358 l 51 358 l 51 493 l 700 493 l 700 358 z "},"—":{"ha":1231,"x_min":51,"x_max":1179,"o":"m 1179 358 l 51 358 l 51 493 l 1179 493 l 1179 358 z "},"‘":{"ha":346,"x_min":54,"x_max":339,"o":"m 54 600 l 213 1081 l 339 1042 l 186 560 l 54 600 z "},"’":{"ha":346,"x_min":54,"x_max":339,"o":"m 339 1043 l 179 561 l 54 600 l 207 1083 l 339 1043 z "},"‚":{"ha":343,"x_min":7,"x_max":292,"o":"m 292 206 l 133 -276 l 7 -237 l 160 246 l 292 206 z "},"“":{"ha":608,"x_min":54,"x_max":601,"o":"m 54 600 l 213 1082 l 339 1043 l 186 560 l 54 600 m 317 600 l 475 1082 l 601 1043 l 449 560 l 317 600 z "},"”":{"ha":608,"x_min":54,"x_max":601,"o":"m 339 1043 l 179 561 l 54 600 l 207 1083 l 339 1043 m 601 1043 l 442 561 l 317 600 l 469 1083 l 601 1043 z "},"„":{"ha":606,"x_min":7,"x_max":554,"o":"m 292 206 l 133 -276 l 7 -237 l 160 246 l 292 206 m 554 206 l 396 -276 l 269 -237 l 422 246 l 554 206 z "},"†":{"ha":747,"x_min":51,"x_max":696,"o":"m 454 336 l 294 336 l 294 754 l 51 754 l 51 888 l 294 888 l 294 1042 l 454 1042 l 454 888 l 696 888 l 696 754 l 454 754 l 454 336 z "},"‡":{"ha":764,"x_min":60,"x_max":704,"o":"m 463 336 l 303 336 l 303 492 l 60 492 l 60 624 l 303 624 l 303 754 l 60 754 l 60 888 l 303 888 l 303 1042 l 463 1042 l 463 888 l 704 888 l 704 754 l 463 754 l 463 624 l 704 624 l 704 492 l 463 492 l 463 336 z "},"•":{"ha":454,"x_min":64,"x_max":390,"o":"m 226 278 q 111 325 158 278 q 64 440 64 372 q 110 557 64 510 q 226 604 157 604 q 343 557 296 604 q 390 440 390 510 q 343 324 390 371 q 226 278 296 278 z "},"…":{"ha":931,"x_min":53,"x_max":878,"o":"m 158 -18 q 83 13 114 -18 q 53 89 53 43 q 83 164 53 133 q 158 194 114 194 q 235 164 204 194 q 265 89 265 133 q 235 13 265 43 q 158 -18 204 -18 m 542 13 q 526 -3 542 13 q 465 -18 511 -18 q 389 13 419 -18 q 358 89 358 43 q 389 164 358 133 q 465 194 419 194 q 542 164 511 194 q 572 89 572 133 q 542 13 572 43 m 771 -18 q 696 13 726 -18 q 665 89 665 43 q 696 164 665 133 q 771 194 726 194 q 847 164 817 194 q 878 89 878 133 q 847 13 878 43 q 771 -18 817 -18 z "},"‰":{"ha":1738,"x_min":42,"x_max":1696,"o":"m 1049 974 l 347 -40 l 226 18 l 926 1031 l 1049 974 m 442 550 q 409 513 442 550 q 274 476 376 476 q 106 547 171 476 q 42 731 42 618 q 106 920 42 847 q 274 993 171 993 q 442 922 376 993 q 507 739 507 851 q 442 550 507 624 m 194 630 q 210 609 194 630 q 274 589 225 589 q 353 630 322 589 q 385 736 385 671 q 354 842 385 801 q 275 882 324 882 q 195 841 226 882 q 164 735 164 800 q 194 630 164 671 m 1156 53 q 1124 16 1156 53 q 989 -21 1092 -21 q 821 51 886 -21 q 756 235 756 122 q 821 424 756 351 q 989 496 886 497 q 1156 424 1092 494 q 1221 242 1221 353 q 1156 53 1221 126 m 1631 52 q 1598 15 1631 52 q 1464 -22 1565 -22 q 1297 50 1363 -22 q 1231 233 1231 122 q 1296 423 1231 350 q 1464 494 1361 496 q 1631 423 1565 493 q 1696 240 1696 353 q 1631 52 1696 126 m 1464 86 q 1546 128 1514 86 q 1578 238 1578 171 q 1547 346 1578 304 q 1465 388 1515 388 q 1381 346 1413 388 q 1349 236 1349 304 q 1381 128 1349 171 q 1464 86 1413 86 m 909 133 q 925 112 909 133 q 989 92 940 92 q 1069 133 1038 92 q 1100 239 1100 174 q 1069 344 1100 303 q 990 385 1039 385 q 909 344 940 385 q 878 238 878 303 q 909 133 878 174 z "},"‹":{"ha":486,"x_min":51,"x_max":447,"o":"m 447 114 l 347 24 l 51 319 l 51 456 l 344 749 l 442 658 l 172 388 l 447 114 z "},"›":{"ha":486,"x_min":39,"x_max":435,"o":"m 435 319 l 139 24 l 39 114 l 314 388 l 44 658 l 142 749 l 435 456 l 435 319 z "},"⁄":{"ha":904,"x_min":39,"x_max":865,"o":"m 865 971 l 158 -51 l 39 10 l 746 1031 l 865 971 z "},"⁰":{"ha":561,"x_min":57,"x_max":504,"o":"m 444 636 q 414 597 444 636 q 281 558 383 558 q 117 634 178 558 q 57 838 57 710 q 117 1046 57 968 q 281 1124 178 1124 q 444 1049 383 1124 q 504 846 504 974 q 444 636 504 714 m 207 712 q 220 689 207 712 q 281 665 233 665 q 355 713 328 665 q 382 843 382 761 q 356 972 382 925 q 282 1017 329 1018 q 208 971 235 1018 q 181 842 181 924 q 207 712 181 758 z "},"⁴":{"ha":533,"x_min":44,"x_max":507,"o":"m 421 572 l 300 572 l 300 674 l 44 674 l 44 786 l 301 1111 l 421 1111 l 421 775 l 507 775 l 507 674 l 421 674 l 421 572 m 300 969 l 146 775 l 300 775 l 300 969 z "},"⁵":{"ha":533,"x_min":58,"x_max":479,"o":"m 272 558 q 126 608 183 558 q 58 740 68 657 l 183 740 q 213 686 189 708 q 274 664 238 664 q 337 688 313 664 q 361 751 361 713 q 338 813 361 789 q 276 836 314 836 q 207 810 236 836 l 81 810 l 124 1111 l 461 1111 l 461 1004 l 218 1004 l 203 890 q 317 926 247 926 q 434 878 389 926 q 479 754 479 831 q 422 613 479 668 q 272 558 365 558 z "},"⁶":{"ha":550,"x_min":57,"x_max":501,"o":"m 290 558 q 120 635 183 558 q 57 840 57 711 q 123 1046 57 968 q 297 1124 189 1124 q 438 1077 383 1124 q 501 950 493 1031 l 379 950 q 353 999 375 979 q 296 1018 332 1018 q 206 970 238 1018 q 172 842 174 922 q 319 928 214 928 q 446 879 396 928 q 496 750 496 831 q 438 612 496 665 q 290 558 381 558 m 227 685 q 239 673 227 685 q 292 661 251 661 q 356 687 332 661 q 379 751 379 713 q 356 814 379 789 q 293 839 332 839 q 228 813 253 839 q 203 749 203 788 q 227 685 203 710 z "},"⁷":{"ha":478,"x_min":31,"x_max":450,"o":"m 222 572 l 81 572 l 332 1004 l 31 1004 l 31 1111 l 450 1111 l 450 983 l 222 572 z "},"⁸":{"ha":544,"x_min":49,"x_max":496,"o":"m 434 603 q 403 581 434 603 q 274 558 372 558 q 112 603 175 558 q 49 721 49 649 q 81 803 49 767 q 164 854 113 839 q 97 906 122 874 q 72 978 72 939 q 128 1083 72 1042 q 272 1124 183 1124 q 417 1083 361 1124 q 472 975 472 1042 q 449 904 472 936 q 383 854 425 872 q 466 804 436 839 q 496 721 496 769 q 434 603 496 649 m 211 915 q 223 906 211 915 q 274 897 235 897 q 336 915 313 897 q 360 961 360 933 q 336 1006 360 989 q 274 1024 313 1024 q 211 1006 235 1024 q 188 961 188 989 q 211 915 188 933 m 200 683 q 214 673 200 683 q 274 663 228 663 q 347 683 319 663 q 375 736 375 704 q 347 792 375 771 q 274 813 319 813 q 200 792 228 813 q 172 736 172 771 q 200 683 172 704 z "},"⁹":{"ha":535,"x_min":49,"x_max":478,"o":"m 256 558 q 111 605 168 558 q 49 728 54 651 l 171 728 q 197 681 174 699 q 258 663 221 663 q 340 708 313 663 q 364 831 367 754 q 318 776 351 796 q 242 757 285 757 q 105 806 158 757 q 51 935 51 856 q 108 1071 51 1018 q 251 1124 164 1124 q 417 1049 356 1124 q 478 840 478 974 q 421 635 478 713 q 256 558 364 558 m 192 874 q 204 862 192 874 q 256 850 217 850 q 319 874 294 850 q 343 938 343 899 q 319 999 343 975 q 256 1022 294 1022 q 192 999 217 1022 q 167 938 167 975 q 192 874 167 899 z "},"₀":{"ha":561,"x_min":57,"x_max":504,"o":"m 444 -74 q 414 -112 444 -74 q 281 -151 383 -151 q 117 -76 178 -151 q 57 128 57 0 q 117 336 57 258 q 281 414 178 414 q 444 339 383 414 q 504 136 504 264 q 444 -74 504 4 m 281 -44 q 355 3 328 -46 q 382 133 382 51 q 356 262 382 215 q 282 307 329 308 q 208 261 235 308 q 181 132 181 214 q 207 1 181 49 q 281 -44 233 -46 z "},"₁":{"ha":389,"x_min":32,"x_max":288,"o":"m 288 -139 l 165 -139 l 165 243 q 51 189 139 189 l 32 189 l 32 314 l 51 314 q 165 393 165 314 l 165 401 l 288 401 l 288 -139 z "},"₂":{"ha":519,"x_min":56,"x_max":465,"o":"m 465 -139 l 72 -139 l 72 -89 q 100 9 72 -35 q 167 80 128 53 q 244 131 206 107 q 311 182 283 154 q 339 242 339 210 q 320 289 339 271 q 269 307 301 307 q 206 283 229 307 q 179 219 182 258 l 56 219 q 125 362 67 310 q 276 414 183 414 q 410 369 358 414 q 461 253 461 324 q 424 153 461 199 q 341 81 386 107 q 258 24 296 54 q 221 -32 221 -7 l 465 -32 l 465 -139 z "},"₃":{"ha":529,"x_min":42,"x_max":482,"o":"m 272 -151 q 110 -101 172 -151 q 42 42 47 -51 l 164 42 q 198 -24 168 0 q 275 -47 228 -47 q 339 -28 315 -47 q 363 26 363 -8 q 338 74 363 57 q 271 92 314 92 l 183 92 l 183 185 l 269 185 q 324 202 304 185 q 344 247 344 219 q 326 292 344 274 q 269 311 307 311 q 208 289 233 311 q 178 232 182 267 l 54 232 q 127 368 67 322 q 274 414 188 414 q 409 373 357 414 q 461 267 461 332 q 361 146 461 176 q 451 97 419 132 q 482 10 482 61 q 424 -107 482 -62 q 272 -151 365 -151 z "},"₄":{"ha":533,"x_min":44,"x_max":507,"o":"m 421 -139 l 300 -139 l 300 -36 l 44 -36 l 44 76 l 301 401 l 421 401 l 421 65 l 507 65 l 507 -36 l 421 -36 l 421 -139 m 300 260 l 146 65 l 300 65 l 300 260 z "},"₅":{"ha":533,"x_min":58,"x_max":479,"o":"m 272 -151 q 126 -103 183 -151 q 58 31 68 -54 l 183 31 q 213 -25 189 -3 q 274 -47 236 -47 q 337 -22 313 -47 q 361 42 361 3 q 338 103 361 79 q 276 126 314 126 q 207 100 236 126 l 81 100 l 124 401 l 461 401 l 461 294 l 218 294 l 203 181 q 317 217 247 217 q 434 169 389 217 q 479 44 479 121 q 422 -97 479 -43 q 272 -151 365 -151 z "},"₆":{"ha":550,"x_min":57,"x_max":501,"o":"m 290 -151 q 120 -75 183 -151 q 57 131 57 1 q 123 336 57 258 q 297 414 189 414 q 438 367 383 414 q 501 240 493 321 l 379 240 q 353 289 375 269 q 296 308 332 308 q 206 260 238 308 q 172 132 174 213 q 319 218 214 218 q 446 169 396 218 q 496 40 496 121 q 438 -98 496 -44 q 290 -151 381 -151 m 227 -24 q 239 -36 227 -24 q 292 -49 251 -49 q 356 -24 332 -49 q 379 42 379 1 q 356 104 379 79 q 293 129 332 129 q 228 103 253 129 q 203 39 203 78 q 227 -24 203 0 z "},"₇":{"ha":478,"x_min":31,"x_max":450,"o":"m 222 -139 l 81 -139 l 332 294 l 31 294 l 31 401 l 450 401 l 450 274 l 222 -139 z "},"₈":{"ha":544,"x_min":49,"x_max":496,"o":"m 434 -106 q 403 -129 434 -106 q 274 -151 372 -151 q 112 -106 175 -151 q 49 11 49 -61 q 81 93 49 57 q 164 144 113 129 q 97 197 122 164 q 72 268 72 229 q 128 373 72 332 q 272 414 183 414 q 417 373 361 414 q 472 265 472 332 q 449 194 472 226 q 383 144 425 163 q 466 94 436 129 q 496 11 496 60 q 434 -106 496 -61 m 211 206 q 223 197 211 206 q 274 188 235 188 q 336 206 313 188 q 360 251 360 224 q 336 297 360 279 q 274 314 313 314 q 211 297 235 314 q 188 251 188 279 q 211 206 188 224 m 200 -28 q 214 -38 200 -28 q 274 -49 228 -49 q 347 -28 319 -49 q 375 26 375 -7 q 347 82 375 61 q 274 103 319 103 q 200 82 228 103 q 172 26 172 61 q 200 -28 172 -7 z "},"₉":{"ha":535,"x_min":49,"x_max":478,"o":"m 256 -151 q 111 -105 168 -151 q 49 18 54 -58 l 171 18 q 197 -29 174 -11 q 258 -47 221 -47 q 340 -1 313 -47 q 364 121 367 44 q 318 67 351 86 q 242 47 285 47 q 105 97 158 47 q 51 225 51 146 q 108 361 51 308 q 251 414 164 414 q 417 339 356 414 q 478 131 478 264 q 421 -74 478 3 q 256 -151 364 -151 m 192 165 q 204 152 192 165 q 256 140 217 140 q 319 165 294 140 q 343 228 343 189 q 319 289 343 265 q 256 313 294 313 q 192 289 217 313 q 167 228 167 265 q 192 165 167 189 z "},"€":{"ha":1164,"x_min":21,"x_max":1107,"o":"m 639 131 q 835 195 757 131 q 936 375 913 260 l 1107 375 q 951 83 1074 186 q 639 -21 829 -21 q 331 76 456 -21 q 167 342 206 174 l 21 342 l 21 440 l 151 440 q 150 489 150 456 q 151 521 150 510 l 21 521 l 21 621 l 164 621 q 325 892 200 792 q 639 993 450 993 q 951 888 828 993 q 1107 597 1075 783 l 936 597 q 833 778 913 713 q 639 843 754 843 q 447 785 525 843 q 339 621 369 726 l 763 621 l 763 521 l 322 521 q 321 489 321 510 q 322 440 321 456 l 763 440 l 763 342 l 342 342 q 451 186 374 242 q 639 131 529 131 z "},"№":{"ha":1476,"x_min":101,"x_max":1433,"o":"m 1222 543 q 1067 606 1128 543 q 1007 769 1007 669 q 1067 931 1007 869 q 1222 993 1126 993 q 1374 931 1315 993 q 1433 769 1433 869 q 1374 606 1433 669 q 1222 543 1315 543 m 268 0 l 101 0 l 101 972 l 282 972 l 764 240 l 764 972 l 931 972 l 931 0 l 750 0 l 268 732 l 268 0 m 1222 657 q 1290 689 1264 657 q 1317 769 1317 721 q 1290 849 1317 818 q 1222 879 1264 879 q 1153 849 1179 879 q 1126 769 1126 818 q 1153 689 1126 721 q 1222 657 1179 657 m 1385 306 l 1058 306 l 1058 440 l 1385 440 l 1385 306 z "},"™":{"ha":978,"x_min":26,"x_max":919,"o":"m 264 503 l 171 503 l 171 886 l 26 886 l 26 972 l 407 972 l 407 886 l 264 886 l 264 503 m 531 503 l 436 503 l 436 972 l 538 972 l 679 607 l 819 972 l 919 972 l 919 503 l 826 503 l 826 778 l 721 503 l 635 503 l 531 774 l 531 503 z "},"℮":{"ha":1094,"x_min":51,"x_max":1043,"o":"m 579 -21 q 202 124 353 -21 q 51 486 51 268 q 197 847 51 701 q 561 993 343 993 q 910 860 772 993 q 1043 519 1047 726 l 1043 483 l 257 483 l 257 136 q 579 22 389 22 q 844 100 733 22 q 994 307 956 178 l 1040 307 q 882 70 1008 161 q 579 -21 756 -21 m 257 842 l 257 525 l 846 525 l 846 854 q 561 950 731 950 q 257 842 383 950 z "},"←":{"ha":1315,"x_min":57,"x_max":1264,"o":"m 607 57 l 490 -40 l 57 394 l 57 546 l 490 979 l 606 882 l 268 546 l 1264 546 l 1264 394 l 269 394 l 607 57 z "},"↑":{"ha":1111,"x_min":43,"x_max":1068,"o":"m 635 -97 l 476 -97 l 476 793 l 150 467 l 43 569 l 476 1001 l 635 1001 l 1068 569 l 964 464 l 635 794 l 635 -97 z "},"→":{"ha":1315,"x_min":51,"x_max":1258,"o":"m 1258 394 l 825 -40 l 708 57 l 1046 394 l 51 394 l 51 546 l 1047 546 l 710 882 l 825 979 l 1258 546 l 1258 394 z "},"↓":{"ha":1111,"x_min":43,"x_max":1068,"o":"m 635 -29 l 476 -29 l 43 403 l 150 506 l 476 179 l 476 1069 l 635 1069 l 635 179 l 964 508 l 1068 403 l 635 -29 z "},"↔":{"ha":1482,"x_min":57,"x_max":1425,"o":"m 604 57 l 490 -40 l 57 394 l 57 546 l 490 979 l 603 881 l 267 546 l 1215 546 l 879 881 l 992 979 l 1425 546 l 1425 394 l 992 -40 l 878 57 l 1214 394 l 268 394 l 604 57 z "},"↖":{"ha":1140,"x_min":101,"x_max":1097,"o":"m 1097 93 l 983 -14 l 254 714 l 254 224 l 101 224 l 101 867 l 214 975 l 857 975 l 857 824 l 365 824 l 1097 93 z "},"↗":{"ha":1140,"x_min":43,"x_max":1039,"o":"m 886 713 l 157 -15 l 43 92 l 775 822 l 283 822 l 283 974 l 926 974 l 1039 865 l 1039 222 l 886 222 l 886 713 z "},"↘":{"ha":1140,"x_min":43,"x_max":1039,"o":"m 926 -1 l 283 -1 l 283 150 l 775 150 l 43 881 l 157 988 l 886 260 l 886 750 l 1039 750 l 1039 107 l 926 -1 z "},"↙":{"ha":1140,"x_min":101,"x_max":1097,"o":"m 857 -1 l 214 -1 l 101 107 l 101 750 l 254 750 l 254 260 l 983 988 l 1097 881 l 365 150 l 857 150 l 857 -1 z "},"↰":{"ha":1285,"x_min":63,"x_max":1188,"o":"m 1188 0 l 1035 0 l 1035 521 l 271 521 l 486 306 l 382 203 l 63 521 l 63 672 l 389 1001 l 496 899 l 269 672 l 1188 672 l 1188 0 z "},"↱":{"ha":1285,"x_min":99,"x_max":1222,"o":"m 251 0 l 99 0 l 99 672 l 1015 672 l 789 899 l 896 1001 l 1222 672 l 1222 521 l 904 203 l 800 306 l 1015 521 l 251 521 l 251 0 z "},"↲":{"ha":1285,"x_min":63,"x_max":1188,"o":"m 496 74 l 389 -29 l 63 300 l 63 451 l 382 769 l 486 667 l 271 451 l 1035 451 l 1035 972 l 1188 972 l 1188 300 l 269 300 l 496 74 z "},"↳":{"ha":1285,"x_min":101,"x_max":1225,"o":"m 1225 300 l 899 -29 l 792 74 l 1018 300 l 101 300 l 101 972 l 254 972 l 254 451 l 1018 451 l 803 667 l 907 769 l 1225 451 l 1225 300 z "},"∂":{"ha":833,"x_min":47,"x_max":776,"o":"m 393 -21 q 143 78 239 -21 q 47 333 47 176 q 140 588 47 489 q 379 686 233 686 q 607 594 511 686 q 246 944 575 842 l 288 1094 q 776 478 776 956 q 675 115 776 251 q 393 -21 574 -21 m 397 126 q 558 217 499 126 q 613 460 617 308 q 414 546 519 546 q 269 488 324 546 q 214 335 214 429 q 265 185 214 243 q 397 126 317 126 z "},"∅":{"ha":1000,"x_min":57,"x_max":944,"o":"m 931 929 l 821 793 q 944 478 944 667 q 818 161 944 288 q 500 35 692 35 q 265 97 368 35 l 154 -42 l 69 14 l 185 158 q 57 478 57 286 q 183 796 57 669 q 500 922 308 922 q 744 854 635 922 l 847 983 l 931 929 m 210 478 q 283 281 210 363 l 646 733 q 501 769 582 769 q 293 686 376 769 q 210 478 210 603 m 501 188 q 709 271 626 188 q 792 478 792 354 q 724 669 792 590 l 364 219 q 501 188 425 188 z "},"∏":{"ha":1015,"x_min":93,"x_max":922,"o":"m 428 0 l 261 0 l 261 822 l 93 822 l 93 972 l 922 972 l 922 822 l 754 822 l 754 0 l 588 0 l 588 822 l 428 822 l 428 0 z "},"∑":{"ha":821,"x_min":60,"x_max":761,"o":"m 761 0 l 60 0 l 60 157 l 358 497 l 60 817 l 60 972 l 761 972 l 761 818 l 268 818 l 514 563 l 514 429 l 269 154 l 761 154 l 761 0 z "},"−":{"ha":751,"x_min":51,"x_max":700,"o":"m 700 358 l 51 358 l 51 493 l 700 493 l 700 358 z "},"√":{"ha":926,"x_min":22,"x_max":939,"o":"m 606 0 l 428 0 l 225 581 l 22 581 l 22 736 l 346 736 l 513 238 l 776 1074 l 939 1042 l 606 0 z "},"∫":{"ha":831,"x_min":39,"x_max":792,"o":"m 183 -204 l 39 -204 l 39 -49 l 183 -49 q 265 14 254 -49 l 396 761 q 478 919 414 865 q 647 972 543 972 l 792 972 l 792 817 l 647 817 q 565 754 576 817 l 435 8 q 183 -204 399 -204 z "},"≈":{"ha":838,"x_min":51,"x_max":788,"o":"m 600 393 q 476 428 540 393 q 359 499 411 464 q 278 533 307 533 q 203 413 203 533 l 51 413 q 102 615 51 546 q 249 683 153 683 q 363 648 303 683 q 477 577 424 613 q 565 542 531 542 q 632 657 632 542 l 788 657 q 600 393 788 393 m 600 67 q 501 89 553 67 q 415 137 450 111 q 341 185 379 163 q 278 207 303 207 q 203 86 203 207 l 51 86 q 102 288 51 219 q 249 357 153 357 q 363 322 303 357 q 477 251 424 286 q 565 215 531 215 q 632 331 632 215 l 788 331 q 600 67 788 67 z "},"≠":{"ha":807,"x_min":60,"x_max":749,"o":"m 311 188 l 215 35 l 153 86 l 217 188 l 60 188 l 60 324 l 303 324 l 408 490 l 60 490 l 60 628 l 496 628 l 585 769 l 650 724 l 589 628 l 749 628 l 749 490 l 503 490 l 397 324 l 749 324 l 749 188 l 311 188 z "},"≤":{"ha":851,"x_min":72,"x_max":779,"o":"m 779 339 l 742 204 l 72 428 l 72 581 l 742 804 l 779 668 l 286 504 l 779 339 m 774 26 l 72 26 l 72 163 l 774 163 l 774 26 z "},"≥":{"ha":851,"x_min":72,"x_max":779,"o":"m 779 428 l 110 204 l 72 339 l 565 504 l 72 668 l 110 804 l 779 581 l 779 428 m 779 26 l 78 26 l 78 163 l 779 163 l 779 26 z "},"⏎":{"ha":1286,"x_min":63,"x_max":1188,"o":"m 496 74 l 389 -29 l 63 300 l 63 451 l 382 769 l 486 667 l 271 451 l 1035 451 l 1035 831 l 583 831 l 583 972 l 1188 972 l 1188 300 l 269 300 l 496 74 z "},"①":{"ha":1221,"x_min":58,"x_max":1163,"o":"m 611 -67 q 216 89 374 -67 q 58 486 58 244 q 213 882 58 725 q 611 1039 368 1039 q 1006 884 849 1039 q 1163 486 1163 729 q 1008 91 1163 249 q 611 -67 853 -67 m 611 42 q 922 166 799 42 q 1046 486 1046 290 q 924 804 1046 678 q 611 931 801 931 q 300 806 424 931 q 176 486 176 682 q 298 168 176 294 q 611 42 419 42 m 711 217 l 589 217 l 589 599 q 475 544 561 544 l 454 544 l 454 669 l 475 669 q 589 747 589 669 l 589 756 l 711 756 l 711 217 z "},"②":{"ha":1221,"x_min":58,"x_max":1163,"o":"m 611 -67 q 216 89 374 -67 q 58 486 58 244 q 213 882 58 725 q 611 1039 368 1039 q 1006 884 849 1039 q 1163 486 1163 729 q 1008 91 1163 249 q 611 -67 853 -67 m 611 42 q 922 166 799 42 q 1046 486 1046 290 q 924 804 1046 678 q 611 931 801 931 q 300 806 424 931 q 176 486 176 682 q 298 168 176 294 q 611 42 419 42 m 817 217 l 424 217 l 424 267 q 451 365 424 321 q 519 435 479 408 q 597 486 558 463 q 664 538 636 510 q 692 597 692 565 q 673 644 692 625 q 622 663 654 663 q 558 638 582 663 q 531 574 535 613 l 408 574 q 477 717 418 664 q 629 769 536 769 q 762 724 711 769 q 813 608 813 679 q 775 508 813 554 q 692 435 738 461 q 610 378 647 408 q 572 324 572 349 l 817 324 l 817 217 z "},"③":{"ha":1221,"x_min":58,"x_max":1163,"o":"m 611 -67 q 216 89 374 -67 q 58 486 58 244 q 213 882 58 725 q 611 1039 368 1039 q 1006 884 849 1039 q 1163 486 1163 729 q 1008 91 1163 249 q 611 -67 853 -67 m 611 42 q 922 166 799 42 q 1046 486 1046 290 q 924 804 1046 678 q 611 931 801 931 q 300 806 424 931 q 176 486 176 682 q 298 168 176 294 q 611 42 419 42 m 622 204 q 460 254 522 204 q 392 396 397 304 l 514 396 q 548 332 518 356 q 625 308 578 308 q 689 328 665 308 q 713 381 713 347 q 688 429 713 411 q 621 447 664 447 l 533 447 l 533 539 l 619 539 q 674 557 654 539 q 694 603 694 575 q 676 647 694 629 q 619 665 657 665 q 558 644 583 665 q 528 588 532 622 l 404 588 q 477 724 417 678 q 624 769 538 769 q 759 728 707 769 q 811 621 811 686 q 785 547 811 578 q 711 500 758 515 q 801 452 769 488 q 832 365 832 417 q 774 249 832 293 q 622 204 715 204 z "},"④":{"ha":1221,"x_min":58,"x_max":1163,"o":"m 611 -67 q 216 89 374 -67 q 58 486 58 244 q 213 882 58 725 q 611 1039 368 1039 q 1006 884 849 1039 q 1163 486 1163 729 q 1008 91 1163 249 q 611 -67 853 -67 m 611 42 q 922 166 799 42 q 1046 486 1046 290 q 924 804 1046 678 q 611 931 801 931 q 300 806 424 931 q 176 486 176 682 q 298 168 176 294 q 611 42 419 42 m 744 217 l 622 217 l 622 319 l 368 319 l 368 432 l 624 756 l 744 756 l 744 421 l 829 421 l 829 319 l 744 319 l 744 217 m 622 614 l 469 421 l 622 421 l 622 614 z "},"⑤":{"ha":1221,"x_min":58,"x_max":1163,"o":"m 611 -67 q 216 89 374 -67 q 58 486 58 244 q 213 882 58 725 q 611 1039 368 1039 q 1006 884 849 1039 q 1163 486 1163 729 q 1008 91 1163 249 q 611 -67 853 -67 m 611 42 q 922 166 799 42 q 1046 486 1046 290 q 924 804 1046 678 q 611 931 801 931 q 300 806 424 931 q 176 486 176 682 q 298 168 176 294 q 611 42 419 42 m 614 204 q 468 253 526 204 q 401 386 410 303 l 526 386 q 555 331 531 353 q 617 308 579 308 q 678 333 654 308 q 703 397 703 358 q 679 457 703 433 q 619 481 656 481 q 549 454 578 481 l 424 454 l 465 756 l 804 756 l 804 650 l 561 650 l 544 535 q 658 571 589 571 q 777 523 732 571 q 822 399 822 475 q 765 258 822 313 q 614 204 707 204 z "},"⑥":{"ha":1221,"x_min":58,"x_max":1163,"o":"m 611 -67 q 216 89 374 -67 q 58 486 58 244 q 213 882 58 725 q 611 1039 368 1039 q 1006 884 849 1039 q 1163 486 1163 729 q 1008 91 1163 249 q 611 -67 853 -67 m 611 42 q 922 166 799 42 q 1046 486 1046 290 q 924 804 1046 678 q 611 931 801 931 q 300 806 424 931 q 176 486 176 682 q 298 168 176 294 q 611 42 419 42 m 615 204 q 445 281 508 204 q 382 485 382 357 q 448 691 382 613 q 622 769 514 769 q 763 722 707 769 q 826 596 818 675 l 704 596 q 678 644 700 625 q 621 664 657 664 q 531 616 563 664 q 497 486 499 568 q 644 572 539 572 q 771 524 721 572 q 821 396 821 475 q 763 258 821 311 q 615 204 706 204 m 552 331 q 564 319 552 331 q 617 307 576 307 q 681 332 657 307 q 704 396 704 357 q 681 460 704 435 q 618 485 657 485 q 553 459 578 485 q 528 394 528 433 q 552 331 528 356 z "},"⑦":{"ha":1221,"x_min":58,"x_max":1163,"o":"m 611 -67 q 216 89 374 -67 q 58 486 58 244 q 213 882 58 725 q 611 1039 368 1039 q 1006 884 849 1039 q 1163 486 1163 729 q 1008 91 1163 249 q 611 -67 853 -67 m 611 42 q 922 166 799 42 q 1046 486 1046 290 q 924 804 1046 678 q 611 931 801 931 q 300 806 424 931 q 176 486 176 682 q 298 168 176 294 q 611 42 419 42 m 600 217 l 458 217 l 710 650 l 408 650 l 408 756 l 828 756 l 828 628 l 600 217 z "},"⑧":{"ha":1221,"x_min":58,"x_max":1163,"o":"m 611 -67 q 216 89 374 -67 q 58 486 58 244 q 213 882 58 725 q 611 1039 368 1039 q 1006 884 849 1039 q 1163 486 1163 729 q 1008 91 1163 249 q 611 -67 853 -67 m 611 42 q 922 166 799 42 q 1046 486 1046 290 q 924 804 1046 678 q 611 931 801 931 q 300 806 424 931 q 176 486 176 682 q 298 168 176 294 q 611 42 419 42 m 773 249 q 742 227 773 249 q 613 204 711 204 q 451 249 514 204 q 388 365 388 294 q 419 449 388 413 q 503 500 450 485 q 436 551 461 518 q 411 624 411 585 q 467 728 411 688 q 611 769 522 769 q 755 728 699 769 q 811 619 811 686 q 788 550 811 582 q 722 500 764 518 q 805 449 775 485 q 835 365 835 414 q 773 249 835 294 m 550 561 q 562 552 550 561 q 613 543 574 543 q 675 561 651 543 q 699 607 699 579 q 675 652 699 635 q 613 669 651 669 q 550 652 574 669 q 526 607 526 635 q 550 561 526 579 m 539 328 q 553 317 539 328 q 613 307 567 307 q 686 328 658 307 q 714 382 714 349 q 686 438 714 417 q 613 458 658 458 q 539 438 567 458 q 511 382 511 417 q 539 328 511 349 z "},"⑨":{"ha":1221,"x_min":58,"x_max":1163,"o":"m 611 -67 q 216 89 374 -67 q 58 486 58 244 q 213 882 58 725 q 611 1039 368 1039 q 1006 884 849 1039 q 1163 486 1163 729 q 1008 91 1163 249 q 611 -67 853 -67 m 611 42 q 922 166 799 42 q 1046 486 1046 290 q 924 804 1046 678 q 611 931 801 931 q 300 806 424 931 q 176 486 176 682 q 298 168 176 294 q 611 42 419 42 m 617 204 q 472 251 528 204 q 410 374 415 297 l 532 374 q 558 326 535 344 q 619 308 582 308 q 700 354 672 308 q 724 476 728 400 q 678 423 713 443 q 601 403 644 403 q 465 452 518 403 q 413 581 413 501 q 469 717 413 664 q 613 769 525 769 q 777 694 715 769 q 839 485 839 618 q 782 281 839 357 q 617 204 725 204 m 552 520 q 564 508 552 520 q 615 496 576 496 q 679 520 654 496 q 704 582 704 544 q 680 644 704 621 q 617 668 656 668 q 553 644 578 668 q 528 582 528 619 q 552 520 528 544 z "},"⓪":{"ha":1221,"x_min":58,"x_max":1163,"o":"m 611 -67 q 216 89 374 -67 q 58 486 58 244 q 213 882 58 725 q 611 1039 368 1039 q 1006 884 849 1039 q 1163 486 1163 729 q 1008 91 1163 249 q 611 -67 853 -67 m 611 42 q 922 166 799 42 q 1046 486 1046 290 q 924 804 1046 678 q 611 931 801 931 q 300 806 424 931 q 176 486 176 682 q 298 168 176 294 q 611 42 419 42 m 774 282 q 744 243 774 282 q 611 204 714 204 q 448 280 508 204 q 388 483 388 356 q 449 692 388 614 q 611 769 510 769 q 774 694 714 769 q 835 490 835 618 q 774 282 835 360 m 611 311 q 685 358 658 310 q 713 488 713 406 q 686 616 713 569 q 613 663 660 663 q 538 616 565 663 q 511 488 511 569 q 538 357 511 404 q 611 311 564 310 z "},"⓿":{"ha":1221,"x_min":58,"x_max":1163,"o":"m 611 -67 q 1008 91 853 -67 q 1163 486 1163 249 q 1006 884 1163 729 q 611 1039 849 1039 q 213 882 368 1039 q 58 486 58 725 q 216 89 58 244 q 611 -67 374 -67 m 767 282 q 737 243 767 282 q 604 204 707 204 q 441 280 501 204 q 381 483 381 356 q 442 692 381 614 q 604 769 503 769 q 767 694 707 769 q 828 490 828 618 q 767 282 828 360 m 604 311 q 678 358 651 310 q 706 488 706 406 q 679 616 706 569 q 606 663 653 663 q 531 616 558 663 q 504 488 504 569 q 531 357 504 404 q 604 311 557 310 z "},"◊":{"ha":804,"x_min":44,"x_max":760,"o":"m 475 0 l 328 0 l 44 486 l 328 972 l 475 972 l 760 486 l 475 0 m 221 486 l 401 174 l 583 486 l 401 799 l 221 486 z "},"☀":{"ha":1190,"x_min":60,"x_max":1132,"o":"m 624 765 l 569 765 l 569 1025 l 624 1025 l 624 765 m 515 756 l 465 735 l 368 972 l 417 994 l 515 756 m 826 974 l 728 735 l 678 756 l 776 994 l 826 974 m 419 704 l 382 665 l 200 849 l 238 888 l 419 704 m 994 849 l 813 665 l 774 704 l 957 886 l 994 849 m 351 619 l 331 569 l 93 669 l 113 719 l 351 619 m 1103 669 l 863 569 l 843 619 l 1081 718 l 1103 669 m 747 340 q 716 309 747 340 q 597 279 686 279 q 448 340 508 279 q 388 489 388 400 q 448 638 388 578 q 597 699 508 699 q 747 638 686 699 q 807 489 807 578 q 747 340 807 400 m 321 464 l 60 464 l 60 515 l 321 515 l 321 464 m 1132 464 l 874 464 l 874 515 l 1132 515 l 1132 464 m 351 358 l 113 260 l 92 308 l 331 408 l 351 358 m 1101 310 l 1082 260 l 843 358 l 863 408 l 1101 310 m 419 275 l 238 92 l 199 129 l 382 313 l 419 275 m 994 131 l 957 92 l 774 275 l 813 313 l 994 131 m 515 224 l 417 -17 l 367 6 l 465 244 l 515 224 m 826 6 l 776 -17 l 678 224 l 728 244 l 826 6 m 624 -47 l 569 -47 l 569 213 l 624 213 l 624 -47 z "},"☼":{"ha":1190,"x_min":60,"x_max":1132,"o":"m 624 765 l 569 765 l 569 1025 l 624 1025 l 624 765 m 515 756 l 465 735 l 368 972 l 417 994 l 515 756 m 826 974 l 728 735 l 678 756 l 776 994 l 826 974 m 419 704 l 382 665 l 200 849 l 238 888 l 419 704 m 994 849 l 813 665 l 774 704 l 957 886 l 994 849 m 351 619 l 331 569 l 93 669 l 113 719 l 351 619 m 1103 669 l 863 569 l 843 619 l 1081 718 l 1103 669 m 747 340 q 716 309 747 340 q 597 279 686 279 q 448 340 508 279 q 388 489 388 400 q 448 638 388 578 q 597 699 508 699 q 747 638 686 699 q 807 489 807 578 q 747 340 807 400 m 523 415 q 538 400 523 415 q 597 385 553 385 q 672 415 642 385 q 703 490 703 446 q 672 565 703 535 q 597 594 642 594 q 523 565 553 594 q 493 490 493 535 q 523 415 493 446 m 321 464 l 60 464 l 60 515 l 321 515 l 321 464 m 1132 464 l 874 464 l 874 515 l 1132 515 l 1132 464 m 351 358 l 113 260 l 92 308 l 331 408 l 351 358 m 1101 310 l 1082 260 l 843 358 l 863 408 l 1101 310 m 419 275 l 238 92 l 199 129 l 382 313 l 419 275 m 994 131 l 957 92 l 774 275 l 813 313 l 994 131 m 515 224 l 417 -17 l 367 6 l 465 244 l 515 224 m 826 6 l 776 -17 l 678 224 l 728 244 l 826 6 m 624 -47 l 569 -47 l 569 213 l 624 213 l 624 -47 z "},"❶":{"ha":1221,"x_min":58,"x_max":1163,"o":"m 611 -67 q 1008 92 853 -67 q 1163 486 1163 250 q 1005 884 1163 729 q 611 1039 847 1039 q 213 881 368 1039 q 58 486 58 724 q 216 89 58 244 q 611 -67 374 -67 m 711 217 l 589 217 l 589 599 q 475 544 561 544 l 454 544 l 454 669 l 475 669 q 589 747 589 669 l 589 756 l 711 756 l 711 217 z "},"❷":{"ha":1221,"x_min":58,"x_max":1163,"o":"m 611 -67 q 1008 92 853 -67 q 1163 486 1163 250 q 1005 884 1163 729 q 611 1039 847 1039 q 213 881 368 1039 q 58 486 58 724 q 216 89 58 244 q 611 -67 374 -67 m 817 217 l 424 217 l 424 267 q 451 365 424 321 q 519 435 479 408 q 597 486 558 463 q 664 538 636 510 q 692 597 692 565 q 673 644 692 625 q 622 663 654 663 q 558 638 582 663 q 531 574 535 613 l 408 574 q 477 717 418 664 q 629 769 536 769 q 762 724 711 769 q 813 608 813 679 q 775 508 813 554 q 692 435 738 461 q 610 378 647 408 q 572 324 572 349 l 817 324 l 817 217 z "},"❸":{"ha":1221,"x_min":58,"x_max":1163,"o":"m 611 -67 q 1008 92 853 -67 q 1163 486 1163 250 q 1005 884 1163 729 q 611 1039 847 1039 q 213 881 368 1039 q 58 486 58 724 q 216 89 58 244 q 611 -67 374 -67 m 622 204 q 460 254 522 204 q 392 396 397 304 l 514 396 q 548 332 518 356 q 625 308 578 308 q 689 328 665 308 q 713 381 713 347 q 688 429 713 411 q 621 447 664 447 l 533 447 l 533 539 l 619 539 q 674 557 654 539 q 694 603 694 575 q 676 647 694 629 q 619 665 657 665 q 558 644 583 665 q 528 588 532 622 l 404 588 q 477 724 417 678 q 624 769 538 769 q 759 728 707 769 q 811 621 811 686 q 785 547 811 578 q 711 500 758 515 q 801 452 769 488 q 832 365 832 417 q 774 249 832 293 q 622 204 715 204 z "},"❹":{"ha":1221,"x_min":58,"x_max":1163,"o":"m 611 -67 q 1008 92 853 -67 q 1163 486 1163 250 q 1005 884 1163 729 q 611 1039 847 1039 q 213 881 368 1039 q 58 486 58 724 q 216 89 58 244 q 611 -67 374 -67 m 744 217 l 622 217 l 622 319 l 368 319 l 368 432 l 624 756 l 744 756 l 744 421 l 829 421 l 829 319 l 744 319 l 744 217 m 622 614 l 469 421 l 622 421 l 622 614 z "},"❺":{"ha":1221,"x_min":58,"x_max":1163,"o":"m 611 -67 q 1008 92 853 -67 q 1163 486 1163 250 q 1005 884 1163 729 q 611 1039 847 1039 q 213 881 368 1039 q 58 486 58 724 q 216 89 58 244 q 611 -67 374 -67 m 614 204 q 468 253 526 204 q 401 386 410 303 l 526 386 q 555 331 531 353 q 617 308 579 308 q 678 333 654 308 q 703 397 703 358 q 679 457 703 433 q 619 481 656 481 q 549 454 578 481 l 424 454 l 465 756 l 804 756 l 804 650 l 561 650 l 544 535 q 658 571 589 571 q 777 523 732 571 q 822 399 822 475 q 765 258 822 313 q 614 204 707 204 z "},"❻":{"ha":1221,"x_min":58,"x_max":1163,"o":"m 611 -67 q 1008 92 853 -67 q 1163 486 1163 250 q 1005 884 1163 729 q 611 1039 847 1039 q 213 881 368 1039 q 58 486 58 724 q 216 89 58 244 q 611 -67 374 -67 m 615 204 q 445 281 508 204 q 382 485 382 357 q 448 691 382 613 q 622 769 514 769 q 763 722 707 769 q 826 596 818 675 l 704 596 q 678 644 700 625 q 621 664 657 664 q 531 616 563 664 q 497 486 499 568 q 644 572 539 572 q 771 524 721 572 q 821 396 821 475 q 763 258 821 311 q 615 204 706 204 m 552 331 q 564 319 552 331 q 617 307 576 307 q 681 332 657 307 q 704 396 704 357 q 681 460 704 435 q 618 485 657 485 q 553 459 578 485 q 528 394 528 433 q 552 331 528 356 z "},"❼":{"ha":1221,"x_min":58,"x_max":1163,"o":"m 611 -67 q 1008 92 853 -67 q 1163 486 1163 250 q 1005 884 1163 729 q 611 1039 847 1039 q 213 881 368 1039 q 58 486 58 724 q 216 89 58 244 q 611 -67 374 -67 m 600 217 l 458 217 l 710 650 l 408 650 l 408 756 l 828 756 l 828 628 l 600 217 z "},"❽":{"ha":1221,"x_min":58,"x_max":1163,"o":"m 611 -67 q 1008 92 853 -67 q 1163 486 1163 250 q 1005 884 1163 729 q 611 1039 847 1039 q 213 881 368 1039 q 58 486 58 724 q 216 89 58 244 q 611 -67 374 -67 m 773 249 q 742 227 773 249 q 613 204 711 204 q 451 249 514 204 q 388 365 388 294 q 419 449 388 413 q 503 500 450 485 q 436 551 461 518 q 411 624 411 585 q 467 728 411 688 q 611 769 522 769 q 755 728 699 769 q 811 619 811 686 q 788 550 811 582 q 722 500 764 518 q 805 449 775 485 q 835 365 835 414 q 773 249 835 294 m 550 561 q 562 552 550 561 q 613 543 574 543 q 675 561 651 543 q 699 607 699 579 q 675 652 699 635 q 613 669 651 669 q 550 652 574 669 q 526 607 526 635 q 550 561 526 579 m 539 328 q 553 317 539 328 q 613 307 567 307 q 686 328 658 307 q 714 382 714 349 q 686 438 714 417 q 613 458 658 458 q 539 438 567 458 q 511 382 511 417 q 539 328 511 349 z "},"❾":{"ha":1221,"x_min":58,"x_max":1163,"o":"m 611 -67 q 1008 92 853 -67 q 1163 486 1163 250 q 1005 884 1163 729 q 611 1039 847 1039 q 213 881 368 1039 q 58 486 58 724 q 216 89 58 244 q 611 -67 374 -67 m 617 204 q 472 251 528 204 q 410 374 415 297 l 532 374 q 558 326 535 344 q 619 308 582 308 q 700 354 672 308 q 724 476 728 400 q 678 423 713 443 q 601 403 644 403 q 465 452 518 403 q 413 581 413 501 q 469 717 413 664 q 613 769 525 769 q 777 694 715 769 q 839 485 839 618 q 782 281 839 357 q 617 204 725 204 m 552 520 q 564 508 552 520 q 615 496 576 496 q 679 520 654 496 q 704 582 704 544 q 680 644 704 621 q 617 668 656 668 q 553 644 578 668 q 528 582 528 619 q 552 520 528 544 z "},"【":{"ha":508,"x_min":119,"x_max":449,"o":"m 449 -126 l 119 -126 l 119 1122 l 449 1122 l 449 1106 q 297 817 349 976 q 246 492 244 657 q 449 -110 249 157 l 449 -126 z "},"】":{"ha":508,"x_min":61,"x_max":390,"o":"m 390 1122 l 390 -126 l 61 -126 l 61 -110 q 264 492 261 157 q 213 817 265 657 q 61 1106 161 976 l 61 1122 l 390 1122 z "},"〜":{"ha":1692,"x_min":51,"x_max":1640,"o":"m 1219 279 q 1021 308 1122 279 q 847 372 919 338 q 677 435 775 406 q 488 464 579 464 q 293 430 390 464 q 126 339 196 396 l 51 454 q 254 565 139 524 q 486 606 369 606 q 703 577 594 606 q 884 514 811 549 q 1049 451 957 479 q 1221 422 1142 422 q 1392 460 1317 422 q 1546 585 1468 497 l 1640 489 q 1446 329 1547 379 q 1219 279 1344 279 z "},"ﬁ":{"ha":835,"x_min":36,"x_max":775,"o":"m 669 833 q 594 865 625 833 q 564 940 564 896 q 594 1015 564 985 q 669 1046 625 1046 q 745 1015 715 1046 q 775 940 775 985 q 745 864 775 894 q 669 833 715 833 m 329 0 l 165 0 l 165 597 l 36 597 l 36 736 l 165 736 l 165 828 q 226 987 165 932 q 400 1042 286 1042 l 497 1042 l 497 903 l 411 903 q 329 817 329 903 l 329 736 l 753 736 l 753 0 l 588 0 l 588 597 l 329 597 l 329 0 z "},"ﬂ":{"ha":853,"x_min":36,"x_max":768,"o":"m 329 0 l 165 0 l 165 597 l 36 597 l 36 736 l 165 736 l 165 828 q 226 987 165 932 q 400 1042 286 1042 l 768 1042 l 768 0 l 603 0 l 603 903 l 411 903 q 329 817 329 903 l 329 736 l 543 736 l 543 597 l 329 597 l 329 0 z "}}}
